<svg xmlns="http://www.w3.org/2000/svg" width="30" height="30" viewBox="0 0 22.5 22.5"><defs><clipPath id="a"><path d="M0 .2h22V22H0Zm0 0"/></clipPath></defs><path fill="#ffffff" d="M10.832 2.82c-2.008 0-3.637 1.746-3.637 3.895 0 2.152 1.63 3.898 3.637 3.898 2.012 0 3.64-1.746 3.64-3.898 0-2.149-1.628-3.895-3.64-3.895"/><path fill="#ffffff" d="M17.418 18.313q.023-.152.023-.31v-1.452a4.406 4.406 0 0 0-4.406-4.406H8.633a4.406 4.406 0 0 0-4.406 4.406v1.453q0 .157.02.308a9.96 9.96 0 0 1-3.384-7.48c0-5.496 4.473-9.969 9.969-9.969 5.5 0 9.973 4.473 9.973 9.969a9.95 9.95 0 0 1-3.387 7.48M10.832 0C4.859 0 0 4.86 0 10.832c0 5.977 4.86 10.836 10.832 10.836 5.977 0 10.836-4.86 10.836-10.836C21.668 4.859 16.808 0 10.832 0"/><path fill="#ffffff" d="M10.832 3.02c-2.008 0-3.637 1.742-3.637 3.894s1.63 3.895 3.637 3.895c2.012 0 3.64-1.743 3.64-3.895s-1.628-3.894-3.64-3.894"/><g clip-path="url(#a)"><path fill="#ffffff" d="M17.418 18.512q.023-.151.023-.309V16.75a4.406 4.406 0 0 0-4.406-4.406H8.633a4.406 4.406 0 0 0-4.406 4.406v1.453q0 .157.02.309a9.97 9.97 0 0 1-3.384-7.48c0-5.497 4.473-9.97 9.969-9.97 5.5 0 9.973 4.473 9.973 9.97a9.96 9.96 0 0 1-3.387 7.48M10.832.199C4.859.2 0 5.06 0 11.031s4.86 10.836 10.832 10.836c5.977 0 10.836-4.863 10.836-10.836S16.808.2 10.832.2"/></g></svg>

