<svg xmlns="http://www.w3.org/2000/svg" width="120" height="125" viewBox="0 0 90 93.75"><defs><clipPath id="a"><path d="M.121 64H12v17H.121Zm0 0"/></clipPath><clipPath id="b"><path d="M10 25h71v67.754H10Zm0 0"/></clipPath><clipPath id="c"><path d="M68 65h21.879v15H68Zm0 0"/></clipPath><clipPath id="d"><path d="M.121 64H12v17H.121Zm0 0"/></clipPath><clipPath id="e"><path d="M10 25h71v67.754H10Zm0 0"/></clipPath><clipPath id="f"><path d="M68 65h21.879v15H68Zm0 0"/></clipPath></defs><path fill="#d5ba2b" d="M45.383 24.98a.93.93 0 0 1-.52-.054.9.9 0 0 1-.351-.285c-.157-.184-.79-.395-.895-.352l-.14.063a2 2 0 0 0-.172.093c-.067.04-.137.082-.2.13-.015.01-.128.1-.125.093-.214.203-.367.45-.609.629-.336.25-.77.324-1.152.137-.32-.157-.52-.5-.606-.836a5 5 0 0 1-.086-.473q-.005-.016-.004-.031c-.02-.055-.027-.11-.039-.164-.058-.25-.117-.504-.199-.75-.129-.235-.27-.465-.394-.703-.078-.149-.125-.325-.239-.438-.195-.195-.394-.168-.632.012-.383.293-.606.023-.77-.309a7.5 7.5 0 0 1-.395-.937.2.2 0 0 1-.054.008c.097.312.152.632.176.976.023.387.046.77.101 1.152.059.407.125.801.172 1.196q.065.204.105.41l.09-.035q-.036.053-.074.105c.04.203.059.414.059.621 0 .133-.004.266-.004.399.039.07.07.14.094.218.144.477.156.961.214 1.45 0 .02.004.039.004.058l.012.043a8.677 8.677 0 0 0 .938 4.117c.265.125.582.274.94.438.661.3.802.355 1.005.414.242.07.52.098 1.058.152.657.067.868.063 1.399.114.281.027.7.07 1.207.152a34 34 0 0 0 .086-7.813M42.203 34.605v-.003l-.004-.004a.3.3 0 0 0-.039-.063.8.8 0 0 1-.273-.07c-.86-.39-1.453-1.121-2.157-1.715a5 5 0 0 0-.613-.437c-.14.093-.332.128-.55.097a7 7 0 0 1-1.028-.25c-.484-.144-.95-.39-1.445-.465-.922-.14-1.856-.18-2.785-.273-.907-.09-1.809-.211-2.715-.274-.375-.023-.508-.285-.41-.492.16-.332.41-.699.722-.87.63-.34 1.313-.579 1.957-.891a.56.56 0 0 1 .25-.262q.151-.078.29-.16l.077-.137q.094-.165.204-.313c.007-.035.02-.07.03-.105q.077-.235.165-.465c-.879.297-1.668.524-2.402.863-.954.438-1.86.977-2.766 1.504-.324.188-.59.473-.883.72-.262.218-.187.46.047.593.523.297 1.059.61 1.629.785.637.203 2.453.508 2.683.621.188-.098.41-.156.606-.18.89-.093 1.777-.168 2.645.274.238.12.496.441.988.277.336-.113.87.352 1.136.832-1.304.29-2.226 1.172-3.214 1.926-.551.422-1.047.937-1.5 1.465-.38.441-.739.933-.953 1.465-.086.21-.051.472 0 .734a4.846 4.846 0 0 0 .418.063c.015 0 .066 0 .09.003.058 0 .117.004.175.004q.381.006.762-.047l.172-.023c.011-.004.015-.004.02-.004a7903.521 7903.521 0 0 0 .195-.043 7 7 0 0 0 .257-.105c-.004 0 .094-.051.106-.055l.172-.09q.135-.076.27-.16c.84-.516 1.386-1.04 2.077-1.727 1.36-1.343 3.13-1.957 5-2.023.106-.098.215-.184.336-.262q.124-.082.242-.164c0-.011.004-.023.016-.027 0-.008-.004-.012-.004-.02-.004-.02-.008-.035 0 0 0 .008.004.016.004.02h.004c-.004 0-.004.004-.004.004v.004c.004-.004.008-.004.008-.008v-.043c0-.008-.004-.012-.008-.024m0 0"/><g clip-path="url(#a)"><path fill="#d5ba2b" d="M11.223 71.195c.109-.355.293-.664.277-.957-.043-.687-1.453-4.25-1.871-4.668a1.45 1.45 0 0 0-.813-.402c-1.246-.133-2.5-.219-3.754-.309a15 15 0 0 0-1.59-.043c-.163.008-.41.153-.464.297-.2.52-2.746 4.075-2.766 4.817-.035 1.297-.12 6-.043 6.586.074.527 1.965 3.226 2.442 3.261 1.718.125 3.433.27 5.148.391.133.012.344-.031.582-.14.621-.282.848-.887 1.227-1.614.238-.453.597-1.066 1.129-1.773.18-1.75.496-5.446.496-5.446m0 0"/></g><g clip-path="url(#b)"><path fill="#d5ba2b" d="M80.105 59.34c-.16-.57-.613-.676-.632-1.59-.012-.566.007-1.125-.184-1.648-.309-.848-.7-1.668-1.043-2.504-.203-.504-.074-.7.465-.797.133-.024.25-.11.453-.2-.355-.956-.656-1.933-1.082-2.851-.512-1.098-1.004-2.223-1.871-3.11-.117-.12-.473-.199-.563-.12-.488.437-1.043.855-1.09 1.593-.042.707-.07 1.418-.105 2.16q-.018.005-.031.004c.086.41.016.82-.168 1.2-.067.226-.16.445-.293.632a.5.5 0 0 1-.086.114q-.052.065-.105.117a4.6 4.6 0 0 1-1.438.945c-.602.246-1.078 0-1.637-.23a.4.4 0 0 1-.195-.2c-.504-.234-.922-.652-1.215-1.125-.617-.578-1.828-2.062-1.836-2.507-.004-.285.668-2.164 1.098-2.368.762-.359 1.55-.375 2.34-.46.195-.024.402.035.601.058.766.082 2.157.32 2.371.035.192-.254.153-.683.227-1.031.121-.559.254-1.113.383-1.672.09-.402.113-.836.277-1.207.527-1.2.457-2.445.328-3.683-.082-.774-.347-1.524-.48-2.293-.145-.848-.817-1.313-1.32-1.895-.356-.406-.817-.715-1.2-1.098-.828-.828-1.605-1.734-2.761-2.113-.72-.238-1.461-.5-2.204-.547-.89-.058-1.796.09-2.695.153.023-.09.027-.192.074-.266.313-.488.157-.813-.3-1.117-.543-.364-1.04-.801-1.575-1.184-.59-.418-1.152-.914-1.804-1.195-.989-.422-2.047-.688-3.075-1.027a47 47 0 0 1-1.574-.551c-.277-.106-.543-.246-.847-.387-.004.016-.012.031-.016.047 0 .254.047.469.133.637.172.097.328.234.441.386a1 1 0 0 0 .102.028c.539.105 1.082.132 1.586.402.66.352 1.347.645 2.023.969.215.105.418.23.625.343.879.485 1.809.899 2.137 1.989.125.414.066.597-.375.648-.32.04-.645.016-.965.04-.848.054-1.664.218-2.305.835-.097.094-.172.39-.105.465.574.688-.004 1.262-.067 1.816-.73-.105-1.398-.167-2.047-.308-.425-.094-.835-.277-1.226-.477-.274-.14-.309-.336.031-.52.336-.179.64-.417.961-.632q-.024-.093-.055-.191c-.46.05-.945.023-1.379.16-1.218.386-2.414.863-3.632 1.254-.621.199-1.235.355-1.653.91-.082.11-.238.16-.347.254-.285.254-.672.379-.817.82a.83.83 0 0 1-.484.527c-.215.137-.516.164-.79.13-.14-.02-.276-.052-.413-.079-.149-.027-.301-.039-.453-.047-.004 0-.008.004-.016.004-.582.348-1.215.485-1.875.211-.305-.129-.598-.289-.906-.418a.2.2 0 0 0-.055-.02 2 2 0 0 1-.348.352q.018.21.094.387a7 7 0 0 1 1.07.25c0 .004.004.004.004.004.832-.035 1.668.07 2.383.46a.756.756 0 0 1 .38.864c.089.195.155.406.183.625.101.73-.16 1.426-.473 2.094-.012.304-.008.61.02.914.03.351-.188.719-.2 1.082-.02.664.055 1.336.04 2-.02.797-.04 1.597-.153 2.383-.156 1.097-.02 2.105.805 2.886.668.633.66 1.403.636 2.203q-.003.062-.007.122c.53-.098 1.062-.149 1.601-.086.563.07 1.055.277 1.567.504.21.093.43.175.656.23.187.04.379.05.562.102.47.129.524.492.625.898.086.34.211.648.41.938.223.32.52.546.805.804.328.297.574.656.543 1.114-.035.484-.281.93-.66 1.226-.363.293-.773.348-1.195.5-.262.094-.461.281-.7.418q.04.048.075.09l.078.055c.11.082.238.191.277.312q.031.094.055.188c.168.246.332.492.512.73.336.457.785.867.949 1.43.258.886-.512 1.695-1.262 2.035-.898.414-1.93-.031-2.68-.574-.406-.293-.699-.649-.867-1.125-.16-.457-.176-.95-.133-1.426.043-.434.043-.89.301-1.262.121-.176.278-.293.45-.39.136-.157.304-.282.484-.329a2 2 0 0 1 .336-.058l.043-.024a.6.6 0 0 1 .16-.062c.027-.18.008-.465-.035-.672-.426-.418-.907-.613-1.532-.402-.394.129-.914-.102-.992-.368-.101-.347.223-1 .57-1.167.536-.258 1.06-.528 1.301-1.13.196-.484-.183-.949-.699-.94a2.8 2.8 0 0 1-.562-.06q-.16.06-.301.126c-.125.058-.211.101-.266.168q.119.13.23.253c-.449.426-.804.739-1.12 1.083-.118.128-.176.332-.211.511-.102.54-.176 1.086-.27 1.625-.015.188-.07.367-.172.528-.16.242-.402.382-.672.441a4 4 0 0 1-.363.312q-.374.3-.777.547c-.39.485-.778.973-1.203 1.422-.664.711-1.68 1.485-2.72 1.168-.976-.3-1.25-1.43-.862-2.289.695-1.547 2.687-1.867 3.46-3.281-.464-.152-.933-.3-1.3-.594-.254-.121-.43-.293-.469-.586-.152-.355-.117-.762.188-1.043.324-.297.843-.402 1.265-.281.707.207 1.266.793 1.813 1.258l.187.133a.5.5 0 0 1 .106.105q.06.046.101.074c.063.043.125.086.192.121.011.008.05.028.082.043q.005-.004.004-.007.001-.018.003-.024-.001-.01.004-.031.005-.084.004-.16.005-.14-.008-.285a4 4 0 0 0-.03-.372c-.036-.039-.071-.074-.106-.113-.301-.308-.864-.363-1.309-.527-.426-.156-.312-.426-.137-.688.11-.156.266-.28.391-.43.262-.312.36-.667.445-1.078.133-.648.422-1.269.711-1.87.176-.364.297-.665.051-1.036-.14-.218-.266-.449-.398-.691a6 6 0 0 1-.739 1.055c-.476.562-1.062 1.015-1.55 1.566-.215.242-.399.516-.598.77-.047.222-.211.343-.39.433q-.46.434-1.048.68c-.437.183-.941.226-1.41.246-.472.023-.937.031-1.41-.035-.953-.13-1.82-.61-2.543-1.227-.004-.004-.008-.004-.008-.008a6 6 0 0 1-.48-.425 1.7 1.7 0 0 1-.274-.286 5.4 5.4 0 0 1-1.136-2.035 1 1 0 0 1-.04-.183c-.226-.512-.41-1.051-.48-1.61a3.3 3.3 0 0 1-.078-.676 3.6 3.6 0 0 1-.16-.562 4.9 4.9 0 0 1 .27-2.836c.101-.258.238-.48.398-.684.172-.425.41-.8.77-1.12.042-.04.09-.075.132-.114.07-.117.14-.234.223-.344-.418-.027-.86.075-1.309.196-.601.16-1.199.328-1.8.492q-.023.059-.051.117l-.035-.094q-.767.217-1.54.422c-1.882.496-4.128 1-5.808-.297-.66-.511-1.149-1.273-1.39-2.066-.247-.793-.231-1.613-.055-2.418l.003-.024q-.018-.069-.03-.132c.03-.047.066-.09.097-.137.187-.703.508-1.36 1.121-1.79.707-.491 1.64-.62 2.473-.741.922-.137 1.87-.203 2.765-.414.336-.079.547-.149.778-.286.168-.18.394-.316.625-.449.097-.078-.551-.195-.633-.547-.356-.023-.696-.117-.992-.05-.407.093-.774.347-1.176.464-.344.102-.719.106-1.078.153l-.024-.164c.07-.032.172-.043.203-.094.153-.266.297-.54.414-.824.004-.016-.27-.2-.421-.215-.899-.11-1.801-.18-2.7-.281-1-.11-1.87.343-2.558.906-.785.64-1.395 1.523-1.985 2.367-.84 1.195-1.437 2.527-1.875 3.926a8.2 8.2 0 0 0-.265 3.672c.054.383.117.77.242 1.129.273.785.648 1.52 1.434 2.086-.079-.598-.008-1.555.066-1.512.039-.14.219.84.336 1.234.11.36.172.739.242 1.11.008.043-.57.949-.379 1.304.527.973.13 1.871-.11 2.79-.007.023-.077.027-.148.046-.047-.394-.07-.777-.132-1.148-.06-.34-.075-.739-.266-.992-.328-.43-.758-.793-1.188-1.13-.386-.304-.628-.234-.84.2-.175.36-.265.758-.43 1.125-.788 1.793-1.015 3.672-.901 5.605.007.106.035.246.109.305.324.258.27.594.21.922a78 78 0 0 1-.421 2.152c-.023.106-.105.196-.168.29-.2.292-.457.57-.66.863a6 6 0 0 0-.102 1.261c.02.985.067 1.989.184 2.965.121.977.476 1.895.644 2.86.028.16.047.335.075.515q.066.165.136.328c.23.551.496 1.114.614 1.703.105.547.101 1.114.265 1.653l.012.043c1 .465 1.992.93 2.898 1.351-.296.055-.699.07-1.058.207-.278.106-.465.102-.7-.062-.808-.559-1.519-.528-2.28.078-.071.055-.192.133-.247.11-.469-.216-.754.077-1.086.327-.222.168-.508.278-.785.352-.617.16-2.402-.578-2.324-.254.043.172-.035.379-.063.567-.039-.008-.074-.02-.113-.028-.047-.183-.09-.37-.137-.555l-.18.012-.245 1.617q.004.07.007.145 0 .069.024.137l1.816.445c-.066.137-.136.352-.265.594-.223.425-.586.797-.434 1.36.168.616.266 1.253.457 1.862.215.684 1.02 1.121 1.703.887.672-.226 1.133-.043 1.574.457.493.563.88.61 1.54.293.5-.242.988-.492 1.55-.062.16.117.485.027.73.015.575-.023 1.15-.047 1.72-.101.285-.032.628-.055.835-.22.301-.241.508-.597.743-.917.265-.363.515-.742.77-1.117.066.02.132.035.198.054-.062.297-.16.997.176 1.73.34.74.926 1.099 1.43 1.403.394.242 1.062.649 1.941.649.95 0 1.34-.477 1.555-.282.348.313-.652 1.543-1.32 3.84-.168.578-.293 1.117-.47 2.211-.218 1.39-.425 2.785-.722 4.16q-.111.528-.246 1.043a774 774 0 0 0 18.805.262q9.451.023 18.91-.184c-.086-1.175-.09-2.355-.09-3.53 0-.325-.187-4.833-.433-6.763-.051-.406.578-1.542.636-1.613q.049-.052.102-.105c.062-.117 1.047-.942 1.32-1.035q.205-.07.434-.086c.277-.344.566-.688.62-1.063.15-1.004.044-2.047.044-3.02.324-.128.699-.238.82-.093.047.058.035.129.035.254 0 0 .004.304.145.719.144.418.387.34.691.87q.165.277.281.594c.145.395.438.7.961.672-.148-.785-.265-1.527-.433-2.265a16 16 0 0 0-.457-1.59c-.239-.7-.375-1.43-.106-2.106.157-.394.606-.675.95-1.035-.079-.02-.215-.027-.325-.086-.058-.031-.074-.144-.11-.222-.46.324-1.472 1.41-1.315 1.425l.035.094-.035-.094c-.356.035-.711.075-1.067.11a.68.68 0 0 1-.375-.274c-.215-.34.203-.71.184-1.27-.032-.816-.149-1.605-.657-2.273a9 9 0 0 0-.851-.968c-.363-.364-.715-.782-1.156-1.016-.426-.227-.961-.254-1.47-.371-.316-1.418-.077-2.828.368-4.23.508-1.59.84-3.22 1.09-4.864.027-.32.07-.637.137-.953q.044-.334.086-.668a.8.8 0 0 1 .097-.258q.029-.091.074-.18c.125-.242.313-.437.504-.628a5 5 0 0 1 1.641-1.442c.207-.117.434-.156.645-.125l.097.012c1.18.191 2.098 1.238 2.778 2.14a10.5 10.5 0 0 1 1.445 2.614c.433 1.148.52 2.465.445 3.676a13.6 13.6 0 0 1-.379 2.504c-.004.074-.015.238-.011.078-.004.312-.024.629-.051.937-.067.692-.297 1.305-.5 1.961-.082.254-.114.52-.207.77.074.632-.102 1.257-.344 1.898-.215.566-.543.996-1.055 1.305.434-.172.871-.348 1.352-.543-.227.515-.41.922-.645 1.445l1.758-1.352-.086-.156h-.66c.395-.297.793-.426 1.242-.187.149.078.332.078.5.11.04-.138.043-.329.133-.388a37 37 0 0 1 1.844-1.109c.437-.242.691-1.25.449-1.555.059-.21.152-.367.14-.515-.062-.809.169-1.383.965-1.782.618-.308.52-1.062-.093-1.386-.086-.047-.168-.098-.254-.14-.524-.263-.637-.696-.324-1.184a.9.9 0 0 0 .144-.375c.055-.594-.004-1.2.328-1.758.254-.422.399-.907.633-1.344q.41-.781.898-1.516c.055-.082.356-.125.418-.062.567.555.665 1.273.438 1.969a5 5 0 0 0-.047 3.007c.203.711.414 1.356-.34 1.871-.058.04-.05.247-.004.344.227.465.473.922.692 1.336-.035.156-.078.317-.102.48a2.4 2.4 0 0 0-.035.473q.04.494.086.989.084-.135.16-.27l-.035-.172q.06.02.113.031.294-.532.535-1.09.053-.245.098-.492c.02-.113.309-1.543.598-2.707.675-2.742 1.07-2.847.843-3.644m-66.28 16.476c-.259-.125-.481-.32-.72-.484.282-.2.567-.398.915-.644.14.203.242.289.253.382.04.258-.308.813-.449.746m1.034-2.601c-.03.418-.12.824-.18 1.238-.034.258-.16.383-.425.3-.29-.089-.606-.144-.86-.296-.152-.094-.21-.348-.28-.473.081-.668.35-1.148.792-1.453.168-.113.574.035.824.156.106.055.145.352.133.528Zm2.688-.508c-.027.465-.129.93-.211 1.5-.293-.207-.461-.348-.652-.45-.07-.038-.196.024-.293.044.027.094.039.261.086.27.703.152.543.788.617 1.214.097.559 0 1.149-.008 1.727 0 .11.016.218.039.324.137.602.074 1.156-.39 1.602-.364.347-.739.68-1.106 1.015q-.088-.024-.176-.055c0-.37-.043-.75.016-1.113.027-.16.312-.258.394-.426.293-.605.66-1.164.067-1.882-.29-.348-.254-.977-.332-1.485-.082-.555.07-1.113-.141-1.683-.262-.704.488-1.586 1.23-1.54.305.02.88.594.86.934Zm.598-7.734c-.11 0-.223-.016-.223-.016-1.027-.016-1.09-.062-1.106-.98-.02-1.16-.043-2.325-.003-3.48.007-.372.136-.782.343-1.083.11-.164.5-.187.758-.176.14.008.34.196.395.344.148.418.214.863.347 1.29.098.312.246.608.371.91.024.058.075.113.078.175.063.652.137 1.305.168 1.961.036.664-.398 1.05-1.128 1.055m4.773 9.07c-.156.055-.223.367-.352.602v-.942a2 2 0 0 0-.152-.031c-.05.187-.14.379-.144.57-.012.684-.067.738-.782.535.043.196.082.352.114.512.074.387-.051.613-.473.664-.399.047-.465-.156-.531-.496-.196-.988-.442-1.965-.672-2.969-.051 1.067-.11 2.09-.145 3.117-.023.551-.136 1.133.371 1.579.176-.235.028-.801.535-.778.336.02.665.2 1.043.434-.332.125-.66.246-1.011.375.02.39.054.832.058 1.273.004.57-.183.719-.754.77-.347.035-.687.164-1.035.238-.152.031-.328.067-.468.02-.184-.059-.489-.204-.485-.301.012-.266.082-.61.262-.774.48-.433.605-.777.344-1.379-.04-.085-.07-.183-.133-.253-.348-.41-.434-.856-.242-1.364.03-.082-.04-.218-.094-.312-.18-.309-.16-.574.14-.793-.445-.457-.66-1.426-.335-1.965.109-.184.527-.273.785-.242.433.05.793.183 1.035-.371.055-.125.582-.164.816-.067.285.118.492.426.785.7-.199.09-.308.136-.41.183.008.598.239 1.027.801 1.152.285-.187.559-.363.86-.558.152.043.347.101.55.16.078.305.156.566-.281.715Zm.715-19.633c-.07.063-.172.153-.242.14-.489-.09-1.059-.081-1.434-.347-.309-.215-.484-.746-.547-1.164-.12-.797.3-1.512.531-2.25.196-.64.243-1.25-.039-1.871-.152-.34.125-1.215.47-1.332.222-.074.491-.027.737.004.758.097 1.516.222 2.274.316.43.051.61.34.695.696.082.34.11.695.152.968-.09 1.559-.5 2.907-1.64 3.946-.324.293-.637.597-.957.894m5.703 12.633c-.023.336-.18.437-.5.422-.625-.04-1.258 0-1.879-.09-.68-.094-1.125.195-1.523.684-.309.375-.649.726-.973 1.09.383-1.547.644-2.962.144-4.504a5.3 5.3 0 0 1-.148-2.711c.45-2.278 1.52-4.329 2.11-6.645.16.238.273.418.39.594.547.824 1.078 1.664 1.652 2.476.348.496.649 1.004.676 1.614q.13 2.817.203 5.632c.012.477-.117.957-.152 1.438m9.086 11.309c-.504.785-1.762.64-2.453.21-.801-.503-1.098-1.449-1.262-2.332-.078-.421-.133-.851-.215-1.273-.144-.73-.195-1.473-.304-2.207-.098-.633-.2-1.27-.372-1.887a7 7 0 0 0-.285-.812 2.7 2.7 0 0 1-.574-.684 5.8 5.8 0 0 1-.633-1.457c-.125-.441-.125-.855-.062-1.312.11-.774.406-1.86 1.11-2.348.019-.2.16-.39.358-.441.653-.172 1.02.48 1.247 1.066.101.184.168.395.21.617.27.832.465 1.688.657 2.54.207.925.453 1.84.652 2.769.152.722.309 1.453.535 2.16.082.258.192.508.282.766q.015.034.03.07c.024.055.052.105.075.16.348.73.707 1.465.96 2.234.22.657.45 1.532.044 2.16m6.574-12.207a.5.5 0 0 1 .094-.2c0-.488.008-.98.008-1.468 0-.563-.04-1.125.03-1.684a5 5 0 0 1 .462-1.52c.222-.484.484-.964.828-1.375.266-.316.73-.12.855.207.172.454-.05.973-.12 1.426q-.002 0-.008.102c-.004.082-.012.16-.016.242q-.02.264-.031.527c-.008.309 0 .621-.02.93-.066 1.223-.422 2.496-1.238 3.438-.29.332-.89.085-.88-.344.005-.094.013-.188.036-.281m6.668 4.316c.031.055.125.086.2.11.574.167.796.632.523 1.183-.211.426-.446.844-.711 1.238-.102.145-.34.192-.485.317-.398.347-.78.714-1.187 1.09.484.449.7 1.16 1.516.996.027-.04.054-.102.101-.141.113-.086.293-.246.336-.219.129.086.273.246.277.383.032.789.016 1.574.028 2.363q0 .099-.012.18c.074.297.027.625-.047.95-.062.276-.293.39-.52.37a1.4 1.4 0 0 1-.488.188c-.453.09-.918.11-1.379.133-.468.027-.933.085-1.402.128-.988.094-1.98.149-2.973.106-1.918-.082-3.808-.535-5.73-.469-.484.016-.621-.527-.398-.828q.001-.072.015-.16c.106-.645.285-1.277.438-1.914.074-.305.14-.617.254-.91.054-.149.195-.274.32-.383.457-.41.922-.805 1.527-1.328-.125-.367-.277-.883-.484-1.38-.13-.312-.387-.577-.5-.894-.164-.465-.246-.96-.367-1.441-.149-.606.152-1.043.53-1.445.321-.344.653-.676.985-1.02-.222-.012-.449-.043-.672-.07-.5-.055-.808-.414-.918-.895a4 4 0 0 1-.086-.886c-.062-.165-.023-.399.024-.622.004-.07.012-.136.016-.207.039-.414-.004-.886.18-1.273.066-.316.226-.582.464-.813.2-.195.457-.398.734-.527.196-.16.383-.277.536-.312.765-.18.996.007 1.53.57.477.5.614 1.059.638 1.668.007.293-.141.598-.254.879-.121.3-.285.586-.418.879-.137.304-.242.625-.395.918-.246.48-.215.672.215 1.023.34.106.7.188 1 .106.004-.082.016-.16.04-.243a.94.94 0 0 1 .886-.656c.719 0 1.18.875.988 1.52q-.016.047-.031.09c.07.082.12.195.137.328.054.418-.172.879-.356 1.242a3 3 0 0 1-.113.183c.144.118.277.227.422.325.5.332.98.242 1.347-.258.192-.262.352-.547.54-.813a.52.52 0 0 1 .257-.191q.259-.071.524-.137c-.348-.355-.516-.957-.618-1.387-.25-1.035-.476-2.043-.253-3.109a.45.45 0 0 1 .21-.312.1.1 0 0 1 .016-.024.48.48 0 0 1 .219-.312c.363-.235.785-.215 1.2-.16.378.046.718.085 1.112.156.766.136 1.453.582 1.641 1.37a.7.7 0 0 1 .008.212c.207.715-.106 1.613-.555 2.14-.328.391-.785.664-1.152 1.024-.196.191-.414.406-.664.547.468.136.945.312 1.23.824Zm11.961-39.117c.254-.098.52-.153.777-.227.176.52.594.738 1.075.914.59.215 1.164.469 1.746.703-.047.114-.055.141-.059.137-.852-.121-1.71-.219-2.555-.383-.367-.074-.722-.254-1.058-.433-.14-.078-.266-.278-.293-.438-.012-.07.222-.219.367-.273m-3.867 34.57a1.1 1.1 0 0 1-.098.266c-.05.257-.14.375-.355.433-.371.325-.887.535-1.305.735-.316.152-.605.34-.91.511-.2.11-.422.23-.656.29-.305.331-.973.074-.868-.473 0-.008.004-.012.004-.016 0-.062.02-.129.047-.187.156-.746.121-1.575.692-2.157.515-.527 1.28-.511 1.984-.558l.11-.047c.34-.133.761-.277 1.1-.082.485.273.477.828.255 1.285m.015-2.93c-.113.27-.273.657-.53.817-.313.195-.692.004-.973-.164-.567-.344-.786-1.012-.633-1.64.11-.458.398-.813.793-1a.5.5 0 0 1 .086-.13c.207-.21.504-.183.722-.012.313.247.578.59.68.98.105.4.008.782-.145 1.15m1.622-20.156c.003.121-.016.25-.06.371-.202.551-.503 1.059-.788 1.57-.29.52-.578 1.04-.852 1.57-.226.434-.48.884-.64 1.349.004.101-.04.214-.094.34-.07.34-.063.69-.117 1.038.047.153.101.305.144.457 0 .008.004.012.004.016-.41.379-.75.75-1.152 1.04-.344.241-.754.39-1.14.566-.458.21-.927.355-1.45.277a4 4 0 0 0-.43-.043.8.8 0 0 1-.187.07.77.77 0 0 1-.785.082 3 3 0 0 1-.434-.238c-.5.031-1.05-.309-1.207-.77-.016-.046-.016-.109-.047-.132a2.1 2.1 0 0 1-.508-.586c-.101-.094-.199-.192-.297-.285q-.17-.134-.347-.262c-.727-.54-1.809-1.223-1.906-2.211a.7.7 0 0 1 .226-.563c.063-.277.219-.53.465-.652.062-.031.121-.07.18-.105.074-.09.164-.168.238-.262q.045-.066.098-.137.006-.011.02-.027l.222-.364c.176-.285.351-.574.558-.84.207-.265.461-.5.692-.745.5-.54.941-1.153 1.71-1.305.262-.055.52-.067.778-.067.035-.03.07-.054.106-.058l.156-.012c.648-.45 1.574-.437 2.328-.515.625-.063 1.234-.184 1.867-.208a4.75 4.75 0 0 1 1.95.325c.222.086.355.304.39.535a.6.6 0 0 1 .082.098c.023 0 .047.003.062.007.067.239.133.47.18.645a.1.1 0 0 1-.015.031m3.503-.164c-.902-.195-1.8-.61-2.597-1.062-.672-.383-1.352-.84-1.871-1.43-.278-.063-.551-.125-.82-.207a9 9 0 0 1-.782-.29c-.953-.241-1.898-.515-2.863-.71a4.5 4.5 0 0 0-.82-.106c-.07 0-.141.008-.215.008h-.07c-.051.008-.102.028-.15.043 0 .004-.054.028-.065.035-.422.266-.829.54-1.27.774-.453.238-.984.484-1.527.601a1.5 1.5 0 0 1-.36.114c-.636.093-1.285.164-1.851-.325-.602-.52-1.028-1.234-.946-1.918.043-.367.094-.855.38-1.234q.004-.019.015-.031c.223-.367.398-.778.7-1.09q.11-.118.241-.219a.68.68 0 0 1 .512-.441c.2-.098.438-.11.637-.2.133-.054.304-.007.457-.011a4 4 0 0 1 1.515.246c.293.09.579.2.856.316.371.16.73.34 1.098.516.316.148.707.328.984.418.836.266 1.629.613 2.441.945.344.14.649.254.993.356.046-.055.097-.11.144-.168q.084-.105.16-.211c.008-.008.008-.012.012-.02a1 1 0 0 0 .066-.101c.18-.29.34-.594.504-.895.395-.703.856-1.351 1.528-1.812.832-.575 1.87-.82 2.87-.754q.207.012.407.035c1.172-.148 2.367.016 3.46.59a6.25 6.25 0 0 1 2.18 1.945c.524.75.954 1.649.985 2.574.059 1.625-1.137 2.762-2.543 3.34-1.352.559-2.969.68-4.395.38m0 0"/></g><g clip-path="url(#c)"><path fill="#d5ba2b" d="M88.398 79.336c-.453.32-.918.379-1.28.402-1.075.063-2.153.137-3.227.207-.336.024-2.223-.539-2.575-.777-1.199-.824-1.687-2-1.773-3.402-.043-.672-.16-1.34-.215-2.016-.027-.375-.23-.45-.543-.414-.379.047-.23.316-.219.52.012.203.047.41.008.624-.535-.738-.11-1.652-.465-2.492l-1.828-.097c.055.296.098.527.137.754l-.129.035-.625-1.36c-.043.25-.074.407-.105.563-.637-.508-.73-.516-1.27-.09-.293.23-.371.719-.156 1.133.172.332.39.55.84.402.277-.094.597-.066.898-.094l-.367.559q.046.025.226.125c-.117.016-.203 0-.238.035-.105.113-.195.242-.293.363.121.036.254.114.364.09.171-.031.472-.164.464-.203-.066-.316.301-.723-.168-.96.204-.04.454-.173.602-.098.457.222.965.41 1.14.996.055.18.266.312.419.48-.114.754-.211 1.567-.352 2.367-.16.907-.77 1.282-1.652 1.024-.582-.172-1.07-.075-1.504.36-.176.179-.39.331-.614.46-.32.188-.636.16-.937-.086-.367-.3-.762-.406-1.258-.328-.207.031-.46-.238-.785-.422l.14.75c-.496-.129-.984-.258-1.347-.351.02-.372.09-.668.031-.938-.12-.562-.3-1.11-.488-1.656-.031-.102-.203-.156-.402-.297.035-.215.207-.59-.2-.852-.03-.02-.03-.125-.02-.183l.415-2.043c.238.312.48.601.691.91a.5.5 0 0 1 .09.363c-.078.418.07.692.465.832-.3.395-.273.672.144.938.239.156.532.226.797.336.047-.274.172-.563.13-.82-.177-1.044-.134-2.087-.118-3.137.008-.594.149-1.102.586-1.52l-.012.012c.875-.5 1.614.234 2.422.367q.02-.083.04-.172c-.141-.062-.286-.125-.528-.234.07-.254.144-.551.223-.844q.068.01.136.02c.09.242.168.492.282.722.058.125.164.239.27.328.48.414 1.085.598 1.647.856.676.316 1.708-.356 1.864-1.168.043-.235.062-.473.094-.715.644.438.824 1.188.421 1.77-.226.332.532.082.543-.055.075-.945.11-1.895.196-2.84.023-.273.125-.57.28-.79q.6-.843 1.298-1.612c.152-.164.43-.29.656-.301 1.734-.098 3.473-.156 5.211-.242.379-.02.676.066.95.351.429.45.878.887 1.35 1.293.34.297.419.656.43 1.07.028 1.06.13 2.122.098 3.18-.066 2.07.063 2.305-.07 4.192-.031.48-.07.879-.098 1.148.012.438-.035 1.18-.469 1.906-.12.207-.308.516-.668.766m-16.14-4.793c-.149.129-.41.266-.399.371.032.324.075.734.282.926.453.418.96-.203 1.476-.067.074.02.285-.214.328-.359.184-.656-.554-2.402-.492-2.562.07-.2.277-.403.25-.57a7 7 0 0 0-.402-1.313c-.133-.34-.555-.477-.871-.313-.621.324-1.285 1.528-.75 2.328.136-.082.539 1.004.578 1.559m-.61 1.594c-.253.367-.246.703-.062 1.027.059.106.223.219.332.211.098-.008.219-.16.266-.277.199-.489-.227-.66-.536-.961m2.95-.098c-.309.586-.246.77.265 1.031.075.04.2.067.246.032.059-.043.102-.196.067-.247-.164-.265-.36-.515-.578-.816m0 0"/></g><path fill="#d5ba2b" d="M45.297 24.988a.84.84 0 0 0 .52-.058c.144-.067.226-.153.34-.297.152-.192.773-.426.882-.387.016.008.133.055.145.055q.089.04.171.086.106.058.208.12c.011.013.132.098.128.09.223.192.383.434.633.606.344.238.781.29 1.156.09.317-.172.5-.523.57-.86.036-.156.052-.316.071-.476q-.001-.018.004-.035c.012-.05.02-.11.027-.16a9 9 0 0 1 .168-.758c.121-.242.254-.48.367-.723.075-.148.114-.328.223-.445.188-.2.387-.184.633-.012.39.274.602-.004.758-.34q.21-.473.351-.953c.02 0 .035.004.055.008a4.2 4.2 0 0 0-.137.98c-.008.387-.011.77-.05 1.153-.043.41-.098.808-.125 1.207-.04.133-.145.898-.137 1.105.008.133-.043.543-.063.618-.125.484-.12.968-.156 1.46 0 .02-.004.04-.004.055-.004.016-.004.028-.008.047.008.418.004.863-.02 1.324a18 18 0 0 1-.35 2.762c-.204.27-.516.582-.895.578-.094 0-.106-.02-.219-.039-.422-.062-.738.094-1.445.367a19 19 0 0 1-.793.293 5.37 5.37 0 0 1-3.008.344 41 41 0 0 1-.184-3.754c-.008-1.46.067-2.82.184-4.05M37.457 18.266c-.004-1.125.008-2.25.012-3.375 0-.254-.02-.528.156-.696-.379-.304-.758-.613-1.164-.906l-.11.082c-.464-.168-.632-.023-.953.399a.9.9 0 0 0-.191.394c.05.195.113.39.18.578.011.035.027.067.039.098a2 2 0 0 1 .054.148c.125.328.254.66.352 1 .125.438.184.88.36 1.305q.058.136.117.266c.027.02.062.113.05.101l.02.05c.101.216.207.43.305.645.07.055.136.11.207.165l-.024.296q.111.317.196.641a4.2 4.2 0 0 1 .738 1.355q.03-.003.054-.007a8 8 0 0 1-.398-2.54m0 0"/><path fill="#d5ba2b" d="M45.203 5.348a33 33 0 0 1-.035-5.309 8.4 8.4 0 0 0-1.75.266c-.29.066-.566.18-.852.27-.207.062-.418.109-.62.183-.395.144-.817.246-1.173.465-.574.347-1.082.808-1.66 1.156-.265.164-.386.351-.25.566.29.453-.09.575-.32.743-.219.156-.488.242-.711.347.082.254.137.43.188.59-.204.059-.426.059-.528.164a2.5 2.5 0 0 0-.433.707c-.118.281-.164.59-.258.883-.051.152-.125.305-.215.437-.059.086-.207.122-.242.207-.2.497-.387.993-.27 1.551.04.2.047.434-.011.621-.176.555-.102 1.063.21 1.582-.136.024-.023.809-.039 1.215-.109.012-.199.012-.28 0 .003.055 0 .106-.005.164 0 .016-.004.031-.004.047q.013.01.02.02c.183.347.347.703.52 1.054a.1.1 0 0 0-.024.016c.406.289.785.598 1.164.902l.023-.023a.5.5 0 0 1 .172-.094c.305-.098.664.223.79.64.019.075.05.15.078.223.003.012.027.016.085.051.278-.426-.117-1.082.586-1.383.047.239.09.465.16.801q.178.058.711.238c-.082-.382-.132-.625-.16-.757.157-.203.258-.395.414-.516.125-.102.32-.18.477-.164.766.059 2.129.176 2.55.242.473.074 1.157.11 2.032-.09.027-.14.07-.375.11-.664.34-2.48-.16-3.726-.45-7.351M52.95 17.977c-.044-1.125-.102-2.25-.15-3.372-.01-.253 0-.527-.183-.69.367-.317.735-.642 1.125-.946l.117.07c.453-.184.625-.047.965.363a.86.86 0 0 1 .207.387q-.066.3-.156.586l-.035.098q-.024.069-.043.136c0 .004-.004.008-.004.012-.113.336-.23.672-.313 1.016-.105.445-.148.886-.308 1.32q-.047.135-.106.27c-.027.02-.054.113-.043.101-.007.02-.015.043-.02.05q-.141.328-.276.661l-.2.168q.016.145.032.297-.099.322-.168.648c-.196.266-.364.551-.5.864a3.5 3.5 0 0 0-.184.523c-.02-.004-.035-.008-.055-.008.243-.828.328-1.68.297-2.554m0 0"/><path fill="#d5ba2b" d="M44.953 5.43A133.796 133.796 0 0 1 45.04.008c.184.047.469.113.824.183.219.043.246.047.403.079.293.058.574.16.863.234.21.059.426.098.629.16.402.129.828.215 1.187.418.59.328 1.117.766 1.707 1.09.274.148 1.121 1.504 1.348 1.601-.07.258.262.637.367.743.196.191.352.437.465.687.129.274.188.582.293.871.059.153.137.301.234.43.059.082.211.11.25.195.22.489.301 1.973.368 2.16.199.547.144 1.059-.145 1.586.133.02.05.809.086 1.215.11.008.2.004.281-.012q.001.083.008.165a.2.2 0 0 1 .008.046q-.013.01-.02.02c-.168.355-.32.715-.476 1.074a.1.1 0 0 1 .023.016c-.39.304-.758.629-1.125.945q-.012-.013-.023-.02c-.047-.035-3.196-.847-3.352-.828-.754.094-1.855.243-2.539.348-.332.05-.844.102-1.5.043l-.039-.629c-.09-1.652-.203-4.242-.21-7.398M45.383 24.98a.93.93 0 0 1-.52-.054.9.9 0 0 1-.351-.285c-.157-.184-.79-.395-.895-.352l-.14.063a2 2 0 0 0-.172.093c-.067.04-.137.082-.2.13-.015.01-.128.1-.125.093-.214.203-.367.45-.609.629-.336.25-.77.324-1.152.137-.32-.157-.52-.5-.606-.836a5 5 0 0 1-.086-.473q-.005-.016-.004-.031c-.02-.055-.027-.11-.039-.164-.058-.25-.117-.504-.199-.75-.129-.235-.27-.465-.394-.703-.078-.149-.125-.325-.239-.438-.195-.195-.394-.168-.632.012-.383.293-.606.023-.77-.309a7.5 7.5 0 0 1-.395-.937.2.2 0 0 1-.054.008c.097.312.152.632.176.976.023.387.046.77.101 1.152.059.407.125.801.172 1.196q.065.204.105.41l.09-.035q-.036.053-.074.105c.04.203.059.414.059.621 0 .133-.004.266-.004.399.039.07.07.14.094.218.144.477.156.961.214 1.45 0 .02.004.039.004.058l.012.043a8.677 8.677 0 0 0 .938 4.117c.265.125.582.274.94.438.661.3.802.355 1.005.414.242.07.52.098 1.058.152.657.067.868.063 1.399.114.281.027.7.07 1.207.152a34 34 0 0 0 .086-7.813M42.203 34.605v-.003l-.004-.004a.3.3 0 0 0-.039-.063.8.8 0 0 1-.273-.07c-.86-.39-1.453-1.121-2.157-1.715a5 5 0 0 0-.613-.437c-.14.093-.332.128-.55.097a7 7 0 0 1-1.028-.25c-.484-.144-.95-.39-1.445-.465-.922-.14-1.856-.18-2.785-.273-.907-.09-1.809-.211-2.715-.274-.375-.023-.508-.285-.41-.492.16-.332.41-.699.722-.87.63-.34 1.313-.579 1.957-.891a.56.56 0 0 1 .25-.262q.151-.078.29-.16l.077-.137q.094-.165.204-.313c.007-.035.02-.07.03-.105q.077-.235.165-.465c-.879.297-1.668.524-2.402.863-.954.438-1.86.977-2.766 1.504-.324.188-.59.473-.883.72-.262.218-.187.46.047.593.523.297 1.059.61 1.629.785.637.203 2.453.508 2.683.621.188-.098.41-.156.606-.18.89-.093 1.777-.168 2.645.274.238.12.496.441.988.277.336-.113.87.352 1.136.832-1.304.29-2.226 1.172-3.214 1.926-.551.422-1.047.937-1.5 1.465-.38.441-.739.933-.953 1.465-.086.21-.051.472 0 .734a4.846 4.846 0 0 0 .418.063c.015 0 .066 0 .09.003.058 0 .117.004.175.004q.381.006.762-.047l.172-.023c.011-.004.015-.004.02-.004a7903.521 7903.521 0 0 0 .195-.043 7 7 0 0 0 .257-.105c-.004 0 .094-.051.106-.055l.172-.09q.135-.076.27-.16c.84-.516 1.386-1.04 2.077-1.727 1.36-1.343 3.13-1.957 5-2.023.106-.098.215-.184.336-.262q.124-.082.242-.164c0-.011.004-.023.016-.027 0-.008-.004-.012-.004-.02-.004-.02-.008-.035 0 0 0 .008.004.016.004.02h.004c-.004 0-.004.004-.004.004v.004c.004-.004.008-.004.008-.008v-.043c0-.008-.004-.012-.008-.024m0 0"/><g clip-path="url(#d)"><path fill="#d5ba2b" d="M11.223 71.195c.109-.355.293-.664.277-.957-.043-.687-1.453-4.25-1.871-4.668a1.45 1.45 0 0 0-.813-.402c-1.246-.133-2.5-.219-3.754-.309a15 15 0 0 0-1.59-.043c-.163.008-.41.153-.464.297-.2.52-2.746 4.075-2.766 4.817-.035 1.297-.12 6-.043 6.586.074.527 1.965 3.226 2.442 3.261 1.718.125 3.433.27 5.148.391.133.012.344-.031.582-.14.621-.282.848-.887 1.227-1.614.238-.453.597-1.066 1.129-1.773.18-1.75.496-5.446.496-5.446m0 0"/></g><g clip-path="url(#e)"><path fill="#d5ba2b" d="M80.105 59.34c-.16-.57-.613-.676-.632-1.59-.012-.566.007-1.125-.184-1.648-.309-.848-.7-1.668-1.043-2.504-.203-.504-.074-.7.465-.797.133-.024.25-.11.453-.2-.355-.956-.656-1.933-1.082-2.851-.512-1.098-1.004-2.223-1.871-3.11-.117-.12-.473-.199-.563-.12-.488.437-1.043.855-1.09 1.593-.042.707-.07 1.418-.105 2.16q-.018.005-.031.004c.086.41.016.82-.168 1.2-.067.226-.16.445-.293.632a.5.5 0 0 1-.086.114q-.052.065-.105.117a4.6 4.6 0 0 1-1.438.945c-.602.246-1.078 0-1.637-.23a.4.4 0 0 1-.195-.2c-.504-.234-.922-.652-1.215-1.125-.617-.578-1.828-2.062-1.836-2.507-.004-.285.668-2.164 1.098-2.368.762-.359 1.55-.375 2.34-.46.195-.024.402.035.601.058.766.082 2.157.32 2.371.035.192-.254.153-.683.227-1.031.121-.559.254-1.113.383-1.672.09-.402.113-.836.277-1.207.527-1.2.457-2.445.328-3.683-.082-.774-.347-1.524-.48-2.293-.145-.848-.817-1.313-1.32-1.895-.356-.406-.817-.715-1.2-1.098-.828-.828-1.605-1.734-2.761-2.113-.72-.238-1.461-.5-2.204-.547-.89-.058-1.796.09-2.695.153.023-.09.027-.192.074-.266.313-.488.157-.813-.3-1.117-.543-.364-1.04-.801-1.575-1.184-.59-.418-1.152-.914-1.804-1.195-.989-.422-2.047-.688-3.075-1.027a47 47 0 0 1-1.574-.551c-.277-.106-.543-.246-.847-.387-.004.016-.012.031-.016.047 0 .254.047.469.133.637.172.097.328.234.441.386a1 1 0 0 0 .102.028c.539.105 1.082.132 1.586.402.66.352 1.347.645 2.023.969.215.105.418.23.625.343.879.485 1.809.899 2.137 1.989.125.414.066.597-.375.648-.32.04-.645.016-.965.04-.848.054-1.664.218-2.305.835-.097.094-.172.39-.105.465.574.688-.004 1.262-.067 1.816-.73-.105-1.398-.167-2.047-.308-.425-.094-.835-.277-1.226-.477-.274-.14-.309-.336.031-.52.336-.179.64-.417.961-.632q-.024-.093-.055-.191c-.46.05-.945.023-1.379.16-1.218.386-2.414.863-3.632 1.254-.621.199-1.235.355-1.653.91-.082.11-.238.16-.347.254-.285.254-.672.379-.817.82a.83.83 0 0 1-.484.527c-.215.137-.516.164-.79.13-.14-.02-.276-.052-.413-.079-.149-.027-.301-.039-.453-.047-.004 0-.008.004-.016.004-.582.348-1.215.485-1.875.211-.305-.129-.598-.289-.906-.418a.2.2 0 0 0-.055-.02 2 2 0 0 1-.348.352q.018.21.094.387a7 7 0 0 1 1.07.25c0 .004.004.004.004.004.832-.035 1.668.07 2.383.46a.756.756 0 0 1 .38.864c.089.195.155.406.183.625.101.73-.16 1.426-.473 2.094-.012.304-.008.61.02.914.03.351-.188.719-.2 1.082-.02.664.055 1.336.04 2-.02.797-.04 1.597-.153 2.383-.156 1.097-.02 2.105.805 2.886.668.633.66 1.403.636 2.203q-.003.062-.007.122c.53-.098 1.062-.149 1.601-.086.563.07 1.055.277 1.567.504.21.093.43.175.656.23.187.04.379.05.562.102.47.129.524.492.625.898.086.34.211.648.41.938.223.32.52.546.805.804.328.297.574.656.543 1.114-.035.484-.281.93-.66 1.226-.363.293-.773.348-1.195.5-.262.094-.461.281-.7.418q.04.048.075.09l.078.055c.11.082.238.191.277.312q.031.094.055.188c.168.246.332.492.512.73.336.457.785.867.949 1.43.258.886-.512 1.695-1.262 2.035-.898.414-1.93-.031-2.68-.574-.406-.293-.699-.649-.867-1.125-.16-.457-.176-.95-.133-1.426.043-.434.043-.89.301-1.262.121-.176.278-.293.45-.39.136-.157.304-.282.484-.329a2 2 0 0 1 .336-.058l.043-.024a.6.6 0 0 1 .16-.062c.027-.18.008-.465-.035-.672-.426-.418-.907-.613-1.532-.402-.394.129-.914-.102-.992-.368-.101-.347.223-1 .57-1.167.536-.258 1.06-.528 1.301-1.13.196-.484-.183-.949-.699-.94a2.8 2.8 0 0 1-.562-.06q-.16.06-.301.126c-.125.058-.211.101-.266.168q.119.13.23.253c-.449.426-.804.739-1.12 1.083-.118.128-.176.332-.211.511-.102.54-.176 1.086-.27 1.625-.015.188-.07.367-.172.528-.16.242-.402.382-.672.441a4 4 0 0 1-.363.312q-.374.3-.777.547c-.39.485-.778.973-1.203 1.422-.664.711-1.68 1.485-2.72 1.168-.976-.3-1.25-1.43-.862-2.289.695-1.547 2.687-1.867 3.46-3.281-.464-.152-.933-.3-1.3-.594-.254-.121-.43-.293-.469-.586-.152-.355-.117-.762.188-1.043.324-.297.843-.402 1.265-.281.707.207 1.266.793 1.813 1.258l.187.133a.5.5 0 0 1 .106.105q.06.046.101.074c.063.043.125.086.192.121.011.008.05.028.082.043q.005-.004.004-.007.001-.018.003-.024-.001-.01.004-.031.005-.084.004-.16.005-.14-.008-.285a4 4 0 0 0-.03-.372c-.036-.039-.071-.074-.106-.113-.301-.308-.864-.363-1.309-.527-.426-.156-.312-.426-.137-.688.11-.156.266-.28.391-.43.262-.312.36-.667.445-1.078.133-.648.422-1.269.711-1.87.176-.364.297-.665.051-1.036-.14-.218-.266-.449-.398-.691a6 6 0 0 1-.739 1.055c-.476.562-1.062 1.015-1.55 1.566-.215.242-.399.516-.598.77-.047.222-.211.343-.39.433q-.46.434-1.048.68c-.437.183-.941.226-1.41.246-.472.023-.937.031-1.41-.035-.953-.13-1.82-.61-2.543-1.227-.004-.004-.008-.004-.008-.008a6 6 0 0 1-.48-.425 1.7 1.7 0 0 1-.274-.286 5.4 5.4 0 0 1-1.136-2.035 1 1 0 0 1-.04-.183c-.226-.512-.41-1.051-.48-1.61a3.3 3.3 0 0 1-.078-.676 3.6 3.6 0 0 1-.16-.562 4.9 4.9 0 0 1 .27-2.836c.101-.258.238-.48.398-.684.172-.425.41-.8.77-1.12.042-.04.09-.075.132-.114.07-.117.14-.234.223-.344-.418-.027-.86.075-1.309.196-.601.16-1.199.328-1.8.492q-.023.059-.051.117l-.035-.094q-.767.217-1.54.422c-1.882.496-4.128 1-5.808-.297-.66-.511-1.149-1.273-1.39-2.066-.247-.793-.231-1.613-.055-2.418l.003-.024q-.018-.069-.03-.132c.03-.047.066-.09.097-.137.187-.703.508-1.36 1.121-1.79.707-.491 1.64-.62 2.473-.741.922-.137 1.87-.203 2.765-.414.336-.079.547-.149.778-.286.168-.18.394-.316.625-.449.097-.078-.551-.195-.633-.547-.356-.023-.696-.117-.992-.05-.407.093-.774.347-1.176.464-.344.102-.719.106-1.078.153l-.024-.164c.07-.032.172-.043.203-.094.153-.266.297-.54.414-.824.004-.016-.27-.2-.421-.215-.899-.11-1.801-.18-2.7-.281-1-.11-1.87.343-2.558.906-.785.64-1.395 1.523-1.985 2.367-.84 1.195-1.437 2.527-1.875 3.926a8.2 8.2 0 0 0-.265 3.672c.054.383.117.77.242 1.129.273.785.648 1.52 1.434 2.086-.079-.598-.008-1.555.066-1.512.039-.14.219.84.336 1.234.11.36.172.739.242 1.11.008.043-.57.949-.379 1.304.527.973.13 1.871-.11 2.79-.007.023-.077.027-.148.046-.047-.394-.07-.777-.132-1.148-.06-.34-.075-.739-.266-.992-.328-.43-.758-.793-1.188-1.13-.386-.304-.628-.234-.84.2-.175.36-.265.758-.43 1.125-.788 1.793-1.015 3.672-.901 5.605.007.106.035.246.109.305.324.258.27.594.21.922a78 78 0 0 1-.421 2.152c-.023.106-.105.196-.168.29-.2.292-.457.57-.66.863a6 6 0 0 0-.102 1.261c.02.985.067 1.989.184 2.965.121.977.476 1.895.644 2.86.028.16.047.335.075.515q.066.165.136.328c.23.551.496 1.114.614 1.703.105.547.101 1.114.265 1.653l.012.043c1 .465 1.992.93 2.898 1.351-.296.055-.699.07-1.058.207-.278.106-.465.102-.7-.062-.808-.559-1.519-.528-2.28.078-.071.055-.192.133-.247.11-.469-.216-.754.077-1.086.327-.222.168-.508.278-.785.352-.617.16-2.402-.578-2.324-.254.043.172-.035.379-.063.567-.039-.008-.074-.02-.113-.028-.047-.183-.09-.37-.137-.555l-.18.012-.245 1.617q.004.07.007.145 0 .069.024.137l1.816.445c-.066.137-.136.352-.265.594-.223.425-.586.797-.434 1.36.168.616.266 1.253.457 1.862.215.684 1.02 1.121 1.703.887.672-.226 1.133-.043 1.574.457.493.563.88.61 1.54.293.5-.242.988-.492 1.55-.062.16.117.485.027.73.015.575-.023 1.15-.047 1.72-.101.285-.032.628-.055.835-.22.301-.241.508-.597.743-.917.265-.363.515-.742.77-1.117.066.02.132.035.198.054-.062.297-.16.997.176 1.73.34.74.926 1.099 1.43 1.403.394.242 1.062.649 1.941.649.95 0 1.34-.477 1.555-.282.348.313-.652 1.543-1.32 3.84-.168.578-.293 1.117-.47 2.211-.218 1.39-.425 2.785-.722 4.16q-.111.528-.246 1.043a774 774 0 0 0 18.805.262q9.451.023 18.91-.184c-.086-1.175-.09-2.355-.09-3.53 0-.325-.187-4.833-.433-6.763-.051-.406.578-1.542.636-1.613q.049-.052.102-.105c.062-.117 1.047-.942 1.32-1.035q.205-.07.434-.086c.277-.344.566-.688.62-1.063.15-1.004.044-2.047.044-3.02.324-.128.699-.238.82-.093.047.058.035.129.035.254 0 0 .004.304.145.719.144.418.387.34.691.87q.165.277.281.594c.145.395.438.7.961.672-.148-.785-.265-1.527-.433-2.265a16 16 0 0 0-.457-1.59c-.239-.7-.375-1.43-.106-2.106.157-.394.606-.675.95-1.035-.079-.02-.215-.027-.325-.086-.058-.031-.074-.144-.11-.222-.46.324-1.472 1.41-1.315 1.425l.035.094-.035-.094c-.356.035-.711.075-1.067.11a.68.68 0 0 1-.375-.274c-.215-.34.203-.71.184-1.27-.032-.816-.149-1.605-.657-2.273a9 9 0 0 0-.851-.968c-.363-.364-.715-.782-1.156-1.016-.426-.227-.961-.254-1.47-.371-.316-1.418-.077-2.828.368-4.23.508-1.59.84-3.22 1.09-4.864.027-.32.07-.637.137-.953q.044-.334.086-.668a.8.8 0 0 1 .097-.258q.029-.091.074-.18c.125-.242.313-.437.504-.628a5 5 0 0 1 1.641-1.442c.207-.117.434-.156.645-.125l.097.012c1.18.191 2.098 1.238 2.778 2.14a10.5 10.5 0 0 1 1.445 2.614c.433 1.148.52 2.465.445 3.676a13.6 13.6 0 0 1-.379 2.504c-.004.074-.015.238-.011.078-.004.312-.024.629-.051.937-.067.692-.297 1.305-.5 1.961-.082.254-.114.52-.207.77.074.632-.102 1.257-.344 1.898-.215.566-.543.996-1.055 1.305.434-.172.871-.348 1.352-.543-.227.515-.41.922-.645 1.445l1.758-1.352-.086-.156h-.66c.395-.297.793-.426 1.242-.187.149.078.332.078.5.11.04-.138.043-.329.133-.388a37 37 0 0 1 1.844-1.109c.437-.242.691-1.25.449-1.555.059-.21.152-.367.14-.515-.062-.809.169-1.383.965-1.782.618-.308.52-1.062-.093-1.386-.086-.047-.168-.098-.254-.14-.524-.263-.637-.696-.324-1.184a.9.9 0 0 0 .144-.375c.055-.594-.004-1.2.328-1.758.254-.422.399-.907.633-1.344q.41-.781.898-1.516c.055-.082.356-.125.418-.062.567.555.665 1.273.438 1.969a5 5 0 0 0-.047 3.007c.203.711.414 1.356-.34 1.871-.058.04-.05.247-.004.344.227.465.473.922.692 1.336-.035.156-.078.317-.102.48a2.4 2.4 0 0 0-.035.473q.04.494.086.989.084-.135.16-.27l-.035-.172q.06.02.113.031.294-.532.535-1.09.053-.245.098-.492c.02-.113.309-1.543.598-2.707.675-2.742 1.07-2.847.843-3.644m-66.28 16.476c-.259-.125-.481-.32-.72-.484.282-.2.567-.398.915-.644.14.203.242.289.253.382.04.258-.308.813-.449.746m1.034-2.601c-.03.418-.12.824-.18 1.238-.034.258-.16.383-.425.3-.29-.089-.606-.144-.86-.296-.152-.094-.21-.348-.28-.473.081-.668.35-1.148.792-1.453.168-.113.574.035.824.156.106.055.145.352.133.528Zm2.688-.508c-.027.465-.129.93-.211 1.5-.293-.207-.461-.348-.652-.45-.07-.038-.196.024-.293.044.027.094.039.261.086.27.703.152.543.788.617 1.214.097.559 0 1.149-.008 1.727 0 .11.016.218.039.324.137.602.074 1.156-.39 1.602-.364.347-.739.68-1.106 1.015q-.088-.024-.176-.055c0-.37-.043-.75.016-1.113.027-.16.312-.258.394-.426.293-.605.66-1.164.067-1.882-.29-.348-.254-.977-.332-1.485-.082-.555.07-1.113-.141-1.683-.262-.704.488-1.586 1.23-1.54.305.02.88.594.86.934Zm.598-7.734c-.11 0-.223-.016-.223-.016-1.027-.016-1.09-.062-1.106-.98-.02-1.16-.043-2.325-.003-3.48.007-.372.136-.782.343-1.083.11-.164.5-.187.758-.176.14.008.34.196.395.344.148.418.214.863.347 1.29.098.312.246.608.371.91.024.058.075.113.078.175.063.652.137 1.305.168 1.961.036.664-.398 1.05-1.128 1.055m4.773 9.07c-.156.055-.223.367-.352.602v-.942a2 2 0 0 0-.152-.031c-.05.187-.14.379-.144.57-.012.684-.067.738-.782.535.043.196.082.352.114.512.074.387-.051.613-.473.664-.399.047-.465-.156-.531-.496-.196-.988-.442-1.965-.672-2.969-.051 1.067-.11 2.09-.145 3.117-.023.551-.136 1.133.371 1.579.176-.235.028-.801.535-.778.336.02.665.2 1.043.434-.332.125-.66.246-1.011.375.02.39.054.832.058 1.273.004.57-.183.719-.754.77-.347.035-.687.164-1.035.238-.152.031-.328.067-.468.02-.184-.059-.489-.204-.485-.301.012-.266.082-.61.262-.774.48-.433.605-.777.344-1.379-.04-.085-.07-.183-.133-.253-.348-.41-.434-.856-.242-1.364.03-.082-.04-.218-.094-.312-.18-.309-.16-.574.14-.793-.445-.457-.66-1.426-.335-1.965.109-.184.527-.273.785-.242.433.05.793.183 1.035-.371.055-.125.582-.164.816-.067.285.118.492.426.785.7-.199.09-.308.136-.41.183.008.598.239 1.027.801 1.152.285-.187.559-.363.86-.558.152.043.347.101.55.16.078.305.156.566-.281.715Zm.715-19.633c-.07.063-.172.153-.242.14-.489-.09-1.059-.081-1.434-.347-.309-.215-.484-.746-.547-1.164-.12-.797.3-1.512.531-2.25.196-.64.243-1.25-.039-1.871-.152-.34.125-1.215.47-1.332.222-.074.491-.027.737.004.758.097 1.516.222 2.274.316.43.051.61.34.695.696.082.34.11.695.152.968-.09 1.559-.5 2.907-1.64 3.946-.324.293-.637.597-.957.894m5.703 12.633c-.023.336-.18.437-.5.422-.625-.04-1.258 0-1.879-.09-.68-.094-1.125.195-1.523.684-.309.375-.649.726-.973 1.09.383-1.547.644-2.962.144-4.504a5.3 5.3 0 0 1-.148-2.711c.45-2.278 1.52-4.329 2.11-6.645.16.238.273.418.39.594.547.824 1.078 1.664 1.652 2.476.348.496.649 1.004.676 1.614q.13 2.817.203 5.632c.012.477-.117.957-.152 1.438m9.086 11.309c-.504.785-1.762.64-2.453.21-.801-.503-1.098-1.449-1.262-2.332-.078-.421-.133-.851-.215-1.273-.144-.73-.195-1.473-.304-2.207-.098-.633-.2-1.27-.372-1.887a7 7 0 0 0-.285-.812 2.7 2.7 0 0 1-.574-.684 5.8 5.8 0 0 1-.633-1.457c-.125-.441-.125-.855-.062-1.312.11-.774.406-1.86 1.11-2.348.019-.2.16-.39.358-.441.653-.172 1.02.48 1.247 1.066.101.184.168.395.21.617.27.832.465 1.688.657 2.54.207.925.453 1.84.652 2.769.152.722.309 1.453.535 2.16.082.258.192.508.282.766q.015.034.03.07c.024.055.052.105.075.16.348.73.707 1.465.96 2.234.22.657.45 1.532.044 2.16m6.574-12.207a.5.5 0 0 1 .094-.2c0-.488.008-.98.008-1.468 0-.563-.04-1.125.03-1.684a5 5 0 0 1 .462-1.52c.222-.484.484-.964.828-1.375.266-.316.73-.12.855.207.172.454-.05.973-.12 1.426q-.002 0-.008.102c-.004.082-.012.16-.016.242q-.02.264-.031.527c-.008.309 0 .621-.02.93-.066 1.223-.422 2.496-1.238 3.438-.29.332-.89.085-.88-.344.005-.094.013-.188.036-.281m6.668 4.316c.031.055.125.086.2.11.574.167.796.632.523 1.183-.211.426-.446.844-.711 1.238-.102.145-.34.192-.485.317-.398.347-.78.714-1.187 1.09.484.449.7 1.16 1.516.996.027-.04.054-.102.101-.141.113-.086.293-.246.336-.219.129.086.273.246.277.383.032.789.016 1.574.028 2.363q0 .099-.012.18c.074.297.027.625-.047.95-.062.276-.293.39-.52.37a1.4 1.4 0 0 1-.488.188c-.453.09-.918.11-1.379.133-.468.027-.933.085-1.402.128-.988.094-1.98.149-2.973.106-1.918-.082-3.808-.535-5.73-.469-.484.016-.621-.527-.398-.828q.001-.072.015-.16c.106-.645.285-1.277.438-1.914.074-.305.14-.617.254-.91.054-.149.195-.274.32-.383.457-.41.922-.805 1.527-1.328-.125-.367-.277-.883-.484-1.38-.13-.312-.387-.577-.5-.894-.164-.465-.246-.96-.367-1.441-.149-.606.152-1.043.53-1.445.321-.344.653-.676.985-1.02-.222-.012-.449-.043-.672-.07-.5-.055-.808-.414-.918-.895a4 4 0 0 1-.086-.886c-.062-.165-.023-.399.024-.622.004-.07.012-.136.016-.207.039-.414-.004-.886.18-1.273.066-.316.226-.582.464-.813.2-.195.457-.398.734-.527.196-.16.383-.277.536-.312.765-.18.996.007 1.53.57.477.5.614 1.059.638 1.668.007.293-.141.598-.254.879-.121.3-.285.586-.418.879-.137.304-.242.625-.395.918-.246.48-.215.672.215 1.023.34.106.7.188 1 .106.004-.082.016-.16.04-.243a.94.94 0 0 1 .886-.656c.719 0 1.18.875.988 1.52q-.016.047-.031.09c.07.082.12.195.137.328.054.418-.172.879-.356 1.242a3 3 0 0 1-.113.183c.144.118.277.227.422.325.5.332.98.242 1.347-.258.192-.262.352-.547.54-.813a.52.52 0 0 1 .257-.191q.259-.071.524-.137c-.348-.355-.516-.957-.618-1.387-.25-1.035-.476-2.043-.253-3.109a.45.45 0 0 1 .21-.312.1.1 0 0 1 .016-.024.48.48 0 0 1 .219-.312c.363-.235.785-.215 1.2-.16.378.046.718.085 1.112.156.766.136 1.453.582 1.641 1.37a.7.7 0 0 1 .008.212c.207.715-.106 1.613-.555 2.14-.328.391-.785.664-1.152 1.024-.196.191-.414.406-.664.547.468.136.945.312 1.23.824Zm11.961-39.117c.254-.098.52-.153.777-.227.176.52.594.738 1.075.914.59.215 1.164.469 1.746.703-.047.114-.055.141-.059.137-.852-.121-1.71-.219-2.555-.383-.367-.074-.722-.254-1.058-.433-.14-.078-.266-.278-.293-.438-.012-.07.222-.219.367-.273m-3.867 34.57a1.1 1.1 0 0 1-.098.266c-.05.257-.14.375-.355.433-.371.325-.887.535-1.305.735-.316.152-.605.34-.91.511-.2.11-.422.23-.656.29-.305.331-.973.074-.868-.473 0-.008.004-.012.004-.016 0-.062.02-.129.047-.187.156-.746.121-1.575.692-2.157.515-.527 1.28-.511 1.984-.558l.11-.047c.34-.133.761-.277 1.1-.082.485.273.477.828.255 1.285m.015-2.93c-.113.27-.273.657-.53.817-.313.195-.692.004-.973-.164-.567-.344-.786-1.012-.633-1.64.11-.458.398-.813.793-1a.5.5 0 0 1 .086-.13c.207-.21.504-.183.722-.012.313.247.578.59.68.98.105.4.008.782-.145 1.15m1.622-20.156c.003.121-.016.25-.06.371-.202.551-.503 1.059-.788 1.57-.29.52-.578 1.04-.852 1.57-.226.434-.48.884-.64 1.349.004.101-.04.214-.094.34-.07.34-.063.69-.117 1.038.047.153.101.305.144.457 0 .008.004.012.004.016-.41.379-.75.75-1.152 1.04-.344.241-.754.39-1.14.566-.458.21-.927.355-1.45.277a4 4 0 0 0-.43-.043.8.8 0 0 1-.187.07.77.77 0 0 1-.785.082 3 3 0 0 1-.434-.238c-.5.031-1.05-.309-1.207-.77-.016-.046-.016-.109-.047-.132a2.1 2.1 0 0 1-.508-.586c-.101-.094-.199-.192-.297-.285q-.17-.134-.347-.262c-.727-.54-1.809-1.223-1.906-2.211a.7.7 0 0 1 .226-.563c.063-.277.219-.53.465-.652.062-.031.121-.07.18-.105.074-.09.164-.168.238-.262q.045-.066.098-.137.006-.011.02-.027l.222-.364c.176-.285.351-.574.558-.84.207-.265.461-.5.692-.745.5-.54.941-1.153 1.71-1.305.262-.055.52-.067.778-.067.035-.03.07-.054.106-.058l.156-.012c.648-.45 1.574-.437 2.328-.515.625-.063 1.234-.184 1.867-.208a4.75 4.75 0 0 1 1.95.325c.222.086.355.304.39.535a.6.6 0 0 1 .082.098c.023 0 .047.003.062.007.067.239.133.47.18.645a.1.1 0 0 1-.015.031m3.503-.164c-.902-.195-1.8-.61-2.597-1.062-.672-.383-1.352-.84-1.871-1.43-.278-.063-.551-.125-.82-.207a9 9 0 0 1-.782-.29c-.953-.241-1.898-.515-2.863-.71a4.5 4.5 0 0 0-.82-.106c-.07 0-.141.008-.215.008h-.07c-.051.008-.102.028-.15.043 0 .004-.054.028-.065.035-.422.266-.829.54-1.27.774-.453.238-.984.484-1.527.601a1.5 1.5 0 0 1-.36.114c-.636.093-1.285.164-1.851-.325-.602-.52-1.028-1.234-.946-1.918.043-.367.094-.855.38-1.234q.004-.019.015-.031c.223-.367.398-.778.7-1.09q.11-.118.241-.219a.68.68 0 0 1 .512-.441c.2-.098.438-.11.637-.2.133-.054.304-.007.457-.011a4 4 0 0 1 1.515.246c.293.09.579.2.856.316.371.16.73.34 1.098.516.316.148.707.328.984.418.836.266 1.629.613 2.441.945.344.14.649.254.993.356.046-.055.097-.11.144-.168q.084-.105.16-.211c.008-.008.008-.012.012-.02a1 1 0 0 0 .066-.101c.18-.29.34-.594.504-.895.395-.703.856-1.351 1.528-1.812.832-.575 1.87-.82 2.87-.754q.207.012.407.035c1.172-.148 2.367.016 3.46.59a6.25 6.25 0 0 1 2.18 1.945c.524.75.954 1.649.985 2.574.059 1.625-1.137 2.762-2.543 3.34-1.352.559-2.969.68-4.395.38m0 0"/></g><g clip-path="url(#f)"><path fill="#d5ba2b" d="M88.398 79.336c-.453.32-.918.379-1.28.402-1.075.063-2.153.137-3.227.207-.336.024-2.223-.539-2.575-.777-1.199-.824-1.687-2-1.773-3.402-.043-.672-.16-1.34-.215-2.016-.027-.375-.23-.45-.543-.414-.379.047-.23.316-.219.52.012.203.047.41.008.624-.535-.738-.11-1.652-.465-2.492l-1.828-.097c.055.296.098.527.137.754l-.129.035-.625-1.36c-.043.25-.074.407-.105.563-.637-.508-.73-.516-1.27-.09-.293.23-.371.719-.156 1.133.172.332.39.55.84.402.277-.094.597-.066.898-.094l-.367.559q.046.025.226.125c-.117.016-.203 0-.238.035-.105.113-.195.242-.293.363.121.036.254.114.364.09.171-.031.472-.164.464-.203-.066-.316.301-.723-.168-.96.204-.04.454-.173.602-.098.457.222.965.41 1.14.996.055.18.266.312.419.48-.114.754-.211 1.567-.352 2.367-.16.907-.77 1.282-1.652 1.024-.582-.172-1.07-.075-1.504.36-.176.179-.39.331-.614.46-.32.188-.636.16-.937-.086-.367-.3-.762-.406-1.258-.328-.207.031-.46-.238-.785-.422l.14.75c-.496-.129-.984-.258-1.347-.351.02-.372.09-.668.031-.938-.12-.562-.3-1.11-.488-1.656-.031-.102-.203-.156-.402-.297.035-.215.207-.59-.2-.852-.03-.02-.03-.125-.02-.183l.415-2.043c.238.312.48.601.691.91a.5.5 0 0 1 .09.363c-.078.418.07.692.465.832-.3.395-.273.672.144.938.239.156.532.226.797.336.047-.274.172-.563.13-.82-.177-1.044-.134-2.087-.118-3.137.008-.594.149-1.102.586-1.52l-.012.012c.875-.5 1.614.234 2.422.367q.02-.083.04-.172c-.141-.062-.286-.125-.528-.234.07-.254.144-.551.223-.844q.068.01.136.02c.09.242.168.492.282.722.058.125.164.239.27.328.48.414 1.085.598 1.647.856.676.316 1.708-.356 1.864-1.168.043-.235.062-.473.094-.715.644.438.824 1.188.421 1.77-.226.332.532.082.543-.055.075-.945.11-1.895.196-2.84.023-.273.125-.57.28-.79q.6-.843 1.298-1.612c.152-.164.43-.29.656-.301 1.734-.098 3.473-.156 5.211-.242.379-.02.676.066.95.351.429.45.878.887 1.35 1.293.34.297.419.656.43 1.07.028 1.06.13 2.122.098 3.18-.066 2.07.063 2.305-.07 4.192-.031.48-.07.879-.098 1.148.012.438-.035 1.18-.469 1.906-.12.207-.308.516-.668.766m-16.14-4.793c-.149.129-.41.266-.399.371.032.324.075.734.282.926.453.418.96-.203 1.476-.067.074.02.285-.214.328-.359.184-.656-.554-2.402-.492-2.562.07-.2.277-.403.25-.57a7 7 0 0 0-.402-1.313c-.133-.34-.555-.477-.871-.313-.621.324-1.285 1.528-.75 2.328.136-.082.539 1.004.578 1.559m-.61 1.594c-.253.367-.246.703-.062 1.027.059.106.223.219.332.211.098-.008.219-.16.266-.277.199-.489-.227-.66-.536-.961m2.95-.098c-.309.586-.246.77.265 1.031.075.04.2.067.246.032.059-.043.102-.196.067-.247-.164-.265-.36-.515-.578-.816m0 0"/></g><path fill="#d5ba2b" d="M45.297 24.988a.84.84 0 0 0 .52-.058c.144-.067.226-.153.34-.297.152-.192.773-.426.882-.387.016.008.133.055.145.055q.089.04.171.086.106.058.208.12c.011.013.132.098.128.09.223.192.383.434.633.606.344.238.781.29 1.156.09.317-.172.5-.523.57-.86.036-.156.052-.316.071-.476q-.001-.018.004-.035c.012-.05.02-.11.027-.16a9 9 0 0 1 .168-.758c.121-.242.254-.48.367-.723.075-.148.114-.328.223-.445.188-.2.387-.184.633-.012.39.274.602-.004.758-.34q.21-.473.351-.953c.02 0 .035.004.055.008a4.2 4.2 0 0 0-.137.98c-.008.387-.011.77-.05 1.153-.043.41-.098.808-.125 1.207-.04.133-.145.898-.137 1.105.008.133-.043.543-.063.618-.125.484-.12.968-.156 1.46 0 .02-.004.04-.004.055-.004.016-.004.028-.008.047.008.418.004.863-.02 1.324a18 18 0 0 1-.35 2.762c-.204.27-.516.582-.895.578-.094 0-.106-.02-.219-.039-.422-.062-.738.094-1.445.367a19 19 0 0 1-.793.293 5.37 5.37 0 0 1-3.008.344 41 41 0 0 1-.184-3.754c-.008-1.46.067-2.82.184-4.05M37.457 18.266c-.004-1.125.008-2.25.012-3.375 0-.254-.02-.528.156-.696-.379-.304-.758-.613-1.164-.906l-.11.082c-.464-.168-.632-.023-.953.399a.9.9 0 0 0-.191.394c.05.195.113.39.18.578.011.035.027.067.039.098a2 2 0 0 1 .054.148c.125.328.254.66.352 1 .125.438.184.88.36 1.305q.058.136.117.266c.027.02.062.113.05.101l.02.05c.101.216.207.43.305.645.07.055.136.11.207.165l-.024.296q.111.317.196.641a4.2 4.2 0 0 1 .738 1.355q.03-.003.054-.007a8 8 0 0 1-.398-2.54m0 0"/><path fill="#d5ba2b" d="M45.203 5.348a33 33 0 0 1-.035-5.309 8.4 8.4 0 0 0-1.75.266c-.29.066-.566.18-.852.27-.207.062-.418.109-.62.183-.395.144-.817.246-1.173.465-.574.347-1.082.808-1.66 1.156-.265.164-.386.351-.25.566.29.453-.09.575-.32.743-.219.156-.488.242-.711.347.082.254.137.43.188.59-.204.059-.426.059-.528.164a2.5 2.5 0 0 0-.433.707c-.118.281-.164.59-.258.883-.051.152-.125.305-.215.437-.059.086-.207.122-.242.207-.2.497-.387.993-.27 1.551.04.2.047.434-.011.621-.176.555-.102 1.063.21 1.582-.136.024-.023.809-.039 1.215-.109.012-.199.012-.28 0 .003.055 0 .106-.005.164 0 .016-.004.031-.004.047q.013.01.02.02c.183.347.347.703.52 1.054a.1.1 0 0 0-.024.016c.406.289.785.598 1.164.902l.023-.023a.5.5 0 0 1 .172-.094c.305-.098.664.223.79.64.019.075.05.15.078.223.003.012.027.016.085.051.278-.426-.117-1.082.586-1.383.047.239.09.465.16.801q.178.058.711.238c-.082-.382-.132-.625-.16-.757.157-.203.258-.395.414-.516.125-.102.32-.18.477-.164.766.059 2.129.176 2.55.242.473.074 1.157.11 2.032-.09.027-.14.07-.375.11-.664.34-2.48-.16-3.726-.45-7.351M52.95 17.977c-.044-1.125-.102-2.25-.15-3.372-.01-.253 0-.527-.183-.69.367-.317.735-.642 1.125-.946l.117.07c.453-.184.625-.047.965.363a.86.86 0 0 1 .207.387q-.066.3-.156.586l-.035.098q-.024.069-.043.136c0 .004-.004.008-.004.012-.113.336-.23.672-.313 1.016-.105.445-.148.886-.308 1.32q-.047.135-.106.27c-.027.02-.054.113-.043.101-.007.02-.015.043-.02.05q-.141.328-.276.661l-.2.168q.016.145.032.297-.099.322-.168.648c-.196.266-.364.551-.5.864a3.5 3.5 0 0 0-.184.523c-.02-.004-.035-.008-.055-.008.243-.828.328-1.68.297-2.554m0 0"/><path fill="#d5ba2b" d="M44.953 5.43A133.796 133.796 0 0 1 45.04.008c.184.047.469.113.824.183.219.043.246.047.403.079.293.058.574.16.863.234.21.059.426.098.629.16.402.129.828.215 1.187.418.59.328 1.117.766 1.707 1.09.274.148 1.121 1.504 1.348 1.601-.07.258.262.637.367.743.196.191.352.437.465.687.129.274.188.582.293.871.059.153.137.301.234.43.059.082.211.11.25.195.22.489.301 1.973.368 2.16.199.547.144 1.059-.145 1.586.133.02.05.809.086 1.215.11.008.2.004.281-.012q.001.083.008.165a.2.2 0 0 1 .008.046q-.013.01-.02.02c-.168.355-.32.715-.476 1.074a.1.1 0 0 1 .023.016c-.39.304-.758.629-1.125.945q-.012-.013-.023-.02c-.047-.035-3.196-.847-3.352-.828-.754.094-1.855.243-2.539.348-.332.05-.844.102-1.5.043l-.039-.629c-.09-1.652-.203-4.242-.21-7.398m0 0"/></svg>