<svg xmlns="http://www.w3.org/2000/svg" width="21" height="12" viewBox="0 0 15.75 9"><defs><clipPath id="a"><path d="M.676 0h14.176v8H.676Zm0 0"/></clipPath></defs><g fill="#fff" clip-path="url(#a)"><path d="M.938.29C.75.464.676.655.676.937c0 .375.136.535 3.293 3.683 3.242 3.25 3.297 3.305 3.715 3.305s.468-.055 3.714-3.305c3.157-3.148 3.293-3.309 3.293-3.684 0-.542-.367-.91-.91-.91-.375 0-.523.125-3.242 2.844L7.684 5.727 4.828 2.87C2.11.152 1.961.027 1.586.027 1.3.027 1.113.102.937.29m0 0"/><path d="M.938.29C.75.464.676.655.676.937c0 .375.136.535 3.293 3.683 3.242 3.25 3.297 3.305 3.715 3.305s.468-.055 3.714-3.305c3.157-3.148 3.293-3.309 3.293-3.684 0-.542-.367-.91-.91-.91-.375 0-.523.125-3.242 2.844L7.684 5.727 4.828 2.87C2.11.152 1.961.027 1.586.027 1.3.027 1.113.102.937.29m0 0"/></g></svg>