<svg xmlns="http://www.w3.org/2000/svg" xmlns:xlink="http://www.w3.org/1999/xlink" width="51" zoomAndPan="magnify" viewBox="0 0 38.25 41.250001" height="55" preserveAspectRatio="xMidYMid meet" version="1.0"><defs><clipPath id="2aa29c7edd"><path d="M 14 36 L 24 36 L 24 40.089844 L 14 40.089844 Z M 14 36 " clip-rule="nonzero"/></clipPath><clipPath id="5df20c78b2"><path d="M 0.578125 0.371094 L 36.621094 0.371094 L 36.621094 35 L 0.578125 35 Z M 0.578125 0.371094 " clip-rule="nonzero"/></clipPath><clipPath id="5cbeed4cb2"><path d="M 13 36 L 23 36 L 23 39.75 L 13 39.75 Z M 13 36 " clip-rule="nonzero"/></clipPath><clipPath id="52cde930c8"><path d="M 0 0.0273438 L 36.042969 0.0273438 L 36.042969 35 L 0 35 Z M 0 0.0273438 " clip-rule="nonzero"/></clipPath></defs><g clip-path="url(#2aa29c7edd)"><path fill="#ffffff" d="M 23.34375 36.90625 C 23.257812 36.777344 23.078125 36.6875 22.964844 36.703125 L 14.605469 36.753906 C 14.605469 36.753906 14.304688 36.832031 14.222656 36.964844 C 14.144531 37.09375 14.125 37.253906 14.191406 37.390625 C 14.984375 39.214844 16.792969 40.390625 18.777344 40.390625 C 20.792969 40.390625 22.601562 39.191406 23.386719 37.335938 C 23.441406 37.191406 23.425781 37.027344 23.34375 36.90625 Z M 23.34375 36.90625 " fill-opacity="1" fill-rule="nonzero"/></g><g clip-path="url(#5df20c78b2)"><path fill="#ffffff" d="M 36.640625 32.417969 L 31.511719 28.140625 L 31.511719 16.742188 C 31.511719 10.964844 27.640625 6.082031 22.355469 4.527344 C 22.382812 4.355469 22.414062 4.1875 22.414062 4.007812 C 22.414062 2 20.785156 0.371094 18.777344 0.371094 C 16.765625 0.371094 15.140625 2 15.140625 4.007812 C 15.140625 4.1875 15.171875 4.355469 15.195312 4.527344 C 9.914062 6.082031 6.042969 10.957031 6.042969 16.742188 L 6.042969 28.140625 L 0.90625 32.417969 C 0.695312 32.589844 0.582031 32.847656 0.582031 33.113281 L 0.582031 34.023438 C 0.582031 34.523438 0.988281 34.929688 1.488281 34.929688 L 36.054688 34.929688 C 36.558594 34.929688 36.964844 34.523438 36.964844 34.023438 L 36.964844 33.113281 C 36.964844 32.847656 36.84375 32.589844 36.640625 32.417969 Z M 16.96875 4.152344 C 16.96875 4.105469 16.953125 4.054688 16.953125 4.007812 C 16.953125 3.003906 17.773438 2.183594 18.777344 2.183594 C 19.78125 2.183594 20.589844 3.003906 20.589844 4.007812 C 20.589844 4.054688 20.582031 4.105469 20.574219 4.152344 C 19.984375 4.074219 19.382812 4.007812 18.769531 4.007812 C 18.152344 4.007812 17.5625 4.0625 16.96875 4.152344 Z M 16.96875 4.152344 " fill-opacity="1" fill-rule="nonzero"/></g><g clip-path="url(#5cbeed4cb2)"><path fill="#ffffff" d="M 22.765625 36.566406 C 22.679688 36.4375 22.5 36.347656 22.386719 36.363281 L 14.027344 36.410156 C 14.027344 36.410156 13.726562 36.492188 13.644531 36.621094 C 13.5625 36.75 13.546875 36.914062 13.613281 37.050781 C 14.40625 38.875 16.214844 40.046875 18.199219 40.046875 C 20.214844 40.046875 22.023438 38.851562 22.808594 36.996094 C 22.863281 36.847656 22.847656 36.6875 22.765625 36.566406 Z M 22.765625 36.566406 " fill-opacity="1" fill-rule="nonzero"/></g><g clip-path="url(#52cde930c8)"><path fill="#ffffff" d="M 36.0625 32.078125 L 30.933594 27.800781 L 30.933594 16.402344 C 30.933594 10.625 27.0625 5.738281 21.777344 4.183594 C 21.804688 4.015625 21.835938 3.84375 21.835938 3.667969 C 21.835938 1.65625 20.207031 0.0273438 18.199219 0.0273438 C 16.1875 0.0273438 14.5625 1.65625 14.5625 3.667969 C 14.5625 3.84375 14.59375 4.015625 14.617188 4.183594 C 9.335938 5.738281 5.464844 10.617188 5.464844 16.402344 L 5.464844 27.800781 L 0.328125 32.078125 C 0.117188 32.246094 0.00390625 32.507812 0.00390625 32.773438 L 0.00390625 33.679688 C 0.00390625 34.183594 0.40625 34.589844 0.910156 34.589844 L 35.476562 34.589844 C 35.980469 34.589844 36.386719 34.183594 36.386719 33.679688 L 36.386719 32.773438 C 36.386719 32.507812 36.265625 32.246094 36.0625 32.078125 Z M 16.390625 3.8125 C 16.390625 3.761719 16.375 3.714844 16.375 3.667969 C 16.375 2.660156 17.195312 1.84375 18.199219 1.84375 C 19.203125 1.84375 20.011719 2.660156 20.011719 3.667969 C 20.011719 3.714844 20.003906 3.761719 19.996094 3.8125 C 19.40625 3.730469 18.804688 3.667969 18.191406 3.667969 C 17.574219 3.667969 16.984375 3.722656 16.390625 3.8125 Z M 16.390625 3.8125 " fill-opacity="1" fill-rule="nonzero"/></g></svg>