<svg xmlns="http://www.w3.org/2000/svg" width="51" height="55" viewBox="0 0 38.25 41.25"><defs><clipPath id="a"><path d="M14 36h10v4.09H14Zm0 0"/></clipPath><clipPath id="b"><path d="M.578.371h36.043V35H.578Zm0 0"/></clipPath><clipPath id="c"><path d="M13 36h10v3.75H13Zm0 0"/></clipPath><clipPath id="d"><path d="M0 .027h36.043V35H0Zm0 0"/></clipPath></defs><g clip-path="url(#a)"><path fill="#fff" d="M23.344 36.906c-.086-.129-.266-.218-.38-.203l-8.359.05s-.3.079-.382.212a.45.45 0 0 0-.032.426 5 5 0 0 0 4.586 3c2.016 0 3.825-1.2 4.61-3.055a.48.48 0 0 0-.043-.43m0 0"/></g><g clip-path="url(#b)"><path fill="#fff" d="m36.64 32.418-5.128-4.277V16.742c0-5.777-3.871-10.66-9.157-12.215.028-.172.06-.34.06-.52a3.638 3.638 0 0 0-7.274 0c0 .18.03.348.054.52-5.28 1.555-9.152 6.43-9.152 12.215v11.399L.906 32.418a.9.9 0 0 0-.324.695v.91c0 .5.406.907.906.907h34.567c.504 0 .91-.407.91-.907v-.91a.92.92 0 0 0-.324-.695M16.97 4.152c0-.047-.016-.097-.016-.144 0-1.004.82-1.824 1.824-1.824s1.813.82 1.813 1.824a1 1 0 0 1-.016.144 14 14 0 0 0-1.804-.144c-.618 0-1.207.054-1.801.144m0 0"/></g><g clip-path="url(#c)"><path fill="#fff" d="M22.766 36.566c-.086-.129-.266-.218-.38-.203l-8.359.047s-.3.082-.382.211a.44.44 0 0 0-.032.43 5 5 0 0 0 4.586 2.996 4.99 4.99 0 0 0 4.61-3.05.47.47 0 0 0-.043-.43m0 0"/></g><g clip-path="url(#d)"><path fill="#fff" d="m36.063 32.078-5.13-4.277V16.402c0-5.777-3.87-10.664-9.156-12.218.028-.168.059-.34.059-.516a3.636 3.636 0 1 0-7.273 0c0 .176.03.348.054.516-5.281 1.554-9.152 6.433-9.152 12.218v11.399L.328 32.078a.89.89 0 0 0-.324.695v.907c0 .504.402.91.906.91h34.567c.503 0 .91-.406.91-.91v-.907a.91.91 0 0 0-.325-.695M16.39 3.812c0-.05-.016-.097-.016-.144 0-1.008.82-1.824 1.824-1.824s1.813.816 1.813 1.824c0 .047-.008.094-.016.144a13 13 0 0 0-1.805-.144c-.617 0-1.207.055-1.8.144m0 0"/></g></svg>