<svg xmlns="http://www.w3.org/2000/svg" width="119" height="124" viewBox="0 0 89.25 93"><defs><clipPath id="a"><path d="M51 77h21v14.867H51Zm0 0"/></clipPath><clipPath id="b"><path d="M41 21h46.762v55H41Zm0 0"/></clipPath><clipPath id="c"><path d="M51 77h21v14.867H51Zm0 0"/></clipPath><clipPath id="d"><path d="M41 21h46.879v55H41Zm0 0"/></clipPath><clipPath id="e"><path d="M.117 1H52v55H.117Zm0 0"/></clipPath></defs><path fill="#012430" fill-rule="evenodd" d="m71.004 77.148 2.57 9.57 5.57-1.491-2.566-9.567Zm0 0"/><g clip-path="url(#a)"><path fill="#012430" fill-rule="evenodd" d="m71.566 87.258-2.57-9.567-17.687 4.727 2.57 9.566Zm0 0"/></g><g clip-path="url(#b)"><path fill="#012430" fill-rule="evenodd" d="M51.547 22.902c-1.059 3.586-2.504 7.172-3.758 10.282-.754 1.855-1.445 3.605-1.922 4.988a332 332 0 0 0-4.273 13.43l.324.8c.754 1.88 1.465 3.649 1.965 5.098 2.222 6.563 4.187 12.871 5.68 18.313l25.265-6.782c-.844-3.629-.93-6.414 2.719-8.465 3.09-1.73 10.215-7.043 9.742-18.636-.262-6.176-3.566-13.82-9.18-15.785-2.46-.868-4.535.925-5.464 1.94l4.578 17.06a1.026 1.026 0 0 1-.993 1.296c-.453 0-.886-.3-.992-.777l-4.73-17.555c-1.445-5.312-9.719-7.668-14.88-6.285Zm0 0"/></g><path fill="#012430" fill-rule="evenodd" d="m12.957 49.035 25.29 6.778c1.487-5.442 3.433-11.747 5.679-18.313.496-1.445 1.207-3.215 1.965-5.094 1.293-3.195 2.785-6.91 3.82-10.539.023-.066.023-.129.043-.172 1.34-4.71 1.902-9.289.305-12.504-.996-2.007-2.766-3.328-5.422-4.02l-12.48-3.343C26.972.445 18.68 2.84 17.253 8.11l-4.707 17.579c-.152.562-.711.886-1.274.734a1.027 1.027 0 0 1-.734-1.274L15.117 8.09c-.93-1.016-3.004-2.809-5.465-1.945C4.016 8.133.711 15.754.477 21.93 0 33.527 7.125 38.82 10.215 40.566c3.672 2.075 3.605 4.84 2.742 8.47M11.746 53.656l25.27 6.758.687-2.59-25.266-6.781ZM18.79 57.672l-2.571 9.586 17.687 4.73 2.567-9.566ZM14.21 66.719l2.571-9.567-5.574-1.511-2.57 9.59ZM50.078 77.82l.715 2.59 25.242-6.758-.691-2.613ZM71.121 77.148l2.57 9.57 5.57-1.491-2.57-9.567Zm0 0"/><g clip-path="url(#c)"><path fill="#012430" fill-rule="evenodd" d="m71.684 87.258-2.57-9.567-17.688 4.727 2.57 9.566Zm0 0"/></g><g clip-path="url(#d)"><path fill="#012430" fill-rule="evenodd" d="M51.664 22.902c-1.059 3.586-2.504 7.172-3.758 10.282-.754 1.855-1.445 3.605-1.922 4.988a332 332 0 0 0-4.273 13.43l.32.8C42.79 54.282 43.5 56.051 44 57.5c2.223 6.563 4.188 12.871 5.68 18.313l25.265-6.782c-.843-3.629-.93-6.414 2.72-8.465 3.089-1.73 10.214-7.043 9.741-18.636-.261-6.176-3.566-13.82-9.18-15.785-2.46-.868-4.535.925-5.464 1.94l4.578 17.06a1.026 1.026 0 0 1-.992 1.296c-.453 0-.887-.3-.993-.777l-4.73-17.555c-1.445-5.312-9.719-7.668-14.879-6.285Zm0 0"/></g><g clip-path="url(#e)"><path fill="#012430" fill-rule="evenodd" d="m13.074 49.035 25.29 6.778c1.488-5.442 3.433-11.747 5.679-18.313.496-1.445 1.207-3.215 1.965-5.094 1.293-3.195 2.785-6.91 3.82-10.539.024-.066.024-.129.043-.172 1.34-4.71 1.902-9.289.305-12.504-.996-2.007-2.766-3.328-5.422-4.02l-12.48-3.343C27.09.445 18.796 2.84 17.37 8.11l-4.707 17.579a1.03 1.03 0 0 1-1.273.734 1.027 1.027 0 0 1-.735-1.274L15.234 8.09c-.93-1.016-3.004-2.809-5.464-1.945C4.133 8.133.828 15.754.594 21.93c-.477 11.597 6.648 16.89 9.738 18.636 3.672 2.075 3.605 4.84 2.742 8.47m0 0"/></g><path fill="#012430" fill-rule="evenodd" d="m11.863 53.656 25.27 6.758.687-2.59-25.265-6.781ZM18.906 57.672l-2.57 9.586 17.684 4.73 2.57-9.566ZM14.328 66.719l2.567-9.567-5.57-1.511-2.571 9.59ZM50.195 77.82l.715 2.59 25.242-6.758-.691-2.613Zm0 0"/></svg>