<svg xmlns="http://www.w3.org/2000/svg" xmlns:xlink="http://www.w3.org/1999/xlink" width="119" zoomAndPan="magnify" viewBox="0 0 89.25 92.999996" height="124" preserveAspectRatio="xMidYMid meet" version="1.0"><defs><clipPath id="ec18f38e9b"><path d="M 51 77 L 72 77 L 72 91.867188 L 51 91.867188 Z M 51 77 " clip-rule="nonzero"/></clipPath><clipPath id="ed8f3c40f1"><path d="M 41 21 L 87.761719 21 L 87.761719 76 L 41 76 Z M 41 21 " clip-rule="nonzero"/></clipPath><clipPath id="a80296d6bc"><path d="M 51 77 L 72 77 L 72 91.867188 L 51 91.867188 Z M 51 77 " clip-rule="nonzero"/></clipPath><clipPath id="7ad5be4121"><path d="M 41 21 L 87.878906 21 L 87.878906 76 L 41 76 Z M 41 21 " clip-rule="nonzero"/></clipPath><clipPath id="a190b92107"><path d="M 0.117188 1 L 52 1 L 52 56 L 0.117188 56 Z M 0.117188 1 " clip-rule="nonzero"/></clipPath></defs><path fill="#012430" d="M 71.003906 77.148438 L 73.574219 86.71875 L 79.144531 85.226562 L 76.578125 75.660156 Z M 71.003906 77.148438 " fill-opacity="1" fill-rule="evenodd"/><g clip-path="url(#ec18f38e9b)"><path fill="#012430" d="M 71.566406 87.257812 L 68.996094 77.691406 L 51.308594 82.417969 L 53.878906 91.984375 Z M 71.566406 87.257812 " fill-opacity="1" fill-rule="evenodd"/></g><g clip-path="url(#ed8f3c40f1)"><path fill="#012430" d="M 51.546875 22.902344 C 50.488281 26.488281 49.042969 30.074219 47.789062 33.183594 C 47.035156 35.039062 46.34375 36.789062 45.867188 38.171875 C 44.269531 42.855469 42.824219 47.414062 41.59375 51.601562 L 41.917969 52.402344 C 42.671875 54.28125 43.382812 56.050781 43.882812 57.5 C 46.105469 64.0625 48.070312 70.371094 49.5625 75.8125 L 74.828125 69.03125 C 73.984375 65.402344 73.898438 62.617188 77.546875 60.566406 C 80.636719 58.835938 87.761719 53.523438 87.289062 41.929688 C 87.027344 35.753906 83.722656 28.109375 78.109375 26.144531 C 75.648438 25.277344 73.574219 27.070312 72.644531 28.085938 L 77.222656 45.144531 C 77.398438 45.816406 76.898438 46.441406 76.230469 46.441406 C 75.777344 46.441406 75.34375 46.140625 75.238281 45.664062 L 70.507812 28.109375 C 69.0625 22.796875 60.789062 20.441406 55.628906 21.824219 Z M 51.546875 22.902344 " fill-opacity="1" fill-rule="evenodd"/></g><path fill="#012430" d="M 12.957031 49.035156 L 38.246094 55.8125 C 39.734375 50.371094 41.679688 44.066406 43.925781 37.5 C 44.421875 36.054688 45.132812 34.285156 45.890625 32.40625 C 47.183594 29.210938 48.675781 25.496094 49.710938 21.867188 C 49.734375 21.800781 49.734375 21.738281 49.753906 21.695312 C 51.09375 16.984375 51.65625 12.40625 50.058594 9.191406 C 49.0625 7.183594 47.292969 5.863281 44.636719 5.171875 L 32.15625 1.828125 C 26.972656 0.445312 18.679688 2.839844 17.253906 8.109375 L 12.546875 25.6875 C 12.394531 26.25 11.835938 26.574219 11.273438 26.421875 C 10.710938 26.273438 10.386719 25.710938 10.539062 25.148438 L 15.117188 8.089844 C 14.1875 7.074219 12.113281 5.28125 9.652344 6.144531 C 4.015625 8.132812 0.710938 15.753906 0.476562 21.929688 C 0 33.527344 7.125 38.820312 10.214844 40.566406 C 13.886719 42.640625 13.820312 45.40625 12.957031 49.035156 Z M 12.957031 49.035156 " fill-opacity="1" fill-rule="evenodd"/><path fill="#012430" d="M 11.746094 53.65625 L 37.015625 60.414062 L 37.703125 57.824219 L 12.4375 51.042969 Z M 11.746094 53.65625 " fill-opacity="1" fill-rule="evenodd"/><path fill="#012430" d="M 18.789062 57.671875 L 16.21875 67.257812 L 33.90625 71.988281 L 36.472656 62.421875 Z M 18.789062 57.671875 " fill-opacity="1" fill-rule="evenodd"/><path fill="#012430" d="M 14.210938 66.71875 L 16.78125 57.152344 L 11.207031 55.640625 L 8.636719 65.230469 Z M 14.210938 66.71875 " fill-opacity="1" fill-rule="evenodd"/><path fill="#012430" d="M 50.078125 77.820312 L 50.792969 80.410156 L 76.035156 73.652344 L 75.34375 71.039062 Z M 50.078125 77.820312 " fill-opacity="1" fill-rule="evenodd"/><path fill="#012430" d="M 71.121094 77.148438 L 73.691406 86.71875 L 79.261719 85.226562 L 76.691406 75.660156 Z M 71.121094 77.148438 " fill-opacity="1" fill-rule="evenodd"/><g clip-path="url(#a80296d6bc)"><path fill="#012430" d="M 71.683594 87.257812 L 69.113281 77.691406 L 51.425781 82.417969 L 53.996094 91.984375 Z M 71.683594 87.257812 " fill-opacity="1" fill-rule="evenodd"/></g><g clip-path="url(#7ad5be4121)"><path fill="#012430" d="M 51.664062 22.902344 C 50.605469 26.488281 49.160156 30.074219 47.90625 33.183594 C 47.152344 35.039062 46.460938 36.789062 45.984375 38.171875 C 44.386719 42.855469 42.941406 47.414062 41.710938 51.601562 L 42.03125 52.402344 C 42.789062 54.28125 43.5 56.050781 44 57.5 C 46.222656 64.0625 48.1875 70.371094 49.679688 75.8125 L 74.945312 69.03125 C 74.101562 65.402344 74.015625 62.617188 77.664062 60.566406 C 80.753906 58.835938 87.878906 53.523438 87.40625 41.929688 C 87.144531 35.753906 83.839844 28.109375 78.226562 26.144531 C 75.765625 25.277344 73.691406 27.070312 72.761719 28.085938 L 77.339844 45.144531 C 77.515625 45.816406 77.015625 46.441406 76.347656 46.441406 C 75.894531 46.441406 75.460938 46.140625 75.355469 45.664062 L 70.625 28.109375 C 69.179688 22.796875 60.90625 20.441406 55.746094 21.824219 Z M 51.664062 22.902344 " fill-opacity="1" fill-rule="evenodd"/></g><g clip-path="url(#a190b92107)"><path fill="#012430" d="M 13.074219 49.035156 L 38.363281 55.8125 C 39.851562 50.371094 41.796875 44.066406 44.042969 37.5 C 44.539062 36.054688 45.25 34.285156 46.007812 32.40625 C 47.300781 29.210938 48.792969 25.496094 49.828125 21.867188 C 49.851562 21.800781 49.851562 21.738281 49.871094 21.695312 C 51.210938 16.984375 51.773438 12.40625 50.175781 9.191406 C 49.179688 7.183594 47.410156 5.863281 44.753906 5.171875 L 32.273438 1.828125 C 27.089844 0.445312 18.796875 2.839844 17.371094 8.109375 L 12.664062 25.6875 C 12.511719 26.25 11.949219 26.574219 11.390625 26.421875 C 10.828125 26.273438 10.503906 25.710938 10.65625 25.148438 L 15.234375 8.089844 C 14.304688 7.074219 12.230469 5.28125 9.769531 6.144531 C 4.132812 8.132812 0.828125 15.753906 0.59375 21.929688 C 0.117188 33.527344 7.242188 38.820312 10.332031 40.566406 C 14.003906 42.640625 13.9375 45.40625 13.074219 49.035156 Z M 13.074219 49.035156 " fill-opacity="1" fill-rule="evenodd"/></g><path fill="#012430" d="M 11.863281 53.65625 L 37.132812 60.414062 L 37.820312 57.824219 L 12.554688 51.042969 Z M 11.863281 53.65625 " fill-opacity="1" fill-rule="evenodd"/><path fill="#012430" d="M 18.90625 57.671875 L 16.335938 67.257812 L 34.019531 71.988281 L 36.589844 62.421875 Z M 18.90625 57.671875 " fill-opacity="1" fill-rule="evenodd"/><path fill="#012430" d="M 14.328125 66.71875 L 16.894531 57.152344 L 11.324219 55.640625 L 8.753906 65.230469 Z M 14.328125 66.71875 " fill-opacity="1" fill-rule="evenodd"/><path fill="#012430" d="M 50.195312 77.820312 L 50.910156 80.410156 L 76.152344 73.652344 L 75.460938 71.039062 Z M 50.195312 77.820312 " fill-opacity="1" fill-rule="evenodd"/></svg>