<svg xmlns="http://www.w3.org/2000/svg" width="107" height="99" viewBox="0 0 80.25 74.25"><defs><clipPath id="a"><path d="M.031 2H78v71.508H.031Zm0 0"/></clipPath></defs><g fill="#012430" clip-path="url(#a)"><path d="M70.36 9.21C61.687.564 47.925.048 38.663 7.665 29.406.047 15.641.56 6.97 9.211a24 24 0 0 0-1.563 1.715 23 23 0 0 0-1.383 1.86q-.645.962-1.195 1.984a23.3 23.3 0 0 0-2.344 6.523 23 23 0 0 0-.34 2.293Q.03 24.742.032 25.902c0 .774.035 1.543.114 2.313q.11 1.156.34 2.293a23.7 23.7 0 0 0 1.347 4.43q.446 1.073.996 2.093c.367.684.766 1.344 1.195 1.989.43.64.891 1.261 1.383 1.855A24 24 0 0 0 6.97 42.59l29.988 29.992a2.43 2.43 0 0 0 1.707.707q.481 0 .922-.184c.297-.125.559-.296.785-.523L70.36 42.59a23.7 23.7 0 0 0 4.805-6.895q.005-.005.004-.015a23.721 23.721 0 0 0 2.082-10.43 24 24 0 0 0-.371-3.55 24 24 0 0 0-2.313-6.743 23.7 23.7 0 0 0-4.207-5.746m-59.981 3.415a18.7 18.7 0 0 1 2.851-2.328 18 18 0 0 1 1.582-.945 18.6 18.6 0 0 1 3.403-1.407 18.7 18.7 0 0 1 9.117-.449q.906.182 1.79.445a19 19 0 0 1 4.987 2.352q.767.512 1.48 1.094.716.586 1.368 1.238a2.43 2.43 0 0 0 1.707.707q.481 0 .922-.184c.297-.125.559-.296.785-.523 7.316-7.316 19.238-7.32 26.578 0 5.149 5.148 6.774 12.867 4.34 19.645H50.727q-.686 0-1.266.363-.586.357-.89.972l-4.633 9.266-7.813-23.426a2.34 2.34 0 0 0-.809-1.144 2.4 2.4 0 0 0-1.308-.5 2.35 2.35 0 0 0-1.363.312 2.33 2.33 0 0 0-.965 1.016l-6.57 13.14H6.04c-2.43-6.777-.81-14.496 4.339-19.644m28.285 54.84L10.38 39.175a19 19 0 0 1-1.742-2.077h17.965q.685 0 1.265-.364.586-.357.89-.972l4.634-9.266 7.812 23.426q.228.696.809 1.144.575.447 1.308.5.087.007.172.008.686 0 1.266-.363.585-.358.89-.973l6.57-13.14h16.473a19 19 0 0 1-1.742 2.082Zm0 0"/><path d="M70.36 9.21C61.687.564 47.925.048 38.663 7.665 29.406.047 15.641.56 6.97 9.211a24 24 0 0 0-1.563 1.715 23 23 0 0 0-1.383 1.86q-.645.962-1.195 1.984a23.3 23.3 0 0 0-2.344 6.523 23 23 0 0 0-.34 2.293Q.03 24.742.032 25.902c0 .774.035 1.543.114 2.313q.11 1.156.34 2.293a23.7 23.7 0 0 0 1.347 4.43q.446 1.073.996 2.093c.367.684.766 1.344 1.195 1.989.43.64.891 1.261 1.383 1.855A24 24 0 0 0 6.97 42.59l29.988 29.992a2.43 2.43 0 0 0 1.707.707q.481 0 .922-.184c.297-.125.559-.296.785-.523L70.36 42.59a23.7 23.7 0 0 0 4.805-6.895q.005-.005.004-.015a23.721 23.721 0 0 0 2.082-10.43 24 24 0 0 0-.371-3.55 24 24 0 0 0-2.313-6.743 23.7 23.7 0 0 0-4.207-5.746m-59.981 3.415a18.7 18.7 0 0 1 2.851-2.328 18 18 0 0 1 1.582-.945 18.6 18.6 0 0 1 3.403-1.407 18.7 18.7 0 0 1 9.117-.449q.906.182 1.79.445a19 19 0 0 1 4.987 2.352q.767.512 1.48 1.094.716.586 1.368 1.238a2.43 2.43 0 0 0 1.707.707q.481 0 .922-.184c.297-.125.559-.296.785-.523 7.316-7.316 19.238-7.32 26.578 0 5.149 5.148 6.774 12.867 4.34 19.645H50.727q-.686 0-1.266.363-.586.357-.89.972l-4.633 9.266-7.813-23.426a2.34 2.34 0 0 0-.809-1.144 2.4 2.4 0 0 0-1.308-.5 2.35 2.35 0 0 0-1.363.312 2.33 2.33 0 0 0-.965 1.016l-6.57 13.14H6.04c-2.43-6.777-.81-14.496 4.339-19.644m28.285 54.84L10.38 39.175a19 19 0 0 1-1.742-2.077h17.965q.685 0 1.265-.364.586-.357.89-.972l4.634-9.266 7.812 23.426q.228.696.809 1.144.575.447 1.308.5.087.007.172.008.686 0 1.266-.363.585-.358.89-.973l6.57-13.14h16.473a19 19 0 0 1-1.742 2.082Zm0 0"/></g></svg>