<svg xmlns="http://www.w3.org/2000/svg" width="96" height="111" viewBox="0 0 72 83.25"><defs><clipPath id="a"><path d="M.762 0H71v82.508H.762Zm0 0"/></clipPath><clipPath id="b"><path d="M.32 0h70.614v82.508H.32Zm0 0"/></clipPath></defs><g clip-path="url(#a)"><path fill="#012430" d="M27.012 8.957q-.002-.879.168-1.734a9 9 0 0 1 .508-1.668 8.8 8.8 0 0 1 1.925-2.887A8.9 8.9 0 0 1 39.31.742q.808.334 1.535.82.732.486 1.347 1.106a8.9 8.9 0 0 1 1.93 9.691 8.9 8.9 0 0 1-3.277 3.992 8.8 8.8 0 0 1-1.535.82 8.7 8.7 0 0 1-1.668.509 9 9 0 0 1-1.739.172q-.873-.001-1.734-.172a8.953 8.953 0 0 1-3.207-1.328 8.9 8.9 0 0 1-2.453-2.454c-.324-.484-.598-1-.82-1.539a9 9 0 0 1-.508-1.668 9 9 0 0 1-.168-1.734M66.41 22.25H5.398c-.293 0-.578.027-.867.082a4.4 4.4 0 0 0-.832.246q-.403.168-.765.406a4.4 4.4 0 0 0-1.227 1.223c-.164.238-.3.496-.414.766q-.165.399-.254.828a4.6 4.6 0 0 0 0 1.73q.09.428.254.832.169.404.414.766.24.363.55.668c.208.207.43.39.677.55A4.4 4.4 0 0 0 4.53 31c.29.055.574.082.867.082h19.7V76.75q-.001.529.109 1.05.104.517.309 1.009.204.487.504.93.292.438.671.812a5.35 5.35 0 0 0 1.747 1.164q.491.199 1.011.305.523.103 1.051.101.531.002 1.05-.101.521-.105 1.012-.305.489-.204.93-.496.44-.293.817-.668.38-.374.671-.813a5.35 5.35 0 0 0 .922-2.988V52.367l7.391 7.387-3.477 3.476q-.368.376-.656.82a5.5 5.5 0 0 0-.484.93 5.7 5.7 0 0 0-.293 1.008 5.2 5.2 0 0 0-.094 1.047c0 .352.04.7.11 1.043a5.3 5.3 0 0 0 .804 1.926q.293.438.668.812c.246.25.52.47.809.668q.44.293.925.496.488.204 1.004.31.516.104 1.043.108.527.006 1.047-.093a5.4 5.4 0 0 0 1.938-.782q.445-.288.82-.652l6.477-6.476q.456-.457.812-.997a6.7 6.7 0 0 0 .606-1.132q.246-.597.375-1.235.124-.632.125-1.277-.001-.65-.125-1.281a6.608 6.608 0 0 0-1.793-3.363l-7.223-7.223V31.082h19.7a4.6 4.6 0 0 0 1.698-.328q.404-.166.766-.406.364-.24.676-.551c.203-.203.39-.426.55-.668q.247-.362.41-.766.172-.405.255-.832.087-.429.086-.863 0-.44-.086-.867a4 4 0 0 0-.254-.832 4 4 0 0 0-.41-.762 4.35 4.35 0 0 0-1.227-1.223 4.6 4.6 0 0 0-.766-.406q-.406-.164-.836-.246a4.6 4.6 0 0 0-.863-.082m0 0"/></g><g clip-path="url(#b)"><path fill="#012430" d="M26.57 8.957q0-.879.168-1.734a9 9 0 0 1 .508-1.668 8.8 8.8 0 0 1 1.93-2.887q.616-.62 1.347-1.106a8.8 8.8 0 0 1 1.536-.82 8.7 8.7 0 0 1 1.668-.508A9 9 0 0 1 35.46.063q.878 0 1.738.171c.57.114 1.13.282 1.668.508q.81.334 1.535.82.733.486 1.348 1.106c.414.414.781.863 1.11 1.348.324.484.597 1 .82 1.539q.332.807.508 1.668a9 9 0 0 1 .167 1.734c0 .582-.054 1.164-.167 1.734a9 9 0 0 1-.508 1.668 8.8 8.8 0 0 1-1.93 2.887q-.615.62-1.348 1.106a8.8 8.8 0 0 1-1.535.82 8.7 8.7 0 0 1-1.668.508 9 9 0 0 1-1.738.172q-.873-.001-1.734-.172a8.7 8.7 0 0 1-1.668-.508 8.8 8.8 0 0 1-1.536-.82 8.5 8.5 0 0 1-1.347-1.106 8.811 8.811 0 0 1-1.93-2.887 9 9 0 0 1-.508-1.668 9 9 0 0 1-.168-1.734M65.97 22.25H4.957a4.6 4.6 0 0 0-1.7.328q-.403.168-.765.406a4.309 4.309 0 0 0-1.227 1.223 4.3 4.3 0 0 0-.663 1.594 4.3 4.3 0 0 0-.086.867q-.001.434.086.863c.054.285.14.563.25.832q.169.404.414.766.24.363.55.668.312.31.676.55A4.4 4.4 0 0 0 4.094 31q.426.082.863.082h19.7V76.75q.001.529.109 1.05.105.517.308 1.009.205.487.504.93c.195.292.422.562.672.812A5.35 5.35 0 0 0 28 81.715q.486.199 1.008.305.522.103 1.05.101.532.002 1.051-.101.521-.105 1.012-.305c.324-.137.637-.3.93-.496a5.38 5.38 0 0 0 1.992-2.41 5.297 5.297 0 0 0 .418-2.059V52.367l7.39 7.387-3.476 3.476q-.37.376-.656.82a5.5 5.5 0 0 0-.485.93 5.7 5.7 0 0 0-.293 1.008 5.2 5.2 0 0 0-.093 1.047c0 .352.039.7.109 1.043a5.3 5.3 0 0 0 .805 1.926q.293.438.668.812c.25.25.52.47.808.668q.44.293.926.496t1.004.31q.516.104 1.043.108.527.006 1.047-.093a5.4 5.4 0 0 0 1.937-.782q.445-.288.82-.652l6.477-6.476q.456-.457.813-.997a6.5 6.5 0 0 0 .605-1.132q.247-.597.375-1.235.124-.632.125-1.277-.001-.65-.125-1.281a7 7 0 0 0-.375-1.23 6.4 6.4 0 0 0-.605-1.138 6.4 6.4 0 0 0-.813-.996l-7.222-7.222V31.082h19.699a4.6 4.6 0 0 0 1.699-.328q.403-.166.766-.406.364-.24.675-.551.31-.305.551-.668.244-.362.414-.766.167-.405.25-.832.087-.429.086-.863.001-.44-.086-.867a4.4 4.4 0 0 0-.25-.832 4.4 4.4 0 0 0-.414-.762 4 4 0 0 0-.55-.672 4.6 4.6 0 0 0-.676-.55 4.377 4.377 0 0 0-1.602-.652 4.6 4.6 0 0 0-.863-.083m0 0"/></g></svg>