<svg xmlns="http://www.w3.org/2000/svg" xmlns:xlink="http://www.w3.org/1999/xlink" width="35" zoomAndPan="magnify" viewBox="0 0 26.25 17.999999" height="24" preserveAspectRatio="xMidYMid meet" version="1.0"><defs><clipPath id="3d1f90d8fa"><path d="M 1 9 L 24 9 L 24 16.292969 L 1 16.292969 Z M 1 9 " clip-rule="nonzero"/></clipPath><clipPath id="4fcedb7cb6"><path d="M 1 0.25 L 24 0.25 L 24 10 L 1 10 Z M 1 0.25 " clip-rule="nonzero"/></clipPath><clipPath id="925d3f7699"><path d="M 16 1 L 24.792969 1 L 24.792969 16 L 16 16 Z M 16 1 " clip-rule="nonzero"/></clipPath><clipPath id="ae418732de"><path d="M 1 10 L 24 10 L 24 17.171875 L 1 17.171875 Z M 1 10 " clip-rule="nonzero"/></clipPath><clipPath id="899317be40"><path d="M 1 1.132812 L 24 1.132812 L 24 11 L 1 11 Z M 1 1.132812 " clip-rule="nonzero"/></clipPath><clipPath id="518f6b5f40"><path d="M 16 2 L 24.792969 2 L 24.792969 17 L 16 17 Z M 16 2 " clip-rule="nonzero"/></clipPath></defs><g clip-path="url(#3d1f90d8fa)"><path fill="#2c6e7a" d="M 23.640625 16 L 15.785156 9.480469 C 15.558594 9.292969 15.222656 9.292969 14.996094 9.480469 L 12.878906 11.238281 C 12.667969 11.414062 12.359375 11.414062 12.144531 11.238281 L 10.03125 9.480469 C 9.800781 9.292969 9.46875 9.292969 9.238281 9.480469 L 1.386719 16 C 1.277344 16.089844 1.339844 16.265625 1.480469 16.265625 L 23.542969 16.265625 C 23.683594 16.265625 23.746094 16.089844 23.640625 16 " fill-opacity="1" fill-rule="nonzero"/></g><path fill="#2c6e7a" d="M 8.257812 8.007812 L 0.25 1.359375 C 0.152344 1.277344 0.00390625 1.347656 0.00390625 1.476562 L 0.00390625 15.0625 C 0.00390625 15.191406 0.152344 15.261719 0.25 15.179688 L 8.257812 8.53125 C 8.421875 8.394531 8.421875 8.144531 8.257812 8.007812 " fill-opacity="1" fill-rule="nonzero"/><g clip-path="url(#4fcedb7cb6)"><path fill="#2c6e7a" d="M 1.386719 0.539062 L 12.210938 9.527344 C 12.386719 9.671875 12.640625 9.671875 12.8125 9.527344 L 23.640625 0.539062 C 23.746094 0.449219 23.683594 0.273438 23.542969 0.273438 L 1.480469 0.273438 C 1.339844 0.273438 1.277344 0.449219 1.386719 0.539062 " fill-opacity="1" fill-rule="nonzero"/></g><g clip-path="url(#925d3f7699)"><path fill="#2c6e7a" d="M 24.777344 1.359375 L 16.769531 8.007812 C 16.605469 8.144531 16.605469 8.394531 16.769531 8.53125 L 24.777344 15.179688 C 24.875 15.261719 25.019531 15.191406 25.019531 15.066406 L 25.019531 1.476562 C 25.019531 1.347656 24.875 1.277344 24.777344 1.359375 " fill-opacity="1" fill-rule="nonzero"/></g><g clip-path="url(#ae418732de)"><path fill="#2c6e7a" d="M 23.640625 16.882812 L 15.785156 10.363281 C 15.558594 10.171875 15.222656 10.171875 14.996094 10.363281 L 12.878906 12.121094 C 12.667969 12.296875 12.359375 12.296875 12.144531 12.121094 L 10.03125 10.363281 C 9.800781 10.171875 9.46875 10.171875 9.238281 10.363281 L 1.386719 16.882812 C 1.277344 16.972656 1.339844 17.148438 1.480469 17.148438 L 23.542969 17.148438 C 23.683594 17.148438 23.746094 16.972656 23.640625 16.882812 " fill-opacity="1" fill-rule="nonzero"/></g><path fill="#2c6e7a" d="M 8.257812 8.890625 L 0.25 2.242188 C 0.152344 2.160156 0.00390625 2.230469 0.00390625 2.359375 L 0.00390625 15.945312 C 0.00390625 16.074219 0.152344 16.144531 0.25 16.0625 L 8.257812 9.414062 C 8.421875 9.277344 8.421875 9.027344 8.257812 8.890625 " fill-opacity="1" fill-rule="nonzero"/><g clip-path="url(#899317be40)"><path fill="#2c6e7a" d="M 1.386719 1.421875 L 12.210938 10.410156 C 12.386719 10.554688 12.640625 10.554688 12.8125 10.410156 L 23.640625 1.421875 C 23.746094 1.332031 23.683594 1.15625 23.542969 1.15625 L 1.480469 1.15625 C 1.339844 1.15625 1.277344 1.332031 1.386719 1.421875 " fill-opacity="1" fill-rule="nonzero"/></g><g clip-path="url(#518f6b5f40)"><path fill="#2c6e7a" d="M 24.777344 2.242188 L 16.769531 8.890625 C 16.605469 9.027344 16.605469 9.277344 16.769531 9.414062 L 24.777344 16.0625 C 24.875 16.144531 25.019531 16.074219 25.019531 15.945312 L 25.019531 2.359375 C 25.019531 2.230469 24.875 2.160156 24.777344 2.242188 " fill-opacity="1" fill-rule="nonzero"/></g></svg>