<svg xmlns="http://www.w3.org/2000/svg" width="35" height="24" viewBox="0 0 26.25 18"><defs><clipPath id="a"><path d="M1 9h23v7.293H1Zm0 0"/></clipPath><clipPath id="b"><path d="M1 .25h23V10H1Zm0 0"/></clipPath><clipPath id="c"><path d="M16 1h8.793v15H16Zm0 0"/></clipPath><clipPath id="d"><path d="M1 10h23v7.172H1Zm0 0"/></clipPath><clipPath id="e"><path d="M1 1.133h23V11H1Zm0 0"/></clipPath><clipPath id="f"><path d="M16 2h8.793v15H16Zm0 0"/></clipPath></defs><g clip-path="url(#a)"><path fill="#2c6e7a" d="m23.64 16-7.855-6.52a.624.624 0 0 0-.789 0l-2.117 1.758a.58.58 0 0 1-.734 0L10.03 9.48a.63.63 0 0 0-.793 0L1.387 16a.15.15 0 0 0 .093.266h22.063c.14 0 .203-.176.098-.266"/></g><path fill="#2c6e7a" d="M8.258 8.008.25 1.359a.15.15 0 0 0-.246.118v13.586c0 .128.148.199.246.117L8.258 8.53a.34.34 0 0 0 0-.523"/><g clip-path="url(#b)"><path fill="#2c6e7a" d="M1.387.54 12.21 9.526c.176.145.43.145.601 0L23.642.54c.105-.09.043-.266-.098-.266H1.48a.15.15 0 0 0-.093.266"/></g><g clip-path="url(#c)"><path fill="#2c6e7a" d="M24.777 1.36 16.77 8.007a.34.34 0 0 0 0 .523l8.007 6.649a.147.147 0 0 0 .243-.114V1.476c0-.128-.145-.199-.243-.117"/></g><g clip-path="url(#d)"><path fill="#2c6e7a" d="m23.64 16.883-7.855-6.52a.614.614 0 0 0-.789 0l-2.117 1.758a.58.58 0 0 1-.734 0l-2.114-1.758a.62.62 0 0 0-.793 0l-7.851 6.52a.15.15 0 0 0 .093.265h22.063c.14 0 .203-.175.098-.265"/></g><path fill="#2c6e7a" d="M8.258 8.89.25 2.243a.15.15 0 0 0-.246.117v13.586c0 .13.148.2.246.117l8.008-6.648a.34.34 0 0 0 0-.523"/><g clip-path="url(#e)"><path fill="#2c6e7a" d="M1.387 1.422 12.21 10.41c.176.145.43.145.601 0l10.829-8.988c.105-.09.043-.266-.098-.266H1.48a.15.15 0 0 0-.093.266"/></g><g clip-path="url(#f)"><path fill="#2c6e7a" d="M24.777 2.242 16.77 8.891a.34.34 0 0 0 0 .523l8.007 6.649a.147.147 0 0 0 .243-.118V2.36c0-.129-.145-.199-.243-.117"/></g></svg>