<svg xmlns="http://www.w3.org/2000/svg" width="101" height="123" viewBox="0 0 75.75 92.25"><defs><clipPath id="a"><path d="M.25 1.023H75V91H.25Zm0 0"/></clipPath><clipPath id="b"><path d="M.18 0H75v90H.18Zm0 0"/></clipPath></defs><g clip-path="url(#a)"><path fill="#da251d" fill-rule="evenodd" d="M38.508 90.027s-15.32-1.558-26.45-17.011c0 0-6.148-8.942-11.808-13.024 0 0 6.234.09 10.309 3.149 0 0-4.649-4.899.527-19.672 0 0-.098 6.61 2.437 10.593 0 0-1.855-9.23 10.735-20.699 0 0-2.926 8.551 1.758 14.48 0 0-3.614-28.097 22.746-46.761 0 0-10.352 11.871-2.64 20.422 0 0 8.882 11.957 10.054 22.742 0 0 .293 5.055 2.828 6.223 2.539 1.164 7.027-12.344 1.953-24.785 0 0 8.2 5.539 8.977 21.773.78 16.23-.29 19.438-.29 19.438s2.731-1.848 3.122-9.137c0 0 2.636 6.219 1.464 10.887-1.171 4.664-12.394 22.351-35.722 21.382m0 0"/></g><path fill="#e77817" fill-rule="evenodd" d="M38.703 88.469s-11.027-.094-19.226-11.274c0 0-4.293-6.8-7.809-8.746 0 0 3.027-.777 6.734 1.75 0 0-2.535-4.277.391-12.926 0 0 .684 5.344 1.66 6.899 0 0 .098-8.649 7.223-13.703 0 0-1.367 6.804.976 9.136 0 0 .196-23.132 15.227-31.003 0 0-4.883 5.828-3.125 10.687 1.758 4.863 7.125 8.457 7.613 14.871.488 6.418 2.73 7.582 2.73 7.582s5.86-3.789 1.173-16.62c0 0 6.148 4.179 6.05 12.831 0 0 1.27 10.012-1.851 13.508 0 0 3.511 1.168 4.293-4.469 0 0 2.539 5.926-1.66 11.856-4.196 5.93-12.59 9.332-20.399 9.62m0 0"/><path fill="#fff500" fill-rule="evenodd" d="M29.336 67.09s-2.637 7.773 1.562 6.316c4.196-1.457 8.684-17.3 6.149-20.219 0 0 7.023 6.223 4.586 14.97-3.86 13.843 14.074.984 6.637-2.72 5.562 1.083 7.585 12.586 3.609 15.16C40 88.29 12.609 83.09 29.336 67.09m0 0"/><g clip-path="url(#b)"><path fill="#da251d" fill-rule="evenodd" d="M38.441 89.004s-15.324-1.559-26.449-17.012c0 0-6.148-8.941-11.812-13.023 0 0 6.238.09 10.308 3.148 0 0-4.644-4.898.528-19.672 0 0-.098 6.61 2.437 10.594 0 0-1.851-9.23 10.738-20.7 0 0-2.93 8.552 1.754 14.481 0 0-3.613-28.097 22.746-46.761 0 0-10.347 11.87-2.64 20.421 0 0 8.883 11.958 10.054 22.743 0 0 .293 5.054 2.829 6.222 2.539 1.164 7.027-12.343 1.953-24.785 0 0 8.199 5.54 8.98 21.774.781 16.23-.293 19.437-.293 19.437s2.73-1.848 3.121-9.137c0 0 2.637 6.22 1.465 10.887-1.172 4.664-12.394 22.352-35.719 21.383m0 0"/></g><path fill="#e77817" fill-rule="evenodd" d="M38.637 87.445s-11.032-.093-19.227-11.273c0 0-4.297-6.8-7.808-8.746 0 0 3.023-.778 6.734 1.75 0 0-2.54-4.278.39-12.926 0 0 .684 5.344 1.657 6.898 0 0 .097-8.648 7.222-13.703 0 0-1.367 6.805.977 9.137 0 0 .195-23.133 15.227-31.004 0 0-4.88 5.828-3.125 10.692 1.757 4.859 7.125 8.453 7.613 14.867.488 6.418 2.734 7.582 2.734 7.582s5.856-3.79 1.168-16.621c0 0 6.153 4.18 6.055 12.832 0 0 1.266 10.011-1.856 13.508 0 0 3.512 1.167 4.293-4.47 0 0 2.54 5.927-1.66 11.856-4.195 5.93-12.59 9.332-20.394 9.621m0 0"/><path fill="#fff500" fill-rule="evenodd" d="M29.266 66.066s-2.637 7.774 1.562 6.317c4.195-1.457 8.684-17.301 6.149-20.219 0 0 7.027 6.223 4.586 14.969-3.86 13.844 14.074.984 6.636-2.719 5.563 1.082 7.586 12.586 3.614 15.16-11.883 7.692-39.27 2.492-22.547-13.508m0 0"/></svg>