<svg xmlns="http://www.w3.org/2000/svg" width="95" height="113" viewBox="0 0 71.25 84.75"><defs><clipPath id="a"><path d="M.066.316h69.766v83.125H.066Zm0 0"/></clipPath><clipPath id="b"><path d="M0 .316h69.766v83.125H0Zm0 0"/></clipPath></defs><g clip-path="url(#a)"><path fill="#012430" d="M29.379.316a4.733 4.733 0 0 0-4.727 4.727v24.895l-9.304 36.261.023.008c-.11.398-.168.813-.168 1.223a4.73 4.73 0 0 0 4.727 4.726 4.72 4.72 0 0 0 4.636-3.867l5.758-22.598H43.56l-7.332 31.606h.007c-.156.48-.238.976-.238 1.476a4.73 4.73 0 0 0 4.727 4.727 4.72 4.72 0 0 0 4.644-3.898l7.29-31.403 8.042 31.692h.016A4.72 4.72 0 0 0 65.3 83.5a4.73 4.73 0 0 0 4.726-4.727q.001-.61-.156-1.187l-9.547-36.461c-1.265-7.074-7.437-12.45-14.875-12.45H34.105V5.044A4.73 4.73 0 0 0 29.38.316M9.53 23.004a9.45 9.45 0 0 0-9.453 9.453c0 5.219 4.23 9.453 9.453 9.453 5.219 0 9.453-4.234 9.453-9.453 0-5.223-4.234-9.453-9.453-9.453m0 0"/></g><g clip-path="url(#b)"><path fill="#012430" d="M29.316.316a4.73 4.73 0 0 0-4.726 4.727v24.895l-9.305 36.261.02.008c-.11.398-.168.813-.168 1.223a4.73 4.73 0 0 0 4.726 4.726A4.72 4.72 0 0 0 24.5 68.29l5.762-22.598h13.234L36.16 77.297h.008A4.728 4.728 0 0 0 40.66 83.5a4.72 4.72 0 0 0 4.645-3.898l7.289-31.403 8.043 31.692h.011a4.73 4.73 0 0 0 4.586 3.609 4.728 4.728 0 0 0 4.575-5.914l-9.551-36.461c-1.262-7.074-7.438-12.45-14.871-12.45H34.043V5.044A4.733 4.733 0 0 0 29.316.316M9.465 23.004a9.45 9.45 0 0 0-9.453 9.453c0 5.219 4.23 9.453 9.453 9.453s9.453-4.234 9.453-9.453a9.45 9.45 0 0 0-9.453-9.453m0 0"/></g></svg>