<svg xmlns="http://www.w3.org/2000/svg" width="102" height="102" viewBox="0 0 76.5 76.5"><path fill="#d5ba2b" d="M73.328 7.332h-7.336a2.446 2.446 0 0 0-2.441 2.445v9.778h-3.473c-1.316-3-3.8-5.364-6.871-6.532a9.9 9.9 0 0 0 .566-3.246c0-5.39-4.386-9.777-9.777-9.777a9.7 9.7 0 0 0-6.11 2.152A9.7 9.7 0 0 0 31.774 0c-5.39 0-9.777 4.387-9.777 9.777 0 1.11.203 2.207.57 3.246a12.28 12.28 0 0 0-6.875 6.532h-3.468V9.777a2.45 2.45 0 0 0-2.446-2.445H2.445A2.45 2.45 0 0 0 0 9.777v29.328a2.446 2.446 0 0 0 2.445 2.446h7.332a2.446 2.446 0 0 0 2.446-2.446v-9.773h3.468a12.29 12.29 0 0 0 6.875 6.527 9.8 9.8 0 0 0-.57 3.246c0 .848.121 1.665.324 2.446h-2.765a2.45 2.45 0 0 0-2.446 2.445h-2.445a2.446 2.446 0 0 0-2.441 2.445v24.442a2.446 2.446 0 0 0 2.441 2.445h17.828l.356.356a7.17 7.17 0 0 0 5.039 2.086 7.16 7.16 0 0 0 5.035-2.086l.36-.356h17.823a2.45 2.45 0 0 0 2.446-2.445V46.44a2.45 2.45 0 0 0-2.446-2.445H58.66a2.446 2.446 0 0 0-2.445-2.445h-2.766a9.7 9.7 0 0 0 .324-2.446 9.9 9.9 0 0 0-.566-3.246 12.3 12.3 0 0 0 6.871-6.527h3.473v9.773a2.443 2.443 0 0 0 2.441 2.446h7.336a2.443 2.443 0 0 0 2.442-2.446V9.777a2.446 2.446 0 0 0-2.442-2.445M2.445 39.105V9.777h7.332v29.328Zm9.778-12.218v-4.89h2.687a12.3 12.3 0 0 0 0 4.89Zm14.664 9.777h2.445V34.22h-2.445c-5.39 0-9.778-4.387-9.778-9.778 0-5.39 4.387-9.777 9.778-9.777h.21c1.903 0 3.692.742 5.036 2.086l1.726-1.727a9.7 9.7 0 0 0-2.09-1.582 9.6 9.6 0 0 0 2.09-1.578l-1.726-1.726a7.08 7.08 0 0 1-5.035 2.086h-.211c-.672 0-1.325.066-1.965.172a7.2 7.2 0 0 1-.48-2.618c0-4.043 3.288-7.332 7.331-7.332 1.829 0 3.543.668 4.891 1.88v40.238a7.3 7.3 0 0 1-4.89 1.878c-4.044 0-7.333-3.289-7.333-7.336 0-.894.164-1.785.48-2.613a12.5 12.5 0 0 0 1.966.172m-7.332 7.332h3.765c1.696 2.918 4.844 4.887 8.453 4.887 1.75 0 3.418-.461 4.891-1.317V67.22a9.54 9.54 0 0 0-4.68-1.227h-12.43ZM58.66 65.992v-19.55h2.445v24.44H42.27l-1.075 1.075a4.72 4.72 0 0 1-3.308 1.371c-1.235 0-2.438-.5-3.309-1.371l-1.074-1.074h-18.84V46.44h2.445v19.551a2.45 2.45 0 0 0 2.446 2.445h12.43c1.902 0 3.69.743 5.035 2.086l.867.868.863-.868a7.08 7.08 0 0 1 5.035-2.085h12.43a2.446 2.446 0 0 0 2.445-2.446m-2.445-21.996v21.996h-12.43a9.5 9.5 0 0 0-4.68 1.23V47.567a9.7 9.7 0 0 0 4.891 1.317c3.61 0 6.762-1.969 8.453-4.887Zm-7.332-9.777H46.44v2.445h2.442a12.5 12.5 0 0 0 1.965-.172c.32.828.48 1.703.48 2.613 0 4.047-3.289 7.336-7.332 7.336a7.3 7.3 0 0 1-4.89-1.879V4.313a7.28 7.28 0 0 1 4.89-1.867c4.043 0 7.332 3.29 7.332 7.332 0 .91-.16 1.786-.48 2.618a12 12 0 0 0-1.965-.172h-.207a7.08 7.08 0 0 1-5.04-2.086l-1.726 1.726A9.6 9.6 0 0 0 44 13.441a9.7 9.7 0 0 0-2.09 1.582l1.727 1.727a7.09 7.09 0 0 1 5.039-2.086h.207c5.39 0 9.777 4.387 9.777 9.777 0 5.391-4.387 9.778-9.777 9.778m11.976-7.332a12.3 12.3 0 0 0 0-4.89h2.692v4.89Zm12.47 12.218h-7.337V9.777h7.336Zm0 0"/><path fill="#d5ba2b" d="M29.332 30.55a4.89 4.89 0 0 1 4.887-4.886V23.22a7.25 7.25 0 0 0-3.61.96c-1.332-2.074-3.64-3.402-6.168-3.402v2.442c1.782 0 3.418.984 4.27 2.508a7.3 7.3 0 0 0-1.824 4.824v1.222h2.445ZM45.16 24.18a7.25 7.25 0 0 0-3.61-.961v2.445a4.895 4.895 0 0 1 4.891 4.887v1.222h2.442v-1.222a7.3 7.3 0 0 0-1.824-4.824 4.92 4.92 0 0 1 4.27-2.508v-2.442c-2.524 0-4.837 1.328-6.169 3.403M21.996 61.105H34.22v2.446H21.996ZM21.996 56.215H34.22v2.445H21.996ZM21.996 51.328H34.22v2.445H21.996ZM41.55 51.328h2.446v2.445h-2.445ZM46.441 51.328h7.332v2.445h-7.332ZM41.55 56.215h12.223v2.445H41.551ZM41.55 61.105h12.223v2.446H41.551Zm0 0"/><path fill="#d5ba2b" d="M73.328 7.332h-7.336a2.446 2.446 0 0 0-2.441 2.445v9.778h-3.473c-1.316-3-3.8-5.364-6.871-6.532a9.9 9.9 0 0 0 .566-3.246c0-5.39-4.386-9.777-9.777-9.777a9.7 9.7 0 0 0-6.11 2.152A9.7 9.7 0 0 0 31.774 0c-5.39 0-9.777 4.387-9.777 9.777 0 1.11.203 2.207.57 3.246a12.28 12.28 0 0 0-6.875 6.532h-3.468V9.777a2.45 2.45 0 0 0-2.446-2.445H2.445A2.45 2.45 0 0 0 0 9.777v29.328a2.446 2.446 0 0 0 2.445 2.446h7.332a2.446 2.446 0 0 0 2.446-2.446v-9.773h3.468a12.29 12.29 0 0 0 6.875 6.527 9.8 9.8 0 0 0-.57 3.246c0 .848.121 1.665.324 2.446h-2.765a2.45 2.45 0 0 0-2.446 2.445h-2.445a2.446 2.446 0 0 0-2.441 2.445v24.442a2.446 2.446 0 0 0 2.441 2.445h17.828l.356.356a7.17 7.17 0 0 0 5.039 2.086 7.16 7.16 0 0 0 5.035-2.086l.36-.356h17.823a2.45 2.45 0 0 0 2.446-2.445V46.44a2.45 2.45 0 0 0-2.446-2.445H58.66a2.446 2.446 0 0 0-2.445-2.445h-2.766a9.7 9.7 0 0 0 .324-2.446 9.9 9.9 0 0 0-.566-3.246 12.3 12.3 0 0 0 6.871-6.527h3.473v9.773a2.443 2.443 0 0 0 2.441 2.446h7.336a2.443 2.443 0 0 0 2.442-2.446V9.777a2.446 2.446 0 0 0-2.442-2.445M2.445 39.105V9.777h7.332v29.328Zm9.778-12.218v-4.89h2.687a12.3 12.3 0 0 0 0 4.89Zm14.664 9.777h2.445V34.22h-2.445c-5.39 0-9.778-4.387-9.778-9.778 0-5.39 4.387-9.777 9.778-9.777h.21c1.903 0 3.692.742 5.036 2.086l1.726-1.727a9.7 9.7 0 0 0-2.09-1.582 9.6 9.6 0 0 0 2.09-1.578l-1.726-1.726a7.08 7.08 0 0 1-5.035 2.086h-.211c-.672 0-1.325.066-1.965.172a7.2 7.2 0 0 1-.48-2.618c0-4.043 3.288-7.332 7.331-7.332 1.829 0 3.543.668 4.891 1.88v40.238a7.3 7.3 0 0 1-4.89 1.878c-4.044 0-7.333-3.289-7.333-7.336 0-.894.164-1.785.48-2.613a12.5 12.5 0 0 0 1.966.172m-7.332 7.332h3.765c1.696 2.918 4.844 4.887 8.453 4.887 1.75 0 3.418-.461 4.891-1.317V67.22a9.54 9.54 0 0 0-4.68-1.227h-12.43ZM58.66 65.992v-19.55h2.445v24.44H42.27l-1.075 1.075a4.72 4.72 0 0 1-3.308 1.371c-1.235 0-2.438-.5-3.309-1.371l-1.074-1.074h-18.84V46.44h2.445v19.551a2.45 2.45 0 0 0 2.446 2.445h12.43c1.902 0 3.69.743 5.035 2.086l.867.868.863-.868a7.08 7.08 0 0 1 5.035-2.085h12.43a2.446 2.446 0 0 0 2.445-2.446m-2.445-21.996v21.996h-12.43a9.5 9.5 0 0 0-4.68 1.23V47.567a9.7 9.7 0 0 0 4.891 1.317c3.61 0 6.762-1.969 8.453-4.887Zm-7.332-9.777H46.44v2.445h2.442a12.5 12.5 0 0 0 1.965-.172c.32.828.48 1.703.48 2.613 0 4.047-3.289 7.336-7.332 7.336a7.3 7.3 0 0 1-4.89-1.879V4.313a7.28 7.28 0 0 1 4.89-1.867c4.043 0 7.332 3.29 7.332 7.332 0 .91-.16 1.786-.48 2.618a12 12 0 0 0-1.965-.172h-.207a7.08 7.08 0 0 1-5.04-2.086l-1.726 1.726A9.6 9.6 0 0 0 44 13.441a9.7 9.7 0 0 0-2.09 1.582l1.727 1.727a7.09 7.09 0 0 1 5.039-2.086h.207c5.39 0 9.777 4.387 9.777 9.777 0 5.391-4.387 9.778-9.777 9.778m11.976-7.332a12.3 12.3 0 0 0 0-4.89h2.692v4.89Zm12.47 12.218h-7.337V9.777h7.336Zm0 0"/><path fill="#d5ba2b" d="M29.332 30.55a4.89 4.89 0 0 1 4.887-4.886V23.22a7.25 7.25 0 0 0-3.61.96c-1.332-2.074-3.64-3.402-6.168-3.402v2.442c1.782 0 3.418.984 4.27 2.508a7.3 7.3 0 0 0-1.824 4.824v1.222h2.445ZM45.16 24.18a7.25 7.25 0 0 0-3.61-.961v2.445a4.895 4.895 0 0 1 4.891 4.887v1.222h2.442v-1.222a7.3 7.3 0 0 0-1.824-4.824 4.92 4.92 0 0 1 4.27-2.508v-2.442c-2.524 0-4.837 1.328-6.169 3.403M21.996 61.105H34.22v2.446H21.996ZM21.996 56.215H34.22v2.445H21.996ZM21.996 51.328H34.22v2.445H21.996ZM41.55 51.328h2.446v2.445h-2.445ZM46.441 51.328h7.332v2.445h-7.332ZM41.55 56.215h12.223v2.445H41.551ZM41.55 61.105h12.223v2.446H41.551Zm0 0"/></svg>