<svg xmlns="http://www.w3.org/2000/svg" xmlns:xlink="http://www.w3.org/1999/xlink" width="102" zoomAndPan="magnify" viewBox="0 0 76.5 76.499999" height="102" preserveAspectRatio="xMidYMid meet" version="1.0"><path fill="#d5ba2b" d="M 73.328125 7.332031 L 65.992188 7.332031 C 64.644531 7.332031 63.550781 8.429688 63.550781 9.777344 L 63.550781 19.554688 L 60.078125 19.554688 C 58.761719 16.554688 56.277344 14.191406 53.207031 13.023438 C 53.570312 11.984375 53.773438 10.886719 53.773438 9.777344 C 53.773438 4.386719 49.386719 0 43.996094 0 C 41.742188 0 39.613281 0.761719 37.886719 2.152344 C 36.15625 0.761719 34.03125 0 31.773438 0 C 26.382812 0 21.996094 4.386719 21.996094 9.777344 C 21.996094 10.886719 22.199219 11.984375 22.566406 13.023438 C 19.492188 14.191406 17.007812 16.554688 15.691406 19.554688 L 12.222656 19.554688 L 12.222656 9.777344 C 12.222656 8.429688 11.125 7.332031 9.777344 7.332031 L 2.445312 7.332031 C 1.097656 7.332031 0 8.429688 0 9.777344 L 0 39.105469 C 0 40.457031 1.097656 41.550781 2.445312 41.550781 L 9.777344 41.550781 C 11.125 41.550781 12.222656 40.457031 12.222656 39.105469 L 12.222656 29.332031 L 15.691406 29.332031 C 17.007812 32.328125 19.492188 34.691406 22.566406 35.859375 C 22.199219 36.898438 21.996094 37.996094 21.996094 39.105469 C 21.996094 39.953125 22.117188 40.769531 22.320312 41.550781 L 19.554688 41.550781 C 18.207031 41.550781 17.109375 42.648438 17.109375 43.996094 L 14.664062 43.996094 C 13.316406 43.996094 12.222656 45.09375 12.222656 46.441406 L 12.222656 70.882812 C 12.222656 72.230469 13.316406 73.328125 14.664062 73.328125 L 32.492188 73.328125 L 32.847656 73.683594 C 34.175781 75.011719 36.011719 75.769531 37.886719 75.769531 C 39.761719 75.769531 41.59375 75.011719 42.921875 73.683594 L 43.28125 73.328125 L 61.105469 73.328125 C 62.453125 73.328125 63.550781 72.230469 63.550781 70.882812 L 63.550781 46.441406 C 63.550781 45.09375 62.453125 43.996094 61.105469 43.996094 L 58.660156 43.996094 C 58.660156 42.648438 57.566406 41.550781 56.214844 41.550781 L 53.449219 41.550781 C 53.652344 40.769531 53.773438 39.953125 53.773438 39.105469 C 53.773438 38 53.570312 36.898438 53.207031 35.859375 C 56.277344 34.691406 58.761719 32.328125 60.078125 29.332031 L 63.550781 29.332031 L 63.550781 39.105469 C 63.550781 40.457031 64.644531 41.550781 65.992188 41.550781 L 73.328125 41.550781 C 74.675781 41.550781 75.769531 40.457031 75.769531 39.105469 L 75.769531 9.777344 C 75.769531 8.429688 74.675781 7.332031 73.328125 7.332031 Z M 2.445312 39.105469 L 2.445312 9.777344 L 9.777344 9.777344 L 9.777344 39.105469 Z M 12.222656 26.886719 L 12.222656 21.996094 L 14.910156 21.996094 C 14.75 22.789062 14.664062 23.605469 14.664062 24.441406 C 14.664062 25.277344 14.75 26.097656 14.910156 26.886719 Z M 26.886719 36.664062 L 29.332031 36.664062 L 29.332031 34.21875 L 26.886719 34.21875 C 21.496094 34.21875 17.109375 29.832031 17.109375 24.441406 C 17.109375 19.050781 21.496094 14.664062 26.886719 14.664062 L 27.097656 14.664062 C 29 14.664062 30.789062 15.40625 32.132812 16.75 L 33.859375 15.023438 C 33.230469 14.394531 32.523438 13.867188 31.769531 13.441406 C 32.523438 13.019531 33.230469 12.492188 33.859375 11.863281 L 32.132812 10.136719 C 30.789062 11.480469 29 12.222656 27.097656 12.222656 L 26.886719 12.222656 C 26.214844 12.222656 25.5625 12.289062 24.921875 12.394531 C 24.601562 11.5625 24.441406 10.6875 24.441406 9.777344 C 24.441406 5.734375 27.730469 2.445312 31.773438 2.445312 C 33.601562 2.445312 35.316406 3.113281 36.664062 4.324219 L 36.664062 44.5625 C 35.316406 45.769531 33.601562 46.441406 31.773438 46.441406 C 27.730469 46.441406 24.441406 43.152344 24.441406 39.105469 C 24.441406 38.210938 24.605469 37.320312 24.921875 36.492188 C 25.5625 36.59375 26.214844 36.664062 26.886719 36.664062 Z M 19.554688 43.996094 L 23.320312 43.996094 C 25.015625 46.914062 28.164062 48.882812 31.773438 48.882812 C 33.523438 48.882812 35.191406 48.421875 36.664062 47.566406 L 36.664062 67.21875 C 35.25 66.425781 33.652344 65.992188 31.984375 65.992188 L 19.554688 65.992188 Z M 58.660156 65.992188 L 58.660156 46.441406 L 61.105469 46.441406 L 61.105469 70.882812 L 42.269531 70.882812 L 41.195312 71.957031 C 40.320312 72.828125 39.117188 73.328125 37.886719 73.328125 C 36.652344 73.328125 35.449219 72.828125 34.578125 71.957031 L 33.503906 70.882812 L 14.664062 70.882812 L 14.664062 46.441406 L 17.109375 46.441406 L 17.109375 65.992188 C 17.109375 67.339844 18.207031 68.4375 19.554688 68.4375 L 31.984375 68.4375 C 33.886719 68.4375 35.675781 69.179688 37.019531 70.523438 L 37.886719 71.390625 L 38.75 70.523438 C 40.09375 69.179688 41.882812 68.4375 43.785156 68.4375 L 56.214844 68.4375 C 57.566406 68.4375 58.660156 67.339844 58.660156 65.992188 Z M 56.214844 43.996094 L 56.214844 65.992188 L 43.785156 65.992188 C 42.117188 65.992188 40.519531 66.425781 39.105469 67.222656 L 39.105469 47.566406 C 40.578125 48.421875 42.246094 48.882812 43.996094 48.882812 C 47.605469 48.882812 50.757812 46.914062 52.449219 43.996094 Z M 48.882812 34.21875 L 46.441406 34.21875 L 46.441406 36.664062 L 48.882812 36.664062 C 49.554688 36.664062 50.207031 36.59375 50.847656 36.492188 C 51.167969 37.320312 51.328125 38.195312 51.328125 39.105469 C 51.328125 43.152344 48.039062 46.441406 43.996094 46.441406 C 42.167969 46.441406 40.453125 45.769531 39.105469 44.5625 L 39.105469 4.3125 C 40.453125 3.105469 42.171875 2.445312 43.996094 2.445312 C 48.039062 2.445312 51.328125 5.734375 51.328125 9.777344 C 51.328125 10.6875 51.167969 11.5625 50.847656 12.394531 C 50.207031 12.289062 49.554688 12.222656 48.882812 12.222656 L 48.675781 12.222656 C 46.769531 12.222656 44.980469 11.480469 43.636719 10.136719 L 41.910156 11.863281 C 42.539062 12.492188 43.246094 13.019531 44 13.441406 C 43.246094 13.867188 42.539062 14.394531 41.910156 15.023438 L 43.636719 16.75 C 44.984375 15.40625 46.769531 14.664062 48.675781 14.664062 L 48.882812 14.664062 C 54.273438 14.664062 58.660156 19.050781 58.660156 24.441406 C 58.660156 29.832031 54.273438 34.21875 48.882812 34.21875 Z M 60.859375 26.886719 C 61.019531 26.097656 61.105469 25.277344 61.105469 24.441406 C 61.105469 23.605469 61.019531 22.789062 60.859375 21.996094 L 63.550781 21.996094 L 63.550781 26.886719 Z M 73.328125 39.105469 L 65.992188 39.105469 L 65.992188 9.777344 L 73.328125 9.777344 Z M 73.328125 39.105469 " fill-opacity="1" fill-rule="nonzero"/><path fill="#d5ba2b" d="M 29.332031 30.550781 C 29.332031 27.855469 31.523438 25.664062 34.21875 25.664062 L 34.21875 23.21875 C 32.90625 23.21875 31.675781 23.570312 30.609375 24.179688 C 29.277344 22.105469 26.96875 20.777344 24.441406 20.777344 L 24.441406 23.21875 C 26.222656 23.21875 27.859375 24.203125 28.710938 25.726562 C 27.578125 27.019531 26.886719 28.703125 26.886719 30.550781 L 26.886719 31.773438 L 29.332031 31.773438 Z M 29.332031 30.550781 " fill-opacity="1" fill-rule="nonzero"/><path fill="#d5ba2b" d="M 45.160156 24.179688 C 44.09375 23.570312 42.863281 23.21875 41.550781 23.21875 L 41.550781 25.664062 C 44.246094 25.664062 46.441406 27.855469 46.441406 30.550781 L 46.441406 31.773438 L 48.882812 31.773438 L 48.882812 30.550781 C 48.882812 28.703125 48.191406 27.019531 47.058594 25.726562 C 47.914062 24.203125 49.546875 23.21875 51.328125 23.21875 L 51.328125 20.777344 C 48.804688 20.777344 46.492188 22.105469 45.160156 24.179688 Z M 45.160156 24.179688 " fill-opacity="1" fill-rule="nonzero"/><path fill="#d5ba2b" d="M 21.996094 61.105469 L 34.21875 61.105469 L 34.21875 63.550781 L 21.996094 63.550781 Z M 21.996094 61.105469 " fill-opacity="1" fill-rule="nonzero"/><path fill="#d5ba2b" d="M 21.996094 56.214844 L 34.21875 56.214844 L 34.21875 58.660156 L 21.996094 58.660156 Z M 21.996094 56.214844 " fill-opacity="1" fill-rule="nonzero"/><path fill="#d5ba2b" d="M 21.996094 51.328125 L 34.21875 51.328125 L 34.21875 53.773438 L 21.996094 53.773438 Z M 21.996094 51.328125 " fill-opacity="1" fill-rule="nonzero"/><path fill="#d5ba2b" d="M 41.550781 51.328125 L 43.996094 51.328125 L 43.996094 53.773438 L 41.550781 53.773438 Z M 41.550781 51.328125 " fill-opacity="1" fill-rule="nonzero"/><path fill="#d5ba2b" d="M 46.441406 51.328125 L 53.773438 51.328125 L 53.773438 53.773438 L 46.441406 53.773438 Z M 46.441406 51.328125 " fill-opacity="1" fill-rule="nonzero"/><path fill="#d5ba2b" d="M 41.550781 56.214844 L 53.773438 56.214844 L 53.773438 58.660156 L 41.550781 58.660156 Z M 41.550781 56.214844 " fill-opacity="1" fill-rule="nonzero"/><path fill="#d5ba2b" d="M 41.550781 61.105469 L 53.773438 61.105469 L 53.773438 63.550781 L 41.550781 63.550781 Z M 41.550781 61.105469 " fill-opacity="1" fill-rule="nonzero"/><path fill="#d5ba2b" d="M 73.328125 7.332031 L 65.992188 7.332031 C 64.644531 7.332031 63.550781 8.429688 63.550781 9.777344 L 63.550781 19.554688 L 60.078125 19.554688 C 58.761719 16.554688 56.277344 14.191406 53.207031 13.023438 C 53.570312 11.984375 53.773438 10.886719 53.773438 9.777344 C 53.773438 4.386719 49.386719 0 43.996094 0 C 41.742188 0 39.613281 0.761719 37.886719 2.152344 C 36.15625 0.761719 34.03125 0 31.773438 0 C 26.382812 0 21.996094 4.386719 21.996094 9.777344 C 21.996094 10.886719 22.199219 11.984375 22.566406 13.023438 C 19.492188 14.191406 17.007812 16.554688 15.691406 19.554688 L 12.222656 19.554688 L 12.222656 9.777344 C 12.222656 8.429688 11.125 7.332031 9.777344 7.332031 L 2.445312 7.332031 C 1.097656 7.332031 0 8.429688 0 9.777344 L 0 39.105469 C 0 40.457031 1.097656 41.550781 2.445312 41.550781 L 9.777344 41.550781 C 11.125 41.550781 12.222656 40.457031 12.222656 39.105469 L 12.222656 29.332031 L 15.691406 29.332031 C 17.007812 32.328125 19.492188 34.691406 22.566406 35.859375 C 22.199219 36.898438 21.996094 37.996094 21.996094 39.105469 C 21.996094 39.953125 22.117188 40.769531 22.320312 41.550781 L 19.554688 41.550781 C 18.207031 41.550781 17.109375 42.648438 17.109375 43.996094 L 14.664062 43.996094 C 13.316406 43.996094 12.222656 45.09375 12.222656 46.441406 L 12.222656 70.882812 C 12.222656 72.230469 13.316406 73.328125 14.664062 73.328125 L 32.492188 73.328125 L 32.847656 73.683594 C 34.175781 75.011719 36.011719 75.769531 37.886719 75.769531 C 39.761719 75.769531 41.59375 75.011719 42.921875 73.683594 L 43.28125 73.328125 L 61.105469 73.328125 C 62.453125 73.328125 63.550781 72.230469 63.550781 70.882812 L 63.550781 46.441406 C 63.550781 45.09375 62.453125 43.996094 61.105469 43.996094 L 58.660156 43.996094 C 58.660156 42.648438 57.566406 41.550781 56.214844 41.550781 L 53.449219 41.550781 C 53.652344 40.769531 53.773438 39.953125 53.773438 39.105469 C 53.773438 38 53.570312 36.898438 53.207031 35.859375 C 56.277344 34.691406 58.761719 32.328125 60.078125 29.332031 L 63.550781 29.332031 L 63.550781 39.105469 C 63.550781 40.457031 64.644531 41.550781 65.992188 41.550781 L 73.328125 41.550781 C 74.675781 41.550781 75.769531 40.457031 75.769531 39.105469 L 75.769531 9.777344 C 75.769531 8.429688 74.675781 7.332031 73.328125 7.332031 Z M 2.445312 39.105469 L 2.445312 9.777344 L 9.777344 9.777344 L 9.777344 39.105469 Z M 12.222656 26.886719 L 12.222656 21.996094 L 14.910156 21.996094 C 14.75 22.789062 14.664062 23.605469 14.664062 24.441406 C 14.664062 25.277344 14.75 26.097656 14.910156 26.886719 Z M 26.886719 36.664062 L 29.332031 36.664062 L 29.332031 34.21875 L 26.886719 34.21875 C 21.496094 34.21875 17.109375 29.832031 17.109375 24.441406 C 17.109375 19.050781 21.496094 14.664062 26.886719 14.664062 L 27.097656 14.664062 C 29 14.664062 30.789062 15.40625 32.132812 16.75 L 33.859375 15.023438 C 33.230469 14.394531 32.523438 13.867188 31.769531 13.441406 C 32.523438 13.019531 33.230469 12.492188 33.859375 11.863281 L 32.132812 10.136719 C 30.789062 11.480469 29 12.222656 27.097656 12.222656 L 26.886719 12.222656 C 26.214844 12.222656 25.5625 12.289062 24.921875 12.394531 C 24.601562 11.5625 24.441406 10.6875 24.441406 9.777344 C 24.441406 5.734375 27.730469 2.445312 31.773438 2.445312 C 33.601562 2.445312 35.316406 3.113281 36.664062 4.324219 L 36.664062 44.5625 C 35.316406 45.769531 33.601562 46.441406 31.773438 46.441406 C 27.730469 46.441406 24.441406 43.152344 24.441406 39.105469 C 24.441406 38.210938 24.605469 37.320312 24.921875 36.492188 C 25.5625 36.59375 26.214844 36.664062 26.886719 36.664062 Z M 19.554688 43.996094 L 23.320312 43.996094 C 25.015625 46.914062 28.164062 48.882812 31.773438 48.882812 C 33.523438 48.882812 35.191406 48.421875 36.664062 47.566406 L 36.664062 67.21875 C 35.25 66.425781 33.652344 65.992188 31.984375 65.992188 L 19.554688 65.992188 Z M 58.660156 65.992188 L 58.660156 46.441406 L 61.105469 46.441406 L 61.105469 70.882812 L 42.269531 70.882812 L 41.195312 71.957031 C 40.320312 72.828125 39.117188 73.328125 37.886719 73.328125 C 36.652344 73.328125 35.449219 72.828125 34.578125 71.957031 L 33.503906 70.882812 L 14.664062 70.882812 L 14.664062 46.441406 L 17.109375 46.441406 L 17.109375 65.992188 C 17.109375 67.339844 18.207031 68.4375 19.554688 68.4375 L 31.984375 68.4375 C 33.886719 68.4375 35.675781 69.179688 37.019531 70.523438 L 37.886719 71.390625 L 38.75 70.523438 C 40.09375 69.179688 41.882812 68.4375 43.785156 68.4375 L 56.214844 68.4375 C 57.566406 68.4375 58.660156 67.339844 58.660156 65.992188 Z M 56.214844 43.996094 L 56.214844 65.992188 L 43.785156 65.992188 C 42.117188 65.992188 40.519531 66.425781 39.105469 67.222656 L 39.105469 47.566406 C 40.578125 48.421875 42.246094 48.882812 43.996094 48.882812 C 47.605469 48.882812 50.757812 46.914062 52.449219 43.996094 Z M 48.882812 34.21875 L 46.441406 34.21875 L 46.441406 36.664062 L 48.882812 36.664062 C 49.554688 36.664062 50.207031 36.59375 50.847656 36.492188 C 51.167969 37.320312 51.328125 38.195312 51.328125 39.105469 C 51.328125 43.152344 48.039062 46.441406 43.996094 46.441406 C 42.167969 46.441406 40.453125 45.769531 39.105469 44.5625 L 39.105469 4.3125 C 40.453125 3.105469 42.171875 2.445312 43.996094 2.445312 C 48.039062 2.445312 51.328125 5.734375 51.328125 9.777344 C 51.328125 10.6875 51.167969 11.5625 50.847656 12.394531 C 50.207031 12.289062 49.554688 12.222656 48.882812 12.222656 L 48.675781 12.222656 C 46.769531 12.222656 44.980469 11.480469 43.636719 10.136719 L 41.910156 11.863281 C 42.539062 12.492188 43.246094 13.019531 44 13.441406 C 43.246094 13.867188 42.539062 14.394531 41.910156 15.023438 L 43.636719 16.75 C 44.984375 15.40625 46.769531 14.664062 48.675781 14.664062 L 48.882812 14.664062 C 54.273438 14.664062 58.660156 19.050781 58.660156 24.441406 C 58.660156 29.832031 54.273438 34.21875 48.882812 34.21875 Z M 60.859375 26.886719 C 61.019531 26.097656 61.105469 25.277344 61.105469 24.441406 C 61.105469 23.605469 61.019531 22.789062 60.859375 21.996094 L 63.550781 21.996094 L 63.550781 26.886719 Z M 73.328125 39.105469 L 65.992188 39.105469 L 65.992188 9.777344 L 73.328125 9.777344 Z M 73.328125 39.105469 " fill-opacity="1" fill-rule="nonzero"/><path fill="#d5ba2b" d="M 29.332031 30.550781 C 29.332031 27.855469 31.523438 25.664062 34.21875 25.664062 L 34.21875 23.21875 C 32.90625 23.21875 31.675781 23.570312 30.609375 24.179688 C 29.277344 22.105469 26.96875 20.777344 24.441406 20.777344 L 24.441406 23.21875 C 26.222656 23.21875 27.859375 24.203125 28.710938 25.726562 C 27.578125 27.019531 26.886719 28.703125 26.886719 30.550781 L 26.886719 31.773438 L 29.332031 31.773438 Z M 29.332031 30.550781 " fill-opacity="1" fill-rule="nonzero"/><path fill="#d5ba2b" d="M 45.160156 24.179688 C 44.09375 23.570312 42.863281 23.21875 41.550781 23.21875 L 41.550781 25.664062 C 44.246094 25.664062 46.441406 27.855469 46.441406 30.550781 L 46.441406 31.773438 L 48.882812 31.773438 L 48.882812 30.550781 C 48.882812 28.703125 48.191406 27.019531 47.058594 25.726562 C 47.914062 24.203125 49.546875 23.21875 51.328125 23.21875 L 51.328125 20.777344 C 48.804688 20.777344 46.492188 22.105469 45.160156 24.179688 Z M 45.160156 24.179688 " fill-opacity="1" fill-rule="nonzero"/><path fill="#d5ba2b" d="M 21.996094 61.105469 L 34.21875 61.105469 L 34.21875 63.550781 L 21.996094 63.550781 Z M 21.996094 61.105469 " fill-opacity="1" fill-rule="nonzero"/><path fill="#d5ba2b" d="M 21.996094 56.214844 L 34.21875 56.214844 L 34.21875 58.660156 L 21.996094 58.660156 Z M 21.996094 56.214844 " fill-opacity="1" fill-rule="nonzero"/><path fill="#d5ba2b" d="M 21.996094 51.328125 L 34.21875 51.328125 L 34.21875 53.773438 L 21.996094 53.773438 Z M 21.996094 51.328125 " fill-opacity="1" fill-rule="nonzero"/><path fill="#d5ba2b" d="M 41.550781 51.328125 L 43.996094 51.328125 L 43.996094 53.773438 L 41.550781 53.773438 Z M 41.550781 51.328125 " fill-opacity="1" fill-rule="nonzero"/><path fill="#d5ba2b" d="M 46.441406 51.328125 L 53.773438 51.328125 L 53.773438 53.773438 L 46.441406 53.773438 Z M 46.441406 51.328125 " fill-opacity="1" fill-rule="nonzero"/><path fill="#d5ba2b" d="M 41.550781 56.214844 L 53.773438 56.214844 L 53.773438 58.660156 L 41.550781 58.660156 Z M 41.550781 56.214844 " fill-opacity="1" fill-rule="nonzero"/><path fill="#d5ba2b" d="M 41.550781 61.105469 L 53.773438 61.105469 L 53.773438 63.550781 L 41.550781 63.550781 Z M 41.550781 61.105469 " fill-opacity="1" fill-rule="nonzero"/></svg>