<svg xmlns="http://www.w3.org/2000/svg" width="82" height="43" viewBox="0 0 61.5 32.25"><path fill="#d5ba2b" fill-rule="evenodd" d="M34.648 2.152c2.172-.035 3.985.184 5.5.805.348.145.672.246.977.406.121.059.27.09.328.211h.02v.016H41.3c-.149-.094-.387-.063-.578-.113-.36-.098-.801-.16-1.188-.25l-.594-.04c-.586-.124-1.914-.175-2.53-.035-.368.082-.747.024-1.095.114-.43.109-.879.148-1.3.289-.547.175-1.11.343-1.614.554-.523.223-1.035.41-1.492.692-.172.101-.453.176-.46.437q.012.01.019.02c.367.031.718-.094 1.015-.192.344-.109.72-.152 1.055-.246.297-.086.617-.09.898-.156l.422-.02c.778-.167 2.207-.113 2.914.079.395.105 1.254.187 1.438.46.008.02.016.008 0 .02-.211.172-.98-.02-1.32.055-.168.039-.399 0-.575.039-.586.137-1.246.129-1.804.308-.582.188-1.18.31-1.723.536-1.27.527-2.422 1.14-3.473 1.879-.484.34-.925.738-1.398 1.093-.266.2-.355.516-.824.516-.067-.059-.16-.082-.23-.133-.302-.219-.59-.457-.958-.613-.187-.078-.523-.098-.593-.29-.125-.14-.125-.632-.196-.843a3.4 3.4 0 0 0-.535-.977c-.133-.175-.336-.23-.344-.535.082-.062.145-.168.23-.23.489-.363.997-.73 1.512-1.055 1.36-.86 2.88-1.52 4.543-2.07.84-.278 1.739-.371 2.649-.574h.191l.844-.137c.133-.027.34.043.441-.02M20.824 6.027c1.492-.023 2.77.426 3.395 1.266.238.324.554.73.515 1.266-.043.027-.078.078-.132.093-.11.032-.325 0-.403-.02-.164-.034-.719.04-.863.079-.64.172-1.125.488-1.688.726-.18.079-.8.153-.863.31-.027.05.004.073.02.132.988.508 2.027-.223 2.82-.48.41-.133 1.121-.098 1.512.019.215.066.418.074.613.156.629.254 1.137.63 1.477 1.168.257.406.414.91.558 1.418.082.305.082.625.152.942.07.308.012.64.079.937v.383c.05.25.054 1.074 0 1.324-.059.25.007.524-.04.746q-.012.21-.019.422-.098.761-.191 1.516c-.106.398-.16.824-.29 1.207-.382 1.136-1.07 2.09-2.128 2.55-.52.227-1.13.313-1.743.461l-.73.055c-.535.117-1.535.102-2.05-.015a25 25 0 0 0-.536-.04c-.453-.109-.945-.148-1.383-.289a22 22 0 0 1-2.09-.785c-.375-.164-1.066-.453-1.28-.75-.348-.472-.434-1.394-.614-2.05-.29-1.024-.348-2.2-.348-3.508 0-.664-.031-1.352.098-1.918q.007-.182.02-.364c.058-.261.074-.566.132-.824.082-.344.051-.64.133-.976.14-.551.258-1.09.52-1.516.832-1.367 1.996-2.516 3.527-3.184.363-.156.758-.246 1.168-.363.129-.035.574-.043.652-.094m16.969 0c.371-.007.852-.062 1.187.02.372.09.774.148 1.11.285 1.824.754 3.453 2.04 4.2 3.856.23.558.284 1.242.44 1.878.075.297.051.618.118.899.062.273.015.578.074.844l.039.843c.05.235.07.77.02.996-.04.176.015.407-.02.559v.305c-.078.34-.012.722-.098 1.074-.058.262-.058.55-.133.824-.148.547-.273 1.125-.44 1.63-.087.26-.122.546-.267.75-.164.222-.507.39-.75.534-.23.14-.488.215-.746.328-.707.301-1.43.559-2.168.766-.453.129-.93.14-1.398.25-.29.062-.578.016-.844.074-.191.047-.719.02-.883-.02a17 17 0 0 1-.441-.019c-.355-.078-.79-.07-1.11-.152l-.44-.059c-.384-.105-.755-.21-1.095-.363-.125-.055-.253-.16-.363-.23-1.09-.688-1.45-1.45-1.879-2.778q-.115-.585-.23-1.172c-.098-.41-.043-.844-.133-1.246-.027-.117 0-.289-.02-.383v-.883c-.05-.218-.03-.94.02-1.167.004-.23.012-.461.016-.692.113-.492.101-1.012.23-1.476.332-1.16.79-2.059 1.824-2.508.332-.149.692-.18 1.09-.27.16-.035.414-.027.54 0h.304c.168.035.344.043.5.094.516.172.95.445 1.476.598.305.086 1.075.078 1.188-.157.031-.043.012-.082 0-.132-.785-.227-1.422-.63-2.129-.922l-.594-.153c-.234-.062-1.097.012-1.168-.132-.156-.211.203-.864.285-.997.407-.652 1.008-1.027 1.786-1.304.195-.07.418-.106.613-.153.094-.023.215.004.289-.039m-27.723.075h1.86l.918.02c.117.03.218.124.328.155.242.067.379-.039.554.094.153.117.196.36.27.555.125.344.191.754.29 1.133.038.168.015.304.054.48.09.383.09.809.172 1.207.023.09.02.324-.016.383-.043.129-.133.129-.27.113-.218-.355-.23-.98-.382-1.398-.067-.176-.09-.364-.309-.383-.023-.016-.031-.016-.074-.02-.055.043-.133.063-.176.118-.27.363-.281 1.183-.402 1.703-.059.258-.07.617.097.73.098.07.27.02.403.02.316-.008.675-.063.957 0 .105.218.008.586-.055.824l-.191 1.32c-.016.188-.028.371-.04.559-.113.512-.078 1.144-.078 1.742 0 .852.036 1.844.211 2.55.028.204.051.411.079.614.093.371.136.77.246 1.133.066.215.183.469.136.726-.172.098-.46.043-.652 0a9 9 0 0 1-.324-.02 2.3 2.3 0 0 0-.711-.054c-.024.032-.078.063-.098.094-.066.129-.02.598.02.766.164.687.129 1.433.558 1.859h.133c.445-.39.399-1.133.555-1.8l.117-.095c.11-.003.156.016.23.036.102.32.04.855-.039 1.191-.027.242-.05.484-.078.727-.093.41-.148.859-.265 1.226-.094.277-.168.73-.368.883-.19.145-.375.016-.593.098-.094.035-.176.12-.29.152h-.245c-.168.035-.418.02-.614.02h-1.152c-.313 0-.758.03-.996-.06-.488-.179-.621-.8-.766-1.323-.078-.27-.039-.73-.289-.825-.125-.105-.492-.02-.672-.02-.554.005-1.41.106-1.761-.132-.54-.363-.325-1.601-.77-2.07-.41-.028-1.125.129-1.437-.098-.176-.125-.2-.37-.266-.613-.113-.399-.137-.887-.23-1.32-.04-.172-.008-.364-.04-.52-.078-.355.059-.816-.113-1.074-.18-.262-1.133.035-1.441-.172-.215-.145-.18-.441-.246-.746-.102-.457-.106-1.656.054-2.031.04-.094.13-.145.192-.211.07-.004.125-.028.175-.04h.325c.277 0 .605.012.824-.038l.117-.133c.098-.219-.004-.516.055-.79.05-.218.004-.468.058-.706.075-.336.079-.7.153-1.016.078-.316.058-.707.289-.863.344-.235 1.12-.012 1.515-.098.34-.535.223-1.828.727-2.164.176-.117.48-.098.766-.098H8.19c.2.004.407.024.575-.02.336-.546.3-1.46.672-1.972a.8.8 0 0 1 .402-.27c.078-.023.168 0 .23-.038m36.637.02h2.184c.53 0 .988.003 1.207.308.23.312.324.808.441 1.226.11.395.031.477.29.746.5.024 1.124-.02 1.706-.02.352 0 .692.009.844.212.387.527.234 1.61.668 2.05.457.004 1.156-.117 1.457.098.187.133.203.434.27.692.085.324.093.718.171 1.074.055.242.008.5.059.726.07.325-.059.766.113.977.184.223.903.012 1.246.098l.176.058c.043.067.121.13.152.211.145.39.141 1.66.04 2.106-.067.277-.047.566-.29.652-.222.172-.992.027-1.304.098-.16.261-.098.382-.172.726v.348c-.04.172.004.383-.04.574-.081.367-.077.79-.171 1.129-.082.305-.086.668-.305.824-.336.246-1.148.043-1.535.137-.297.484-.219 1.726-.633 2.031-.496.363-1.851.008-2.531.152-.441.696-.238 1.961-1.148 2.188q-.48.007-.961.02h-1.11c-.191 0-.437.015-.593-.02h-.231c-.117-.031-.21-.121-.309-.152-.175-.063-.402.011-.535-.078-.379-.254-.5-1.336-.633-1.899-.12-.504-.113-1.094-.23-1.629-.04-.172-.05-.457.059-.539.168-.121.324.063.363.195.14.473.098 1.567.535 1.684.297.082.383-.348.441-.535.098-.297.11-.637.192-.977.086-.347.168-.777.078-1.133q-.051-.031-.098-.074c-.515-.023-1.144.2-1.629.094-.046-.074-.058-.129-.058-.27.066-.097.054-.238.097-.363.086-.27.157-.594.23-.883q.018-.158.04-.324c.094-.375.117-.832.21-1.226.056-.247.005-.516.056-.75q.011-.43.02-.86c.062-.281.042-1.074-.02-1.344v-.324c-.063-.285-.008-.61-.075-.902-.093-.395-.074-.84-.171-1.246-.07-.29-.168-.668-.137-.957.058-.043.058-.067.152-.078.094-.059.328 0 .422.02h.309c.168.034.379.034.554.019.184-.27.125-.535.04-.883-.13-.524-.102-1.188-.364-1.57-.035-.051-.11-.075-.152-.118-.063 0-.125-.004-.157.02-.199.07-.222.289-.285.5-.113.367-.168.851-.27 1.226-.077.024-.093.055-.21.055-.031-.035-.067-.05-.098-.094-.07-.093 0-.886.04-1.054.163-.692.199-1.457.402-2.07.086-.258.144-.575.347-.711.125-.083.293-.012.477-.055.097-.028.281-.078.367-.137m-17.906 8.245c.68-.008 1.55-.074 2.11.074.148.258.019.516.093.864.07.332.008.746.078 1.074.043.21.04.496-.117.555-.121.097-.442.058-.652.058-.579 0-1.293.055-1.782-.058a.9.9 0 0 1-.093-.614c.12-.558-.012-1.28.113-1.82.05-.031.094-.094.152-.117.043-.016.07 0 .098-.016m-13.422 2.07c-.133.512-.066 1.27.059 1.762.183.723.226 1.45.593 1.977.41.586 1.282.828 2.032 1.07.5.164 1.199.418 1.804.27.012-.032.016-.063.02-.094-.016-.02-.008-.008-.02-.04-.176-.085-.351-.226-.539-.308-1.203-.527-2.258-1.05-2.914-2.125-.316-.523-.473-1.226-.668-1.844-.074-.218-.101-.66-.367-.668m28.644.114c-.324.683-.503 1.535-.808 2.222-.242.559-.676 1.032-1.149 1.364-.523.367-1.16.672-1.765.937-.188.086-.625.2-.649.422.13.078.422.113.633.059.457-.121.926-.211 1.34-.364.71-.265 1.55-.488 1.938-1.074.332-.504.367-1.183.535-1.86.109-.44.238-1.23.058-1.687h-.02v-.02Zm-12.078 4.484c.293.024.625.63.825.828.476.473 1.152.856 1.859 1.09.316.106.644.16.976.25.184.05.38 0 .403.211-.043.043-.059.102-.094.152q-.118.106-.23.211c-.172.172-.325.352-.52.5-.062.07-.129.141-.191.211-.32.242-.582.547-.903.785-.633.477-1.273.954-1.953 1.38-1.308.827-2.797 1.449-4.39 1.976-.899.297-1.883.402-2.856.633-.406.093-.871.047-1.266.133h-.363c-.281.058-1.238.062-1.515 0h-.403c-.344-.075-.699-.032-1.054-.114-.282-.066-.575-.074-.864-.152-.492-.14-.992-.277-1.437-.442-.387-.144-.739-.265-1.074-.44-.145-.079-.313-.118-.403-.25h.211c.113.073.293.058.442.097.23.058.488.097.726.152l.578.059c.508.117 1.16.093 1.781.093.286 0 .649.036.903-.02h.344c.27-.042.535-.089.804-.132.098-.008.192-.012.29-.02 1.171-.292 2.25-.53 3.257-.956.567-.243 1.121-.446 1.61-.75.164-.102.417-.165.421-.422-.078-.028-.214-.02-.324-.02-.098.059-.25.043-.363.078-.29.086-.586.14-.902.23a11.2 11.2 0 0 1-3.047.423c-.387 0-.88.058-1.227-.02q-.279-.01-.558-.02c-.344-.081-.723-.132-1.036-.23-.172-.055-.437-.07-.496-.23.645-.032 1.403.015 1.992-.114q.271-.022.536-.039c.582-.148 1.195-.218 1.746-.402a19.5 19.5 0 0 0 5.156-2.59c.926-.652 1.695-1.46 2.61-2.129m0 0"/><path fill="#d5ba2b" fill-rule="evenodd" d="M34.648 1.957c2.172-.035 3.985.184 5.5.805.348.14.672.242.977.402.121.059.27.09.328.211h.02v.02H41.3c-.149-.098-.387-.067-.578-.118-.36-.093-.801-.16-1.188-.25l-.594-.035c-.586-.129-1.914-.18-2.53-.039-.368.082-.747.024-1.095.113-.43.114-.879.153-1.3.29-.547.175-1.11.343-1.614.554-.523.223-1.035.41-1.492.692-.172.105-.453.18-.46.441a.05.05 0 0 1 .019.02c.367.027.718-.094 1.015-.192.344-.113.72-.156 1.055-.25.297-.086.617-.086.898-.152l.422-.02c.778-.172 2.207-.117 2.914.074.395.11 1.254.188 1.438.461.008.02.016.008 0 .02-.211.176-.98-.02-1.32.059-.168.035-.399-.004-.575.035-.586.136-1.246.129-1.804.308-.582.188-1.18.313-1.723.535-1.27.528-2.422 1.141-3.473 1.88-.484.343-.925.738-1.398 1.093-.266.2-.355.516-.824.52-.067-.059-.16-.082-.23-.137-.302-.219-.59-.457-.958-.613-.187-.079-.523-.098-.593-.286-.125-.144-.125-.632-.196-.843a3.3 3.3 0 0 0-.535-.98c-.133-.177-.336-.231-.344-.536.082-.062.145-.168.23-.23.489-.364.997-.727 1.512-1.055 1.36-.86 2.88-1.52 4.543-2.07.84-.278 1.739-.368 2.649-.575h.191l.844-.132c.133-.032.34.043.441-.02M20.824 5.828c1.492-.023 2.77.426 3.395 1.266.238.324.554.73.515 1.265-.043.028-.078.079-.132.094-.11.035-.325 0-.403-.02-.164-.035-.719.04-.863.079-.64.172-1.125.492-1.688.73-.18.074-.8.153-.863.305-.027.05.004.074.02.133.988.508 2.027-.223 2.82-.477.41-.137 1.121-.101 1.512.02.215.062.418.07.613.152.629.258 1.137.629 1.477 1.168.257.406.414.91.558 1.418.082.305.082.629.152.941.07.309.012.641.079.938v.387c.05.25.054 1.07 0 1.32-.059.254.007.527-.04.75q-.012.21-.019.422-.098.756-.191 1.511c-.106.399-.16.825-.29 1.207-.382 1.137-1.07 2.09-2.128 2.551-.52.227-1.13.317-1.743.461l-.73.059c-.535.117-1.535.097-2.05-.02-.18-.011-.356-.027-.536-.039-.453-.11-.945-.144-1.383-.289a22 22 0 0 1-2.09-.785c-.375-.164-1.066-.453-1.28-.746-.348-.477-.434-1.399-.614-2.05-.29-1.028-.348-2.204-.348-3.509 0-.668-.031-1.351.098-1.918q.007-.18.02-.367c.058-.262.074-.566.132-.824.082-.344.051-.64.133-.977.14-.546.258-1.086.52-1.515.832-1.364 1.996-2.516 3.527-3.18.363-.16.758-.25 1.168-.363.129-.04.574-.047.652-.098m16.969 0c.371-.008.852-.062 1.187.02.372.09.774.148 1.11.285 1.824.754 3.453 2.039 4.2 3.855.23.559.284 1.242.44 1.88.075.3.051.62.118.902.062.27.015.574.074.843q.02.418.039.84c.05.235.07.77.02 1-.04.172.015.406-.02.555v.308c-.078.34-.012.723-.098 1.07-.058.262-.058.552-.133.825-.148.55-.273 1.125-.44 1.633-.087.261-.122.543-.267.746-.164.226-.507.39-.75.535-.23.145-.488.215-.746.328q-1.06.456-2.168.766c-.453.129-.93.14-1.398.25-.29.066-.578.015-.844.078-.191.043-.719.015-.883-.02a16 16 0 0 0-.441-.02c-.355-.081-.79-.07-1.11-.155l-.44-.055c-.384-.11-.755-.215-1.095-.367-.125-.055-.253-.157-.363-.227-1.09-.687-1.45-1.453-1.879-2.781q-.115-.586-.23-1.168c-.098-.414-.043-.848-.133-1.246-.027-.121 0-.29-.02-.387v-.879c-.05-.219-.03-.945.02-1.172.004-.23.012-.457.016-.687.113-.496.101-1.012.23-1.477.332-1.164.79-2.062 1.824-2.511.332-.149.692-.18 1.09-.27.16-.035.414-.027.54 0h.304c.168.04.344.043.5.098.516.168.95.441 1.476.593.305.086 1.075.079 1.188-.152.031-.047.012-.082 0-.137-.785-.226-1.422-.629-2.129-.918l-.594-.156c-.234-.062-1.097.012-1.168-.133-.156-.21.203-.863.285-.996.407-.652 1.008-1.023 1.786-1.304.195-.07.418-.106.613-.153.094-.023.215.004.289-.039m-27.723.078h1.86l.918.02c.117.027.218.12.328.152.242.067.379-.039.554.094.153.117.196.36.27.558.125.34.191.75.29 1.13.038.171.015.308.054.48.09.383.09.808.172 1.207.023.094.02.324-.016.383-.043.129-.133.129-.27.117-.218-.36-.23-.985-.382-1.402-.067-.176-.09-.36-.309-.383-.023-.016-.031-.016-.074-.02-.055.043-.133.063-.176.117-.27.368-.281 1.184-.402 1.707-.059.254-.07.614.097.727.098.074.27.023.403.02.316-.008.675-.063.957 0 .105.218.008.585-.055.824l-.191 1.324q-.023.278-.04.555c-.113.511-.078 1.144-.078 1.746 0 .847.036 1.84.211 2.547.028.207.051.41.079.613.093.371.136.77.246 1.133.066.215.183.472.136.726-.172.098-.46.047-.652 0q-.166-.008-.324-.015a2.2 2.2 0 0 0-.711-.059c-.024.035-.078.063-.098.094-.066.129-.02.597.02.77.164.683.129 1.433.558 1.859h.133c.445-.395.399-1.137.555-1.805l.117-.094c.11-.004.156.02.23.04.102.32.04.855-.039 1.187-.027.242-.05.484-.078.726-.093.414-.148.86-.265 1.23-.094.278-.168.727-.368.88-.19.144-.375.015-.593.097-.094.036-.176.125-.29.153h-.245c-.168.035-.418.02-.614.02h-1.152c-.313 0-.758.03-.996-.06-.488-.179-.621-.796-.766-1.32-.078-.273-.039-.734-.289-.824-.125-.11-.492-.02-.672-.02-.554 0-1.41.102-1.761-.136-.54-.363-.325-1.602-.77-2.07-.41-.028-1.125.132-1.437-.094-.176-.13-.2-.371-.266-.613-.113-.399-.137-.891-.23-1.325-.04-.172-.008-.363-.04-.515-.078-.356.059-.82-.113-1.075-.18-.265-1.133.032-1.441-.171-.215-.149-.18-.446-.246-.75-.102-.453-.106-1.653.054-2.032.04-.093.13-.144.192-.21.07-.004.125-.028.175-.04h.325c.277 0 .605.012.824-.039l.117-.133c.098-.218-.004-.515.055-.785.05-.218.004-.472.058-.71.075-.337.079-.7.153-1.016.078-.317.058-.707.289-.864.344-.234 1.12-.011 1.515-.093.34-.54.223-1.832.727-2.168.176-.117.48-.094.766-.094H8.19c.2 0 .407.02.575-.02.336-.55.3-1.464.672-1.976a.85.85 0 0 1 .402-.27c.078-.023.168 0 .23-.035m36.637.02h2.184c.53 0 .988 0 1.207.304.23.317.324.81.441 1.227.11.398.031.477.29.75.5.02 1.124-.02 1.706-.02.352 0 .692.008.844.211.387.528.234 1.606.668 2.051.457 0 1.156-.12 1.457.094.187.133.203.434.27.691.085.325.093.72.171 1.075.055.246.008.5.059.726.07.324-.059.766.113.98.184.223.903.012 1.246.094l.176.059c.043.066.121.129.152.21.145.392.141 1.661.04 2.11-.067.274-.047.567-.29.653-.222.168-.992.023-1.304.093-.16.262-.098.387-.172.73v.345c-.04.171.004.382-.04.574-.081.367-.077.789-.171 1.133-.082.3-.086.664-.305.824-.336.242-1.148.039-1.535.133-.297.484-.219 1.73-.633 2.03-.496.364-1.851.009-2.531.157-.441.692-.238 1.957-1.148 2.184-.32.008-.641.011-.961.02h-1.11c-.191 0-.437.015-.593-.02h-.231c-.117-.028-.21-.121-.309-.153-.175-.058-.402.012-.535-.078-.379-.254-.5-1.336-.633-1.898-.12-.504-.113-1.09-.23-1.63-.04-.17-.05-.456.059-.534.168-.125.324.058.363.191.14.477.098 1.567.535 1.688.297.078.383-.352.441-.54.098-.296.11-.636.192-.976.086-.344.168-.777.078-1.133q-.051-.032-.098-.074c-.515-.023-1.144.2-1.629.094-.046-.074-.058-.13-.058-.266.066-.101.054-.238.097-.367.086-.27.157-.594.23-.879q.018-.165.04-.328c.094-.375.117-.832.21-1.227.056-.246.005-.515.056-.746q.011-.434.02-.863c.062-.281.042-1.074-.02-1.344v-.324c-.063-.285-.008-.61-.075-.902-.093-.395-.074-.836-.171-1.246-.07-.29-.168-.664-.137-.957.058-.04.058-.067.152-.079.094-.058.328 0 .422.02h.309c.168.035.379.039.554.02.184-.27.125-.536.04-.883-.13-.524-.102-1.188-.364-1.57-.035-.051-.11-.075-.152-.118-.063 0-.125 0-.157.02-.199.07-.222.289-.285.5-.113.37-.168.851-.27 1.226-.077.024-.093.055-.21.059-.031-.035-.067-.055-.098-.098-.07-.09 0-.886.04-1.054.163-.692.199-1.454.402-2.07.086-.259.144-.575.347-.708.125-.086.293-.012.477-.058.097-.024.281-.075.367-.133m-17.906 8.242c.68-.004 1.55-.07 2.11.074.148.262.019.52.093.863.07.332.008.747.078 1.075.043.215.04.5-.117.554-.121.098-.442.059-.652.059-.579 0-1.293.055-1.782-.059a.9.9 0 0 1-.093-.613c.12-.555-.012-1.281.113-1.82.05-.031.094-.094.152-.114.043-.015.07-.003.098-.019m-13.422 2.07c-.133.512-.066 1.274.059 1.762.183.723.226 1.45.593 1.977.41.585 1.282.828 2.032 1.074.5.16 1.199.418 1.804.265.012-.027.016-.062.02-.093-.016-.02-.008-.004-.02-.04-.176-.085-.351-.226-.539-.304-1.203-.531-2.258-1.05-2.914-2.129-.316-.52-.473-1.227-.668-1.84-.074-.223-.101-.664-.367-.672m28.644.114c-.324.683-.503 1.535-.808 2.226-.242.555-.676 1.027-1.149 1.36-.523.367-1.16.675-1.765.94-.188.083-.625.196-.649.423.13.078.422.11.633.054.457-.12.926-.207 1.34-.363.71-.265 1.55-.484 1.938-1.074.332-.504.367-1.184.535-1.86.109-.44.238-1.23.058-1.687h-.02v-.02ZM31.945 20.84c.293.02.625.625.825.824.476.477 1.152.86 1.859 1.094.316.101.644.16.976.246.184.05.38 0 .403.21-.043.048-.059.106-.094.157q-.118.105-.23.211c-.172.168-.325.348-.52.496-.062.07-.129.14-.191.211-.32.242-.582.55-.903.785-.633.477-1.273.953-1.953 1.383-1.308.824-2.797 1.445-4.39 1.973-.899.3-1.883.402-2.856.633-.406.093-.871.046-1.266.136h-.363c-.281.059-1.238.059-1.515 0h-.403c-.344-.078-.699-.035-1.054-.117-.282-.066-.575-.07-.864-.152-.492-.14-.992-.278-1.437-.442-.387-.144-.739-.265-1.074-.441-.145-.074-.313-.117-.403-.25h.211c.113.074.293.058.442.098.23.058.488.097.726.152l.578.058c.508.118 1.16.094 1.781.094.286 0 .649.04.903-.02h.344c.27-.042.535-.085.804-.132.098-.008.192-.012.29-.02 1.171-.293 2.25-.53 3.257-.957.567-.238 1.121-.445 1.61-.75.164-.101.417-.164.421-.422-.078-.023-.214-.02-.324-.02-.098.063-.25.044-.363.079-.29.09-.586.14-.902.23q-1.495.428-3.047.422c-.387 0-.88.059-1.227-.02-.187-.007-.371-.01-.558-.019-.344-.078-.723-.133-1.036-.23-.172-.05-.437-.067-.496-.23.645-.032 1.403.015 1.992-.114q.271-.02.536-.039c.582-.145 1.195-.219 1.746-.402a19.6 19.6 0 0 0 5.156-2.586c.926-.657 1.695-1.465 2.61-2.13m0 0"/></svg>