<svg xmlns="http://www.w3.org/2000/svg" xmlns:xlink="http://www.w3.org/1999/xlink" width="82" zoomAndPan="magnify" viewBox="0 0 61.5 32.249999" height="43" preserveAspectRatio="xMidYMid meet" version="1.0"><path fill="#d5ba2b" d="M 34.648438 2.152344 C 36.820312 2.117188 38.632812 2.335938 40.148438 2.957031 C 40.496094 3.101562 40.820312 3.203125 41.125 3.363281 C 41.246094 3.421875 41.394531 3.453125 41.453125 3.574219 L 41.472656 3.574219 L 41.472656 3.589844 L 41.300781 3.589844 C 41.152344 3.496094 40.914062 3.527344 40.722656 3.476562 C 40.363281 3.378906 39.921875 3.316406 39.535156 3.226562 L 38.941406 3.1875 C 38.355469 3.0625 37.027344 3.011719 36.410156 3.152344 C 36.042969 3.234375 35.664062 3.175781 35.316406 3.265625 C 34.886719 3.375 34.4375 3.414062 34.015625 3.554688 C 33.46875 3.730469 32.90625 3.898438 32.402344 4.109375 C 31.878906 4.332031 31.367188 4.519531 30.910156 4.800781 C 30.738281 4.902344 30.457031 4.976562 30.449219 5.238281 C 30.457031 5.246094 30.464844 5.25 30.46875 5.257812 C 30.835938 5.289062 31.1875 5.164062 31.484375 5.066406 C 31.828125 4.957031 32.203125 4.914062 32.539062 4.820312 C 32.835938 4.734375 33.15625 4.730469 33.4375 4.664062 L 33.859375 4.644531 C 34.636719 4.476562 36.066406 4.53125 36.773438 4.722656 C 37.167969 4.828125 38.027344 4.910156 38.210938 5.183594 C 38.21875 5.203125 38.226562 5.191406 38.210938 5.203125 C 38 5.375 37.230469 5.183594 36.890625 5.257812 C 36.722656 5.296875 36.492188 5.257812 36.316406 5.296875 C 35.730469 5.433594 35.070312 5.425781 34.511719 5.605469 C 33.929688 5.792969 33.332031 5.914062 32.789062 6.140625 C 31.519531 6.667969 30.367188 7.28125 29.316406 8.019531 C 28.832031 8.359375 28.390625 8.757812 27.917969 9.113281 C 27.652344 9.3125 27.5625 9.628906 27.09375 9.628906 C 27.027344 9.570312 26.933594 9.546875 26.863281 9.496094 C 26.5625 9.277344 26.273438 9.039062 25.90625 8.882812 C 25.71875 8.804688 25.382812 8.785156 25.3125 8.59375 C 25.1875 8.453125 25.1875 7.960938 25.117188 7.75 C 24.996094 7.378906 24.796875 7.058594 24.582031 6.773438 C 24.449219 6.597656 24.246094 6.542969 24.238281 6.238281 C 24.320312 6.175781 24.382812 6.070312 24.46875 6.007812 C 24.957031 5.644531 25.464844 5.277344 25.980469 4.953125 C 27.339844 4.09375 28.859375 3.433594 30.523438 2.882812 C 31.363281 2.605469 32.261719 2.511719 33.171875 2.308594 L 33.363281 2.308594 L 34.207031 2.171875 C 34.339844 2.144531 34.546875 2.214844 34.648438 2.152344 Z M 20.824219 6.027344 C 22.316406 6.003906 23.59375 6.453125 24.21875 7.292969 C 24.457031 7.617188 24.773438 8.023438 24.734375 8.558594 C 24.691406 8.585938 24.65625 8.636719 24.601562 8.652344 C 24.492188 8.683594 24.277344 8.652344 24.199219 8.632812 C 24.035156 8.597656 23.480469 8.671875 23.335938 8.710938 C 22.695312 8.882812 22.210938 9.199219 21.648438 9.4375 C 21.46875 9.515625 20.847656 9.589844 20.785156 9.746094 C 20.757812 9.796875 20.789062 9.820312 20.804688 9.878906 C 21.792969 10.386719 22.832031 9.65625 23.625 9.398438 C 24.035156 9.265625 24.746094 9.300781 25.136719 9.417969 C 25.351562 9.484375 25.554688 9.492188 25.75 9.574219 C 26.378906 9.828125 26.886719 10.203125 27.226562 10.742188 C 27.484375 11.148438 27.640625 11.652344 27.785156 12.160156 C 27.867188 12.464844 27.867188 12.785156 27.9375 13.101562 C 28.007812 13.410156 27.949219 13.742188 28.015625 14.039062 L 28.015625 14.421875 C 28.066406 14.671875 28.070312 15.496094 28.015625 15.746094 C 27.957031 15.996094 28.023438 16.269531 27.976562 16.492188 C 27.96875 16.632812 27.960938 16.773438 27.957031 16.914062 C 27.890625 17.421875 27.828125 17.925781 27.765625 18.429688 C 27.660156 18.828125 27.605469 19.253906 27.476562 19.636719 C 27.09375 20.773438 26.40625 21.726562 25.347656 22.1875 C 24.828125 22.414062 24.21875 22.5 23.605469 22.648438 L 22.875 22.703125 C 22.339844 22.820312 21.339844 22.804688 20.824219 22.6875 C 20.644531 22.671875 20.46875 22.660156 20.289062 22.648438 C 19.835938 22.539062 19.34375 22.5 18.90625 22.359375 C 18.183594 22.125 17.472656 21.863281 16.816406 21.574219 C 16.441406 21.410156 15.75 21.121094 15.535156 20.824219 C 15.1875 20.351562 15.101562 19.429688 14.921875 18.773438 C 14.632812 17.75 14.574219 16.574219 14.574219 15.265625 C 14.574219 14.601562 14.542969 13.914062 14.671875 13.347656 C 14.675781 13.226562 14.683594 13.105469 14.691406 12.984375 C 14.75 12.722656 14.765625 12.417969 14.824219 12.160156 C 14.90625 11.816406 14.875 11.519531 14.957031 11.183594 C 15.097656 10.632812 15.214844 10.09375 15.476562 9.667969 C 16.308594 8.300781 17.472656 7.152344 19.003906 6.484375 C 19.367188 6.328125 19.761719 6.238281 20.171875 6.121094 C 20.300781 6.085938 20.746094 6.078125 20.824219 6.027344 Z M 37.792969 6.027344 C 38.164062 6.019531 38.644531 5.964844 38.980469 6.046875 C 39.351562 6.136719 39.753906 6.195312 40.089844 6.332031 C 41.914062 7.085938 43.542969 8.371094 44.289062 10.1875 C 44.519531 10.746094 44.574219 11.429688 44.730469 12.066406 C 44.804688 12.363281 44.78125 12.683594 44.847656 12.964844 C 44.910156 13.238281 44.863281 13.542969 44.921875 13.808594 C 44.933594 14.089844 44.949219 14.371094 44.960938 14.652344 C 45.011719 14.886719 45.03125 15.421875 44.980469 15.648438 C 44.941406 15.824219 44.996094 16.054688 44.960938 16.207031 L 44.960938 16.511719 C 44.882812 16.851562 44.949219 17.234375 44.863281 17.585938 C 44.804688 17.847656 44.804688 18.136719 44.730469 18.410156 C 44.582031 18.957031 44.457031 19.535156 44.289062 20.039062 C 44.203125 20.300781 44.167969 20.585938 44.023438 20.789062 C 43.859375 21.011719 43.515625 21.179688 43.273438 21.324219 C 43.042969 21.464844 42.785156 21.539062 42.527344 21.652344 C 41.820312 21.953125 41.097656 22.210938 40.359375 22.417969 C 39.90625 22.546875 39.429688 22.558594 38.960938 22.667969 C 38.671875 22.730469 38.382812 22.683594 38.117188 22.742188 C 37.925781 22.789062 37.398438 22.761719 37.234375 22.722656 C 37.089844 22.71875 36.941406 22.710938 36.792969 22.703125 C 36.4375 22.625 36.003906 22.632812 35.683594 22.550781 L 35.242188 22.492188 C 34.859375 22.386719 34.488281 22.28125 34.148438 22.128906 C 34.023438 22.074219 33.894531 21.96875 33.785156 21.898438 C 32.695312 21.210938 32.335938 20.449219 31.90625 19.121094 C 31.828125 18.730469 31.753906 18.339844 31.675781 17.949219 C 31.578125 17.539062 31.632812 17.105469 31.542969 16.703125 C 31.515625 16.585938 31.542969 16.414062 31.523438 16.320312 L 31.523438 15.4375 C 31.472656 15.21875 31.492188 14.496094 31.542969 14.269531 C 31.546875 14.039062 31.554688 13.808594 31.558594 13.578125 C 31.671875 13.085938 31.660156 12.566406 31.789062 12.101562 C 32.121094 10.941406 32.578125 10.042969 33.613281 9.59375 C 33.945312 9.445312 34.304688 9.414062 34.703125 9.324219 C 34.863281 9.289062 35.117188 9.296875 35.242188 9.324219 L 35.546875 9.324219 C 35.714844 9.359375 35.890625 9.367188 36.046875 9.417969 C 36.5625 9.589844 36.996094 9.863281 37.523438 10.015625 C 37.828125 10.101562 38.597656 10.09375 38.710938 9.859375 C 38.742188 9.816406 38.722656 9.777344 38.710938 9.726562 C 37.925781 9.5 37.289062 9.097656 36.582031 8.804688 L 35.988281 8.652344 C 35.753906 8.589844 34.890625 8.664062 34.820312 8.519531 C 34.664062 8.308594 35.023438 7.65625 35.105469 7.523438 C 35.511719 6.871094 36.113281 6.496094 36.890625 6.21875 C 37.085938 6.148438 37.308594 6.113281 37.503906 6.066406 C 37.597656 6.042969 37.71875 6.070312 37.792969 6.027344 Z M 10.070312 6.101562 L 11.929688 6.101562 L 12.847656 6.121094 C 12.964844 6.152344 13.066406 6.246094 13.175781 6.277344 C 13.417969 6.34375 13.554688 6.238281 13.730469 6.371094 C 13.882812 6.488281 13.925781 6.730469 14 6.925781 C 14.125 7.269531 14.191406 7.679688 14.289062 8.058594 C 14.328125 8.226562 14.304688 8.363281 14.34375 8.539062 C 14.433594 8.921875 14.433594 9.347656 14.515625 9.746094 C 14.539062 9.835938 14.535156 10.070312 14.5 10.128906 C 14.457031 10.257812 14.367188 10.257812 14.230469 10.242188 C 14.011719 9.886719 14 9.261719 13.847656 8.84375 C 13.78125 8.667969 13.757812 8.480469 13.539062 8.460938 C 13.515625 8.445312 13.507812 8.445312 13.464844 8.441406 C 13.410156 8.484375 13.332031 8.503906 13.289062 8.558594 C 13.019531 8.921875 13.007812 9.742188 12.886719 10.261719 C 12.828125 10.519531 12.816406 10.878906 12.984375 10.992188 C 13.082031 11.0625 13.253906 11.011719 13.386719 11.011719 C 13.703125 11.003906 14.0625 10.949219 14.34375 11.011719 C 14.449219 11.230469 14.351562 11.597656 14.289062 11.835938 L 14.097656 13.15625 C 14.082031 13.34375 14.070312 13.527344 14.058594 13.714844 C 13.945312 14.226562 13.980469 14.859375 13.980469 15.457031 C 13.980469 16.308594 14.015625 17.300781 14.191406 18.007812 C 14.21875 18.210938 14.242188 18.417969 14.269531 18.621094 C 14.363281 18.992188 14.40625 19.390625 14.515625 19.753906 C 14.582031 19.96875 14.699219 20.222656 14.652344 20.480469 C 14.480469 20.578125 14.191406 20.523438 14 20.480469 C 13.890625 20.476562 13.78125 20.46875 13.675781 20.460938 C 13.453125 20.414062 13.207031 20.378906 12.964844 20.40625 C 12.941406 20.4375 12.886719 20.46875 12.867188 20.5 C 12.800781 20.628906 12.847656 21.097656 12.886719 21.265625 C 13.050781 21.953125 13.015625 22.699219 13.445312 23.125 L 13.578125 23.125 C 14.023438 22.734375 13.976562 21.992188 14.132812 21.324219 C 14.171875 21.292969 14.210938 21.261719 14.25 21.230469 C 14.359375 21.226562 14.40625 21.246094 14.480469 21.265625 C 14.582031 21.585938 14.519531 22.121094 14.441406 22.457031 C 14.414062 22.699219 14.390625 22.941406 14.363281 23.183594 C 14.269531 23.59375 14.214844 24.042969 14.097656 24.410156 C 14.003906 24.6875 13.929688 25.140625 13.730469 25.292969 C 13.539062 25.4375 13.355469 25.308594 13.136719 25.390625 C 13.042969 25.425781 12.960938 25.511719 12.847656 25.542969 L 12.601562 25.542969 C 12.433594 25.578125 12.183594 25.5625 11.988281 25.5625 L 10.835938 25.5625 C 10.523438 25.5625 10.078125 25.59375 9.839844 25.503906 C 9.351562 25.324219 9.21875 24.703125 9.074219 24.179688 C 8.996094 23.910156 9.035156 23.449219 8.785156 23.355469 C 8.660156 23.25 8.292969 23.335938 8.113281 23.335938 C 7.558594 23.339844 6.703125 23.441406 6.351562 23.203125 C 5.8125 22.839844 6.027344 21.601562 5.582031 21.132812 C 5.171875 21.105469 4.457031 21.261719 4.144531 21.035156 C 3.96875 20.910156 3.945312 20.664062 3.878906 20.421875 C 3.765625 20.023438 3.742188 19.535156 3.648438 19.101562 C 3.609375 18.929688 3.640625 18.738281 3.609375 18.582031 C 3.53125 18.226562 3.667969 17.765625 3.496094 17.507812 C 3.316406 17.246094 2.363281 17.542969 2.054688 17.335938 C 1.839844 17.191406 1.875 16.894531 1.808594 16.589844 C 1.707031 16.132812 1.703125 14.933594 1.863281 14.558594 C 1.902344 14.464844 1.992188 14.414062 2.054688 14.347656 C 2.125 14.34375 2.179688 14.320312 2.230469 14.308594 L 2.554688 14.308594 C 2.832031 14.308594 3.160156 14.320312 3.378906 14.269531 L 3.496094 14.136719 C 3.59375 13.917969 3.492188 13.621094 3.550781 13.347656 C 3.601562 13.128906 3.554688 12.878906 3.609375 12.640625 C 3.683594 12.304688 3.6875 11.941406 3.761719 11.625 C 3.839844 11.308594 3.820312 10.917969 4.050781 10.761719 C 4.394531 10.527344 5.171875 10.75 5.566406 10.664062 C 5.90625 10.128906 5.789062 8.835938 6.292969 8.5 C 6.46875 8.382812 6.773438 8.402344 7.058594 8.402344 L 8.191406 8.402344 C 8.390625 8.40625 8.597656 8.425781 8.765625 8.382812 C 9.101562 7.835938 9.066406 6.921875 9.4375 6.410156 C 9.519531 6.292969 9.6875 6.1875 9.839844 6.140625 C 9.917969 6.117188 10.007812 6.140625 10.070312 6.101562 Z M 46.707031 6.121094 L 48.890625 6.121094 C 49.421875 6.121094 49.878906 6.125 50.097656 6.429688 C 50.328125 6.742188 50.421875 7.238281 50.539062 7.65625 C 50.648438 8.050781 50.570312 8.132812 50.828125 8.402344 C 51.328125 8.425781 51.953125 8.382812 52.535156 8.382812 C 52.886719 8.382812 53.226562 8.390625 53.378906 8.59375 C 53.765625 9.121094 53.613281 10.203125 54.046875 10.644531 C 54.503906 10.648438 55.203125 10.527344 55.503906 10.742188 C 55.691406 10.875 55.707031 11.175781 55.773438 11.433594 C 55.859375 11.757812 55.867188 12.152344 55.945312 12.507812 C 56 12.75 55.953125 13.007812 56.003906 13.234375 C 56.074219 13.558594 55.945312 14 56.117188 14.210938 C 56.300781 14.433594 57.019531 14.222656 57.363281 14.308594 L 57.539062 14.367188 C 57.582031 14.433594 57.660156 14.496094 57.691406 14.578125 C 57.835938 14.96875 57.832031 16.238281 57.730469 16.683594 C 57.664062 16.960938 57.683594 17.25 57.441406 17.335938 C 57.21875 17.507812 56.449219 17.363281 56.136719 17.433594 C 55.976562 17.695312 56.039062 17.816406 55.964844 18.160156 L 55.964844 18.507812 C 55.925781 18.679688 55.96875 18.890625 55.925781 19.082031 C 55.84375 19.449219 55.847656 19.871094 55.753906 20.210938 C 55.671875 20.515625 55.667969 20.878906 55.449219 21.035156 C 55.113281 21.28125 54.300781 21.078125 53.914062 21.171875 C 53.617188 21.65625 53.695312 22.898438 53.28125 23.203125 C 52.785156 23.566406 51.429688 23.210938 50.75 23.355469 C 50.308594 24.050781 50.511719 25.316406 49.601562 25.542969 C 49.28125 25.546875 48.960938 25.554688 48.640625 25.5625 L 47.53125 25.5625 C 47.339844 25.5625 47.09375 25.578125 46.9375 25.542969 L 46.707031 25.542969 C 46.589844 25.511719 46.496094 25.421875 46.398438 25.390625 C 46.222656 25.328125 45.996094 25.402344 45.863281 25.3125 C 45.484375 25.058594 45.363281 23.976562 45.230469 23.414062 C 45.109375 22.910156 45.117188 22.320312 45 21.785156 C 44.960938 21.613281 44.949219 21.328125 45.058594 21.246094 C 45.226562 21.125 45.382812 21.308594 45.421875 21.441406 C 45.5625 21.914062 45.519531 23.007812 45.957031 23.125 C 46.253906 23.207031 46.339844 22.777344 46.398438 22.589844 C 46.496094 22.292969 46.507812 21.953125 46.589844 21.613281 C 46.675781 21.265625 46.757812 20.835938 46.667969 20.480469 C 46.632812 20.460938 46.601562 20.433594 46.570312 20.40625 C 46.054688 20.382812 45.425781 20.605469 44.941406 20.5 C 44.894531 20.425781 44.882812 20.371094 44.882812 20.230469 C 44.949219 20.132812 44.9375 19.992188 44.980469 19.867188 C 45.066406 19.597656 45.136719 19.273438 45.210938 18.984375 C 45.222656 18.878906 45.234375 18.769531 45.25 18.660156 C 45.34375 18.285156 45.367188 17.828125 45.460938 17.433594 C 45.515625 17.1875 45.464844 16.917969 45.515625 16.683594 C 45.523438 16.398438 45.53125 16.109375 45.535156 15.824219 C 45.597656 15.542969 45.578125 14.75 45.515625 14.480469 L 45.515625 14.15625 C 45.453125 13.871094 45.507812 13.546875 45.441406 13.253906 C 45.347656 12.859375 45.367188 12.414062 45.269531 12.007812 C 45.199219 11.71875 45.101562 11.339844 45.132812 11.050781 C 45.191406 11.007812 45.191406 10.984375 45.285156 10.972656 C 45.378906 10.914062 45.613281 10.972656 45.707031 10.992188 L 46.015625 10.992188 C 46.183594 11.027344 46.394531 11.027344 46.570312 11.011719 C 46.753906 10.742188 46.695312 10.476562 46.609375 10.128906 C 46.480469 9.605469 46.507812 8.941406 46.246094 8.558594 C 46.210938 8.507812 46.136719 8.484375 46.09375 8.441406 C 46.03125 8.441406 45.96875 8.4375 45.9375 8.460938 C 45.738281 8.53125 45.714844 8.75 45.652344 8.960938 C 45.539062 9.328125 45.484375 9.8125 45.382812 10.1875 C 45.304688 10.210938 45.289062 10.242188 45.171875 10.242188 C 45.140625 10.207031 45.105469 10.191406 45.074219 10.148438 C 45.003906 10.054688 45.074219 9.261719 45.113281 9.09375 C 45.277344 8.402344 45.3125 7.636719 45.515625 7.023438 C 45.601562 6.765625 45.660156 6.449219 45.863281 6.3125 C 45.988281 6.230469 46.15625 6.300781 46.339844 6.257812 C 46.4375 6.230469 46.621094 6.179688 46.707031 6.121094 Z M 28.800781 14.367188 C 29.480469 14.359375 30.351562 14.292969 30.910156 14.441406 C 31.058594 14.699219 30.929688 14.957031 31.003906 15.304688 C 31.074219 15.636719 31.011719 16.050781 31.082031 16.378906 C 31.125 16.589844 31.121094 16.875 30.964844 16.933594 C 30.84375 17.03125 30.523438 16.992188 30.3125 16.992188 C 29.734375 16.992188 29.019531 17.046875 28.53125 16.933594 C 28.457031 16.816406 28.382812 16.5625 28.4375 16.320312 C 28.558594 15.761719 28.425781 15.039062 28.550781 14.5 C 28.601562 14.46875 28.644531 14.40625 28.703125 14.382812 C 28.746094 14.367188 28.773438 14.382812 28.800781 14.367188 Z M 15.378906 16.4375 C 15.246094 16.949219 15.3125 17.707031 15.4375 18.199219 C 15.621094 18.921875 15.664062 19.648438 16.03125 20.175781 C 16.441406 20.761719 17.3125 21.003906 18.0625 21.246094 C 18.5625 21.410156 19.261719 21.664062 19.867188 21.515625 C 19.878906 21.484375 19.882812 21.453125 19.886719 21.421875 C 19.871094 21.402344 19.878906 21.414062 19.867188 21.382812 C 19.691406 21.296875 19.515625 21.15625 19.328125 21.074219 C 18.125 20.546875 17.070312 20.023438 16.414062 18.949219 C 16.097656 18.425781 15.941406 17.722656 15.746094 17.105469 C 15.671875 16.886719 15.644531 16.445312 15.378906 16.4375 Z M 44.023438 16.550781 C 43.699219 17.234375 43.519531 18.085938 43.214844 18.773438 C 42.972656 19.332031 42.539062 19.804688 42.066406 20.136719 C 41.542969 20.503906 40.90625 20.808594 40.300781 21.074219 C 40.113281 21.160156 39.675781 21.273438 39.652344 21.496094 C 39.78125 21.574219 40.074219 21.609375 40.285156 21.554688 C 40.742188 21.433594 41.210938 21.34375 41.625 21.191406 C 42.335938 20.925781 43.175781 20.703125 43.5625 20.117188 C 43.894531 19.613281 43.929688 18.933594 44.097656 18.257812 C 44.207031 17.816406 44.335938 17.027344 44.15625 16.570312 L 44.136719 16.570312 L 44.136719 16.550781 Z M 31.945312 21.035156 C 32.238281 21.058594 32.570312 21.664062 32.769531 21.863281 C 33.246094 22.335938 33.921875 22.71875 34.628906 22.953125 C 34.945312 23.058594 35.273438 23.113281 35.605469 23.203125 C 35.789062 23.253906 35.984375 23.203125 36.007812 23.414062 C 35.964844 23.457031 35.949219 23.515625 35.914062 23.566406 C 35.835938 23.636719 35.757812 23.707031 35.683594 23.777344 C 35.511719 23.949219 35.359375 24.128906 35.164062 24.277344 C 35.101562 24.347656 35.035156 24.417969 34.972656 24.488281 C 34.652344 24.730469 34.390625 25.035156 34.070312 25.273438 C 33.4375 25.75 32.796875 26.226562 32.117188 26.652344 C 30.808594 27.480469 29.320312 28.101562 27.726562 28.628906 C 26.828125 28.925781 25.84375 29.03125 24.871094 29.261719 C 24.464844 29.355469 24 29.308594 23.605469 29.394531 L 23.242188 29.394531 C 22.960938 29.453125 22.003906 29.457031 21.726562 29.394531 L 21.324219 29.394531 C 20.980469 29.320312 20.625 29.363281 20.269531 29.28125 C 19.988281 29.214844 19.695312 29.207031 19.40625 29.128906 C 18.914062 28.988281 18.414062 28.851562 17.96875 28.6875 C 17.582031 28.542969 17.230469 28.421875 16.894531 28.246094 C 16.75 28.167969 16.582031 28.128906 16.492188 27.996094 L 16.703125 27.996094 C 16.816406 28.070312 16.996094 28.054688 17.144531 28.09375 C 17.375 28.152344 17.632812 28.191406 17.871094 28.246094 L 18.449219 28.304688 C 18.957031 28.421875 19.609375 28.398438 20.230469 28.398438 C 20.515625 28.398438 20.878906 28.433594 21.132812 28.378906 L 21.476562 28.378906 C 21.746094 28.335938 22.011719 28.289062 22.28125 28.246094 C 22.378906 28.238281 22.472656 28.234375 22.570312 28.226562 C 23.742188 27.933594 24.820312 27.695312 25.828125 27.269531 C 26.394531 27.027344 26.949219 26.824219 27.4375 26.519531 C 27.601562 26.417969 27.855469 26.355469 27.859375 26.097656 C 27.78125 26.070312 27.644531 26.078125 27.535156 26.078125 C 27.4375 26.136719 27.285156 26.121094 27.171875 26.15625 C 26.882812 26.242188 26.585938 26.296875 26.269531 26.386719 C 25.273438 26.667969 24.257812 26.808594 23.222656 26.808594 C 22.835938 26.808594 22.34375 26.867188 21.996094 26.789062 C 21.808594 26.78125 21.625 26.777344 21.4375 26.769531 C 21.09375 26.6875 20.714844 26.636719 20.402344 26.539062 C 20.230469 26.484375 19.964844 26.46875 19.90625 26.308594 C 20.550781 26.277344 21.308594 26.324219 21.898438 26.195312 C 22.078125 26.179688 22.257812 26.167969 22.433594 26.15625 C 23.015625 26.007812 23.628906 25.9375 24.179688 25.753906 C 26.128906 25.105469 27.816406 24.238281 29.335938 23.164062 C 30.261719 22.511719 31.03125 21.703125 31.945312 21.035156 Z M 31.945312 21.035156 " fill-opacity="1" fill-rule="evenodd"/><path fill="#d5ba2b" d="M 34.648438 1.957031 C 36.820312 1.921875 38.632812 2.140625 40.148438 2.761719 C 40.496094 2.902344 40.820312 3.003906 41.125 3.164062 C 41.246094 3.222656 41.394531 3.253906 41.453125 3.375 L 41.472656 3.375 L 41.472656 3.394531 L 41.300781 3.394531 C 41.152344 3.296875 40.914062 3.328125 40.722656 3.277344 C 40.363281 3.183594 39.921875 3.117188 39.535156 3.027344 L 38.941406 2.992188 C 38.355469 2.863281 37.027344 2.8125 36.410156 2.953125 C 36.042969 3.035156 35.664062 2.976562 35.316406 3.066406 C 34.886719 3.179688 34.4375 3.21875 34.015625 3.355469 C 33.46875 3.53125 32.90625 3.699219 32.402344 3.910156 C 31.878906 4.132812 31.367188 4.320312 30.910156 4.601562 C 30.738281 4.707031 30.457031 4.78125 30.449219 5.042969 C 30.457031 5.046875 30.464844 5.054688 30.46875 5.0625 C 30.835938 5.089844 31.1875 4.96875 31.484375 4.871094 C 31.828125 4.757812 32.203125 4.714844 32.539062 4.621094 C 32.835938 4.535156 33.15625 4.535156 33.4375 4.46875 L 33.859375 4.449219 C 34.636719 4.277344 36.066406 4.332031 36.773438 4.523438 C 37.167969 4.632812 38.027344 4.710938 38.210938 4.984375 C 38.21875 5.003906 38.226562 4.992188 38.210938 5.003906 C 38 5.179688 37.230469 4.984375 36.890625 5.0625 C 36.722656 5.097656 36.492188 5.058594 36.316406 5.097656 C 35.730469 5.234375 35.070312 5.226562 34.511719 5.40625 C 33.929688 5.59375 33.332031 5.71875 32.789062 5.941406 C 31.519531 6.46875 30.367188 7.082031 29.316406 7.820312 C 28.832031 8.164062 28.390625 8.558594 27.917969 8.914062 C 27.652344 9.113281 27.5625 9.429688 27.09375 9.433594 C 27.027344 9.375 26.933594 9.351562 26.863281 9.296875 C 26.5625 9.078125 26.273438 8.839844 25.90625 8.683594 C 25.71875 8.605469 25.382812 8.585938 25.3125 8.398438 C 25.1875 8.253906 25.1875 7.765625 25.117188 7.554688 C 24.996094 7.179688 24.796875 6.859375 24.582031 6.574219 C 24.449219 6.398438 24.246094 6.34375 24.238281 6.039062 C 24.320312 5.976562 24.382812 5.871094 24.46875 5.808594 C 24.957031 5.445312 25.464844 5.082031 25.980469 4.753906 C 27.339844 3.894531 28.859375 3.234375 30.523438 2.683594 C 31.363281 2.40625 32.261719 2.316406 33.171875 2.109375 L 33.363281 2.109375 L 34.207031 1.976562 C 34.339844 1.945312 34.546875 2.019531 34.648438 1.957031 Z M 20.824219 5.828125 C 22.316406 5.804688 23.59375 6.253906 24.21875 7.09375 C 24.457031 7.417969 24.773438 7.824219 24.734375 8.359375 C 24.691406 8.386719 24.65625 8.4375 24.601562 8.453125 C 24.492188 8.488281 24.277344 8.453125 24.199219 8.433594 C 24.035156 8.398438 23.480469 8.472656 23.335938 8.511719 C 22.695312 8.683594 22.210938 9.003906 21.648438 9.242188 C 21.46875 9.316406 20.847656 9.394531 20.785156 9.546875 C 20.757812 9.597656 20.789062 9.621094 20.804688 9.679688 C 21.792969 10.1875 22.832031 9.457031 23.625 9.203125 C 24.035156 9.066406 24.746094 9.101562 25.136719 9.222656 C 25.351562 9.285156 25.554688 9.292969 25.75 9.375 C 26.378906 9.632812 26.886719 10.003906 27.226562 10.542969 C 27.484375 10.949219 27.640625 11.453125 27.785156 11.960938 C 27.867188 12.265625 27.867188 12.589844 27.9375 12.902344 C 28.007812 13.210938 27.949219 13.542969 28.015625 13.839844 L 28.015625 14.226562 C 28.066406 14.476562 28.070312 15.296875 28.015625 15.546875 C 27.957031 15.800781 28.023438 16.074219 27.976562 16.296875 C 27.96875 16.4375 27.960938 16.578125 27.957031 16.71875 C 27.890625 17.222656 27.828125 17.726562 27.765625 18.230469 C 27.660156 18.628906 27.605469 19.054688 27.476562 19.4375 C 27.09375 20.574219 26.40625 21.527344 25.347656 21.988281 C 24.828125 22.214844 24.21875 22.304688 23.605469 22.449219 L 22.875 22.507812 C 22.339844 22.625 21.339844 22.605469 20.824219 22.488281 C 20.644531 22.476562 20.46875 22.460938 20.289062 22.449219 C 19.835938 22.339844 19.34375 22.304688 18.90625 22.160156 C 18.183594 21.925781 17.472656 21.664062 16.816406 21.375 C 16.441406 21.210938 15.75 20.921875 15.535156 20.628906 C 15.1875 20.152344 15.101562 19.230469 14.921875 18.578125 C 14.632812 17.550781 14.574219 16.375 14.574219 15.070312 C 14.574219 14.402344 14.542969 13.71875 14.671875 13.152344 C 14.675781 13.03125 14.683594 12.910156 14.691406 12.785156 C 14.75 12.523438 14.765625 12.21875 14.824219 11.960938 C 14.90625 11.617188 14.875 11.320312 14.957031 10.984375 C 15.097656 10.4375 15.214844 9.898438 15.476562 9.46875 C 16.308594 8.105469 17.472656 6.953125 19.003906 6.289062 C 19.367188 6.128906 19.761719 6.039062 20.171875 5.925781 C 20.300781 5.886719 20.746094 5.878906 20.824219 5.828125 Z M 37.792969 5.828125 C 38.164062 5.820312 38.644531 5.765625 38.980469 5.847656 C 39.351562 5.9375 39.753906 5.996094 40.089844 6.132812 C 41.914062 6.886719 43.542969 8.171875 44.289062 9.988281 C 44.519531 10.546875 44.574219 11.230469 44.730469 11.867188 C 44.804688 12.167969 44.78125 12.488281 44.847656 12.769531 C 44.910156 13.039062 44.863281 13.34375 44.921875 13.613281 C 44.933594 13.890625 44.949219 14.171875 44.960938 14.453125 C 45.011719 14.6875 45.03125 15.222656 44.980469 15.453125 C 44.941406 15.625 44.996094 15.859375 44.960938 16.007812 L 44.960938 16.316406 C 44.882812 16.65625 44.949219 17.039062 44.863281 17.386719 C 44.804688 17.648438 44.804688 17.9375 44.730469 18.210938 C 44.582031 18.761719 44.457031 19.335938 44.289062 19.84375 C 44.203125 20.105469 44.167969 20.386719 44.023438 20.589844 C 43.859375 20.816406 43.515625 20.980469 43.273438 21.125 C 43.042969 21.269531 42.785156 21.339844 42.527344 21.453125 C 41.820312 21.757812 41.097656 22.011719 40.359375 22.21875 C 39.90625 22.347656 39.429688 22.359375 38.960938 22.46875 C 38.671875 22.535156 38.382812 22.484375 38.117188 22.546875 C 37.925781 22.589844 37.398438 22.5625 37.234375 22.527344 C 37.089844 22.519531 36.941406 22.511719 36.792969 22.507812 C 36.4375 22.425781 36.003906 22.4375 35.683594 22.351562 L 35.242188 22.296875 C 34.859375 22.1875 34.488281 22.082031 34.148438 21.929688 C 34.023438 21.875 33.894531 21.773438 33.785156 21.703125 C 32.695312 21.015625 32.335938 20.25 31.90625 18.921875 C 31.828125 18.53125 31.753906 18.140625 31.675781 17.753906 C 31.578125 17.339844 31.632812 16.90625 31.542969 16.507812 C 31.515625 16.386719 31.542969 16.21875 31.523438 16.121094 L 31.523438 15.242188 C 31.472656 15.023438 31.492188 14.296875 31.542969 14.070312 C 31.546875 13.839844 31.554688 13.613281 31.558594 13.382812 C 31.671875 12.886719 31.660156 12.371094 31.789062 11.90625 C 32.121094 10.742188 32.578125 9.84375 33.613281 9.394531 C 33.945312 9.246094 34.304688 9.214844 34.703125 9.125 C 34.863281 9.089844 35.117188 9.097656 35.242188 9.125 L 35.546875 9.125 C 35.714844 9.164062 35.890625 9.167969 36.046875 9.222656 C 36.5625 9.390625 36.996094 9.664062 37.523438 9.816406 C 37.828125 9.902344 38.597656 9.894531 38.710938 9.664062 C 38.742188 9.617188 38.722656 9.582031 38.710938 9.527344 C 37.925781 9.300781 37.289062 8.898438 36.582031 8.609375 L 35.988281 8.453125 C 35.753906 8.390625 34.890625 8.464844 34.820312 8.320312 C 34.664062 8.109375 35.023438 7.457031 35.105469 7.324219 C 35.511719 6.671875 36.113281 6.300781 36.890625 6.019531 C 37.085938 5.949219 37.308594 5.914062 37.503906 5.867188 C 37.597656 5.84375 37.71875 5.871094 37.792969 5.828125 Z M 10.070312 5.90625 L 11.929688 5.90625 L 12.847656 5.925781 C 12.964844 5.953125 13.066406 6.046875 13.175781 6.078125 C 13.417969 6.144531 13.554688 6.039062 13.730469 6.171875 C 13.882812 6.289062 13.925781 6.53125 14 6.730469 C 14.125 7.070312 14.191406 7.480469 14.289062 7.859375 C 14.328125 8.03125 14.304688 8.167969 14.34375 8.339844 C 14.433594 8.722656 14.433594 9.148438 14.515625 9.546875 C 14.539062 9.640625 14.535156 9.871094 14.5 9.929688 C 14.457031 10.058594 14.367188 10.058594 14.230469 10.046875 C 14.011719 9.6875 14 9.0625 13.847656 8.644531 C 13.78125 8.46875 13.757812 8.285156 13.539062 8.261719 C 13.515625 8.246094 13.507812 8.246094 13.464844 8.242188 C 13.410156 8.285156 13.332031 8.304688 13.289062 8.359375 C 13.019531 8.726562 13.007812 9.542969 12.886719 10.066406 C 12.828125 10.320312 12.816406 10.679688 12.984375 10.792969 C 13.082031 10.867188 13.253906 10.816406 13.386719 10.8125 C 13.703125 10.804688 14.0625 10.75 14.34375 10.8125 C 14.449219 11.03125 14.351562 11.398438 14.289062 11.636719 L 14.097656 12.960938 C 14.082031 13.144531 14.070312 13.332031 14.058594 13.515625 C 13.945312 14.027344 13.980469 14.660156 13.980469 15.261719 C 13.980469 16.109375 14.015625 17.101562 14.191406 17.808594 C 14.21875 18.015625 14.242188 18.21875 14.269531 18.421875 C 14.363281 18.792969 14.40625 19.191406 14.515625 19.554688 C 14.582031 19.769531 14.699219 20.027344 14.652344 20.28125 C 14.480469 20.378906 14.191406 20.328125 14 20.28125 C 13.890625 20.277344 13.78125 20.269531 13.675781 20.265625 C 13.453125 20.214844 13.207031 20.179688 12.964844 20.207031 C 12.941406 20.242188 12.886719 20.269531 12.867188 20.300781 C 12.800781 20.429688 12.847656 20.898438 12.886719 21.070312 C 13.050781 21.753906 13.015625 22.503906 13.445312 22.929688 L 13.578125 22.929688 C 14.023438 22.535156 13.976562 21.792969 14.132812 21.125 C 14.171875 21.09375 14.210938 21.0625 14.25 21.03125 C 14.359375 21.027344 14.40625 21.050781 14.480469 21.070312 C 14.582031 21.390625 14.519531 21.925781 14.441406 22.257812 C 14.414062 22.5 14.390625 22.742188 14.363281 22.984375 C 14.269531 23.398438 14.214844 23.84375 14.097656 24.214844 C 14.003906 24.492188 13.929688 24.941406 13.730469 25.09375 C 13.539062 25.238281 13.355469 25.109375 13.136719 25.191406 C 13.042969 25.226562 12.960938 25.316406 12.847656 25.34375 L 12.601562 25.34375 C 12.433594 25.378906 12.183594 25.363281 11.988281 25.363281 L 10.835938 25.363281 C 10.523438 25.363281 10.078125 25.394531 9.839844 25.304688 C 9.351562 25.125 9.21875 24.507812 9.074219 23.984375 C 8.996094 23.710938 9.035156 23.25 8.785156 23.160156 C 8.660156 23.050781 8.292969 23.140625 8.113281 23.140625 C 7.558594 23.140625 6.703125 23.242188 6.351562 23.003906 C 5.8125 22.640625 6.027344 21.402344 5.582031 20.933594 C 5.171875 20.90625 4.457031 21.066406 4.144531 20.839844 C 3.96875 20.710938 3.945312 20.46875 3.878906 20.226562 C 3.765625 19.828125 3.742188 19.335938 3.648438 18.902344 C 3.609375 18.730469 3.640625 18.539062 3.609375 18.386719 C 3.53125 18.03125 3.667969 17.566406 3.496094 17.3125 C 3.316406 17.046875 2.363281 17.34375 2.054688 17.140625 C 1.839844 16.992188 1.875 16.695312 1.808594 16.390625 C 1.707031 15.9375 1.703125 14.738281 1.863281 14.359375 C 1.902344 14.265625 1.992188 14.214844 2.054688 14.148438 C 2.125 14.144531 2.179688 14.121094 2.230469 14.109375 L 2.554688 14.109375 C 2.832031 14.109375 3.160156 14.121094 3.378906 14.070312 L 3.496094 13.9375 C 3.59375 13.71875 3.492188 13.421875 3.550781 13.152344 C 3.601562 12.933594 3.554688 12.679688 3.609375 12.441406 C 3.683594 12.105469 3.6875 11.742188 3.761719 11.425781 C 3.839844 11.109375 3.820312 10.71875 4.050781 10.5625 C 4.394531 10.328125 5.171875 10.550781 5.566406 10.46875 C 5.90625 9.929688 5.789062 8.636719 6.292969 8.300781 C 6.46875 8.183594 6.773438 8.207031 7.058594 8.207031 L 8.191406 8.207031 C 8.390625 8.207031 8.597656 8.226562 8.765625 8.1875 C 9.101562 7.636719 9.066406 6.722656 9.4375 6.210938 C 9.519531 6.097656 9.6875 5.988281 9.839844 5.941406 C 9.917969 5.917969 10.007812 5.941406 10.070312 5.90625 Z M 46.707031 5.925781 L 48.890625 5.925781 C 49.421875 5.925781 49.878906 5.925781 50.097656 6.230469 C 50.328125 6.546875 50.421875 7.039062 50.539062 7.457031 C 50.648438 7.855469 50.570312 7.933594 50.828125 8.207031 C 51.328125 8.226562 51.953125 8.1875 52.535156 8.1875 C 52.886719 8.1875 53.226562 8.195312 53.378906 8.398438 C 53.765625 8.925781 53.613281 10.003906 54.046875 10.449219 C 54.503906 10.449219 55.203125 10.328125 55.503906 10.542969 C 55.691406 10.675781 55.707031 10.976562 55.773438 11.234375 C 55.859375 11.558594 55.867188 11.953125 55.945312 12.308594 C 56 12.554688 55.953125 12.808594 56.003906 13.035156 C 56.074219 13.359375 55.945312 13.800781 56.117188 14.015625 C 56.300781 14.238281 57.019531 14.027344 57.363281 14.109375 L 57.539062 14.167969 C 57.582031 14.234375 57.660156 14.296875 57.691406 14.378906 C 57.835938 14.769531 57.832031 16.039062 57.730469 16.488281 C 57.664062 16.761719 57.683594 17.054688 57.441406 17.140625 C 57.21875 17.308594 56.449219 17.164062 56.136719 17.234375 C 55.976562 17.496094 56.039062 17.621094 55.964844 17.964844 L 55.964844 18.308594 C 55.925781 18.480469 55.96875 18.691406 55.925781 18.882812 C 55.84375 19.25 55.847656 19.671875 55.753906 20.015625 C 55.671875 20.316406 55.667969 20.679688 55.449219 20.839844 C 55.113281 21.082031 54.300781 20.878906 53.914062 20.972656 C 53.617188 21.457031 53.695312 22.703125 53.28125 23.003906 C 52.785156 23.367188 51.429688 23.011719 50.75 23.160156 C 50.308594 23.851562 50.511719 25.117188 49.601562 25.34375 C 49.28125 25.351562 48.960938 25.355469 48.640625 25.363281 L 47.53125 25.363281 C 47.339844 25.363281 47.09375 25.378906 46.9375 25.34375 L 46.707031 25.34375 C 46.589844 25.316406 46.496094 25.222656 46.398438 25.191406 C 46.222656 25.132812 45.996094 25.203125 45.863281 25.113281 C 45.484375 24.859375 45.363281 23.777344 45.230469 23.214844 C 45.109375 22.710938 45.117188 22.125 45 21.585938 C 44.960938 21.414062 44.949219 21.128906 45.058594 21.050781 C 45.226562 20.925781 45.382812 21.109375 45.421875 21.242188 C 45.5625 21.71875 45.519531 22.808594 45.957031 22.929688 C 46.253906 23.007812 46.339844 22.578125 46.398438 22.390625 C 46.496094 22.09375 46.507812 21.753906 46.589844 21.414062 C 46.675781 21.070312 46.757812 20.636719 46.667969 20.28125 C 46.632812 20.261719 46.601562 20.234375 46.570312 20.207031 C 46.054688 20.183594 45.425781 20.40625 44.941406 20.300781 C 44.894531 20.226562 44.882812 20.171875 44.882812 20.035156 C 44.949219 19.933594 44.9375 19.796875 44.980469 19.667969 C 45.066406 19.398438 45.136719 19.074219 45.210938 18.789062 C 45.222656 18.679688 45.234375 18.570312 45.25 18.460938 C 45.34375 18.085938 45.367188 17.628906 45.460938 17.234375 C 45.515625 16.988281 45.464844 16.71875 45.515625 16.488281 C 45.523438 16.199219 45.53125 15.910156 45.535156 15.625 C 45.597656 15.34375 45.578125 14.550781 45.515625 14.28125 L 45.515625 13.957031 C 45.453125 13.671875 45.507812 13.347656 45.441406 13.054688 C 45.347656 12.660156 45.367188 12.21875 45.269531 11.808594 C 45.199219 11.519531 45.101562 11.144531 45.132812 10.851562 C 45.191406 10.8125 45.191406 10.785156 45.285156 10.773438 C 45.378906 10.714844 45.613281 10.773438 45.707031 10.792969 L 46.015625 10.792969 C 46.183594 10.828125 46.394531 10.832031 46.570312 10.8125 C 46.753906 10.542969 46.695312 10.277344 46.609375 9.929688 C 46.480469 9.40625 46.507812 8.742188 46.246094 8.359375 C 46.210938 8.308594 46.136719 8.285156 46.09375 8.242188 C 46.03125 8.242188 45.96875 8.242188 45.9375 8.261719 C 45.738281 8.332031 45.714844 8.550781 45.652344 8.761719 C 45.539062 9.132812 45.484375 9.613281 45.382812 9.988281 C 45.304688 10.011719 45.289062 10.042969 45.171875 10.046875 C 45.140625 10.011719 45.105469 9.992188 45.074219 9.949219 C 45.003906 9.859375 45.074219 9.0625 45.113281 8.894531 C 45.277344 8.203125 45.3125 7.441406 45.515625 6.824219 C 45.601562 6.566406 45.660156 6.25 45.863281 6.117188 C 45.988281 6.03125 46.15625 6.105469 46.339844 6.058594 C 46.4375 6.035156 46.621094 5.984375 46.707031 5.925781 Z M 28.800781 14.167969 C 29.480469 14.164062 30.351562 14.097656 30.910156 14.242188 C 31.058594 14.503906 30.929688 14.761719 31.003906 15.105469 C 31.074219 15.4375 31.011719 15.851562 31.082031 16.179688 C 31.125 16.394531 31.121094 16.679688 30.964844 16.734375 C 30.84375 16.832031 30.523438 16.792969 30.3125 16.792969 C 29.734375 16.792969 29.019531 16.847656 28.53125 16.734375 C 28.457031 16.621094 28.382812 16.363281 28.4375 16.121094 C 28.558594 15.566406 28.425781 14.839844 28.550781 14.300781 C 28.601562 14.269531 28.644531 14.207031 28.703125 14.1875 C 28.746094 14.171875 28.773438 14.183594 28.800781 14.167969 Z M 15.378906 16.238281 C 15.246094 16.75 15.3125 17.511719 15.4375 18 C 15.621094 18.722656 15.664062 19.449219 16.03125 19.976562 C 16.441406 20.5625 17.3125 20.804688 18.0625 21.050781 C 18.5625 21.210938 19.261719 21.46875 19.867188 21.316406 C 19.878906 21.289062 19.882812 21.253906 19.886719 21.222656 C 19.871094 21.203125 19.878906 21.21875 19.867188 21.183594 C 19.691406 21.097656 19.515625 20.957031 19.328125 20.878906 C 18.125 20.347656 17.070312 19.828125 16.414062 18.75 C 16.097656 18.230469 15.941406 17.523438 15.746094 16.910156 C 15.671875 16.6875 15.644531 16.246094 15.378906 16.238281 Z M 44.023438 16.351562 C 43.699219 17.035156 43.519531 17.886719 43.214844 18.578125 C 42.972656 19.132812 42.539062 19.605469 42.066406 19.9375 C 41.542969 20.304688 40.90625 20.613281 40.300781 20.878906 C 40.113281 20.960938 39.675781 21.074219 39.652344 21.300781 C 39.78125 21.378906 40.074219 21.410156 40.285156 21.355469 C 40.742188 21.234375 41.210938 21.148438 41.625 20.992188 C 42.335938 20.726562 43.175781 20.507812 43.5625 19.917969 C 43.894531 19.414062 43.929688 18.734375 44.097656 18.058594 C 44.207031 17.617188 44.335938 16.828125 44.15625 16.371094 L 44.136719 16.371094 L 44.136719 16.351562 Z M 31.945312 20.839844 C 32.238281 20.859375 32.570312 21.464844 32.769531 21.664062 C 33.246094 22.140625 33.921875 22.523438 34.628906 22.757812 C 34.945312 22.859375 35.273438 22.917969 35.605469 23.003906 C 35.789062 23.054688 35.984375 23.003906 36.007812 23.214844 C 35.964844 23.261719 35.949219 23.320312 35.914062 23.371094 C 35.835938 23.441406 35.757812 23.511719 35.683594 23.582031 C 35.511719 23.75 35.359375 23.929688 35.164062 24.078125 C 35.101562 24.148438 35.035156 24.21875 34.972656 24.289062 C 34.652344 24.53125 34.390625 24.839844 34.070312 25.074219 C 33.4375 25.550781 32.796875 26.027344 32.117188 26.457031 C 30.808594 27.28125 29.320312 27.902344 27.726562 28.429688 C 26.828125 28.730469 25.84375 28.832031 24.871094 29.0625 C 24.464844 29.15625 24 29.109375 23.605469 29.199219 L 23.242188 29.199219 C 22.960938 29.257812 22.003906 29.257812 21.726562 29.199219 L 21.324219 29.199219 C 20.980469 29.121094 20.625 29.164062 20.269531 29.082031 C 19.988281 29.015625 19.695312 29.011719 19.40625 28.929688 C 18.914062 28.789062 18.414062 28.652344 17.96875 28.488281 C 17.582031 28.34375 17.230469 28.222656 16.894531 28.046875 C 16.75 27.972656 16.582031 27.929688 16.492188 27.796875 L 16.703125 27.796875 C 16.816406 27.871094 16.996094 27.855469 17.144531 27.894531 C 17.375 27.953125 17.632812 27.992188 17.871094 28.046875 L 18.449219 28.105469 C 18.957031 28.222656 19.609375 28.199219 20.230469 28.199219 C 20.515625 28.199219 20.878906 28.238281 21.132812 28.179688 L 21.476562 28.179688 C 21.746094 28.136719 22.011719 28.09375 22.28125 28.046875 C 22.378906 28.039062 22.472656 28.035156 22.570312 28.027344 C 23.742188 27.734375 24.820312 27.496094 25.828125 27.070312 C 26.394531 26.832031 26.949219 26.625 27.4375 26.320312 C 27.601562 26.21875 27.855469 26.15625 27.859375 25.898438 C 27.78125 25.875 27.644531 25.878906 27.535156 25.878906 C 27.4375 25.941406 27.285156 25.921875 27.171875 25.957031 C 26.882812 26.046875 26.585938 26.097656 26.269531 26.1875 C 25.273438 26.472656 24.257812 26.613281 23.222656 26.609375 C 22.835938 26.609375 22.34375 26.667969 21.996094 26.589844 C 21.808594 26.582031 21.625 26.578125 21.4375 26.570312 C 21.09375 26.492188 20.714844 26.4375 20.402344 26.339844 C 20.230469 26.289062 19.964844 26.273438 19.90625 26.109375 C 20.550781 26.078125 21.308594 26.125 21.898438 25.996094 C 22.078125 25.984375 22.257812 25.96875 22.433594 25.957031 C 23.015625 25.8125 23.628906 25.738281 24.179688 25.554688 C 26.128906 24.90625 27.816406 24.039062 29.335938 22.96875 C 30.261719 22.3125 31.03125 21.503906 31.945312 20.839844 Z M 31.945312 20.839844 " fill-opacity="1" fill-rule="evenodd"/></svg>