<svg xmlns="http://www.w3.org/2000/svg" xmlns:xlink="http://www.w3.org/1999/xlink" width="81" zoomAndPan="magnify" viewBox="0 0 60.75 85.499998" height="114" preserveAspectRatio="xMidYMid meet" version="1.0"><defs><clipPath id="549b616ae7"><path d="M 0.0507812 35 L 59.703125 35 L 59.703125 85 L 0.0507812 85 Z M 0.0507812 35 " clip-rule="nonzero"/></clipPath><clipPath id="e6c6bfdfdd"><path d="M 0.0507812 35 L 59.703125 35 L 59.703125 85 L 0.0507812 85 Z M 0.0507812 35 " clip-rule="nonzero"/></clipPath></defs><path fill="#012430" d="M 38.011719 8.046875 C 38.011719 8.578125 37.957031 9.101562 37.855469 9.617188 C 37.753906 10.136719 37.597656 10.640625 37.398438 11.128906 C 37.195312 11.617188 36.945312 12.082031 36.652344 12.519531 C 36.359375 12.960938 36.027344 13.367188 35.652344 13.738281 C 35.277344 14.113281 34.871094 14.449219 34.433594 14.742188 C 33.992188 15.035156 33.53125 15.28125 33.042969 15.484375 C 32.554688 15.6875 32.050781 15.839844 31.53125 15.941406 C 31.011719 16.046875 30.488281 16.097656 29.960938 16.097656 C 29.433594 16.097656 28.910156 16.046875 28.390625 15.941406 C 27.871094 15.839844 27.371094 15.6875 26.882812 15.484375 C 26.394531 15.28125 25.929688 15.035156 25.488281 14.742188 C 25.050781 14.449219 24.644531 14.113281 24.269531 13.738281 C 23.894531 13.367188 23.5625 12.960938 23.269531 12.519531 C 22.976562 12.082031 22.726562 11.617188 22.523438 11.128906 C 22.324219 10.640625 22.171875 10.136719 22.066406 9.617188 C 21.964844 9.101562 21.914062 8.578125 21.914062 8.046875 C 21.914062 7.519531 21.964844 6.996094 22.066406 6.476562 C 22.171875 5.960938 22.324219 5.457031 22.523438 4.96875 C 22.726562 4.480469 22.976562 4.015625 23.269531 3.578125 C 23.5625 3.136719 23.894531 2.730469 24.269531 2.355469 C 24.644531 1.984375 25.050781 1.648438 25.488281 1.355469 C 25.929688 1.0625 26.394531 0.816406 26.882812 0.613281 C 27.371094 0.410156 27.871094 0.257812 28.390625 0.15625 C 28.910156 0.0507812 29.433594 0 29.960938 0 C 30.488281 0 31.011719 0.0507812 31.53125 0.15625 C 32.050781 0.257812 32.554688 0.410156 33.042969 0.613281 C 33.53125 0.816406 33.992188 1.0625 34.433594 1.355469 C 34.871094 1.648438 35.277344 1.984375 35.652344 2.355469 C 36.027344 2.730469 36.359375 3.136719 36.652344 3.578125 C 36.945312 4.015625 37.195312 4.480469 37.398438 4.96875 C 37.597656 5.457031 37.753906 5.960938 37.855469 6.476562 C 37.957031 6.996094 38.011719 7.519531 38.011719 8.046875 Z M 38.011719 8.046875 " fill-opacity="1" fill-rule="nonzero"/><g clip-path="url(#549b616ae7)"><path fill="#012430" d="M 55.679688 53.085938 C 55.636719 53.5 55.804688 53.664062 55.957031 53.726562 C 56.367188 53.898438 56.753906 53.449219 57.527344 52.511719 C 57.589844 52.429688 57.652344 52.355469 57.714844 52.28125 C 57.796875 52.449219 57.890625 52.671875 57.964844 52.839844 C 58.285156 53.589844 58.527344 54.148438 58.945312 54.148438 C 58.980469 54.148438 59.015625 54.144531 59.054688 54.136719 C 59.472656 54.046875 59.863281 53.960938 59.738281 47.414062 C 59.667969 43.789062 59.167969 41.210938 58.507812 39.371094 C 58.421875 39.683594 58.292969 39.992188 58.113281 40.285156 L 58.070312 40.359375 C 58.582031 42.054688 58.960938 44.339844 59.023438 47.425781 C 59.09375 51.082031 58.988281 52.554688 58.886719 53.148438 C 58.792969 52.957031 58.695312 52.726562 58.621094 52.558594 C 58.300781 51.8125 58.132812 51.453125 57.804688 51.398438 C 57.78125 51.394531 57.757812 51.390625 57.734375 51.390625 C 57.609375 51.390625 57.492188 51.445312 57.40625 51.542969 C 57.285156 51.671875 57.132812 51.859375 56.972656 52.058594 C 56.832031 52.230469 56.625 52.480469 56.4375 52.691406 C 56.894531 48.039062 56.84375 44.160156 56.335938 41.433594 C 56.519531 41.261719 56.683594 41.0625 56.820312 40.835938 L 57.410156 39.859375 C 58.230469 38.507812 57.796875 36.746094 56.445312 35.929688 C 55.09375 35.109375 53.335938 35.542969 52.515625 36.894531 L 52.066406 37.632812 L 51.402344 37.144531 L 51.582031 36.84375 C 47.5625 36.507812 39.972656 36.527344 32.808594 36.585938 C 31.609375 36.59375 30.625 36.601562 29.960938 36.601562 C 29.296875 36.601562 28.3125 36.59375 27.113281 36.585938 C 19.953125 36.527344 12.363281 36.507812 8.339844 36.84375 L 8.523438 37.144531 L 7.855469 37.632812 L 7.40625 36.894531 C 6.585938 35.542969 4.828125 35.109375 3.476562 35.929688 C 2.125 36.746094 1.691406 38.507812 2.511719 39.859375 L 3.101562 40.835938 C 3.238281 41.0625 3.402344 41.261719 3.589844 41.433594 C 3.082031 44.160156 3.027344 48.039062 3.484375 52.691406 C 3.296875 52.480469 3.09375 52.230469 2.949219 52.058594 C 2.789062 51.859375 2.636719 51.671875 2.515625 51.542969 C 2.410156 51.425781 2.265625 51.371094 2.117188 51.398438 C 1.789062 51.453125 1.621094 51.8125 1.300781 52.558594 C 1.226562 52.726562 1.128906 52.957031 1.035156 53.148438 C 0.933594 52.554688 0.828125 51.082031 0.902344 47.425781 C 0.960938 44.339844 1.339844 42.054688 1.851562 40.359375 L 1.808594 40.285156 C 1.628906 39.992188 1.503906 39.683594 1.414062 39.371094 C 0.753906 41.210938 0.253906 43.789062 0.183594 47.414062 C 0.0585938 53.960938 0.453125 54.046875 0.867188 54.136719 C 1.355469 54.242188 1.609375 53.652344 1.957031 52.839844 C 2.03125 52.671875 2.125 52.449219 2.210938 52.28125 C 2.269531 52.355469 2.332031 52.429688 2.398438 52.511719 C 3.167969 53.453125 3.558594 53.894531 3.964844 53.726562 C 4.117188 53.664062 4.285156 53.5 4.242188 53.085938 C 3.726562 48.148438 3.808594 44.421875 4.230469 41.886719 C 4.640625 42.097656 5.09375 42.210938 5.550781 42.210938 C 5.597656 42.210938 5.644531 42.207031 5.691406 42.203125 C 5.765625 42.210938 5.839844 42.214844 5.914062 42.214844 C 6.109375 42.214844 6.300781 42.195312 6.496094 42.152344 L 18.785156 39.613281 C 19.027344 39.5625 19.25 39.476562 19.464844 39.371094 L 19.464844 37.269531 C 19.738281 37.269531 20.011719 37.269531 20.285156 37.269531 L 20.285156 80.421875 C 20.285156 82.867188 22.265625 84.84375 24.710938 84.84375 C 27.152344 84.84375 29.132812 82.867188 29.132812 80.421875 L 29.132812 48.128906 L 30.789062 48.128906 L 30.789062 80.421875 C 30.789062 82.867188 32.769531 84.84375 35.214844 84.84375 C 37.65625 84.84375 39.636719 82.867188 39.636719 80.421875 L 39.636719 37.269531 C 39.910156 37.269531 40.183594 37.269531 40.457031 37.269531 L 40.457031 39.371094 C 40.671875 39.476562 40.898438 39.5625 41.136719 39.613281 L 53.425781 42.152344 C 53.621094 42.195312 53.816406 42.214844 54.007812 42.214844 C 54.082031 42.214844 54.15625 42.210938 54.230469 42.203125 C 54.277344 42.207031 54.324219 42.210938 54.371094 42.210938 C 54.828125 42.210938 55.28125 42.097656 55.691406 41.886719 C 56.113281 44.421875 56.195312 48.148438 55.679688 53.085938 Z M 55.679688 53.085938 " fill-opacity="1" fill-rule="nonzero"/></g><path fill="#012430" d="M 7.328125 35.5625 C 12.554688 35.582031 26.527344 35.632812 29.960938 35.632812 C 33.394531 35.632812 47.367188 35.582031 52.59375 35.5625 C 52.984375 35.230469 53.4375 34.984375 53.933594 34.839844 C 52.703125 34.84375 49.832031 34.855469 46.457031 34.867188 L 44.238281 34.410156 C 43.980469 32.851562 43.570312 30.574219 43.042969 28.273438 C 41.777344 22.730469 40.410156 19.058594 37.796875 18.296875 C 37.507812 18.195312 37.195312 18.136719 36.871094 18.136719 L 23.050781 18.136719 C 22.726562 18.136719 22.417969 18.195312 22.128906 18.296875 C 19.511719 19.058594 18.144531 22.730469 16.878906 28.273438 C 16.351562 30.574219 15.941406 32.851562 15.683594 34.410156 L 13.464844 34.867188 C 10.09375 34.855469 7.21875 34.84375 5.988281 34.839844 C 6.484375 34.984375 6.9375 35.230469 7.328125 35.5625 Z M 40.460938 34.890625 C 40.183594 34.890625 39.910156 34.890625 39.636719 34.890625 L 39.636719 31.75 L 40.460938 31.75 Z M 19.464844 31.75 L 20.285156 31.75 L 20.285156 34.890625 C 20.015625 34.890625 19.738281 34.890625 19.464844 34.890625 Z M 19.464844 31.75 " fill-opacity="1" fill-rule="nonzero"/><path fill="#012430" d="M 38.011719 8.046875 C 38.011719 8.578125 37.957031 9.101562 37.855469 9.617188 C 37.753906 10.136719 37.597656 10.640625 37.398438 11.128906 C 37.195312 11.617188 36.945312 12.082031 36.652344 12.519531 C 36.359375 12.960938 36.027344 13.367188 35.652344 13.738281 C 35.277344 14.113281 34.871094 14.449219 34.433594 14.742188 C 33.992188 15.035156 33.53125 15.28125 33.042969 15.484375 C 32.554688 15.6875 32.050781 15.839844 31.53125 15.941406 C 31.011719 16.046875 30.488281 16.097656 29.960938 16.097656 C 29.433594 16.097656 28.910156 16.046875 28.390625 15.941406 C 27.871094 15.839844 27.371094 15.6875 26.882812 15.484375 C 26.394531 15.28125 25.929688 15.035156 25.488281 14.742188 C 25.050781 14.449219 24.644531 14.113281 24.269531 13.738281 C 23.894531 13.367188 23.5625 12.960938 23.269531 12.519531 C 22.976562 12.082031 22.726562 11.617188 22.523438 11.128906 C 22.324219 10.640625 22.171875 10.136719 22.066406 9.617188 C 21.964844 9.101562 21.914062 8.578125 21.914062 8.046875 C 21.914062 7.519531 21.964844 6.996094 22.066406 6.476562 C 22.171875 5.960938 22.324219 5.457031 22.523438 4.96875 C 22.726562 4.480469 22.976562 4.015625 23.269531 3.578125 C 23.5625 3.136719 23.894531 2.730469 24.269531 2.355469 C 24.644531 1.984375 25.050781 1.648438 25.488281 1.355469 C 25.929688 1.0625 26.394531 0.816406 26.882812 0.613281 C 27.371094 0.410156 27.871094 0.257812 28.390625 0.15625 C 28.910156 0.0507812 29.433594 0 29.960938 0 C 30.488281 0 31.011719 0.0507812 31.53125 0.15625 C 32.050781 0.257812 32.554688 0.410156 33.042969 0.613281 C 33.53125 0.816406 33.992188 1.0625 34.433594 1.355469 C 34.871094 1.648438 35.277344 1.984375 35.652344 2.355469 C 36.027344 2.730469 36.359375 3.136719 36.652344 3.578125 C 36.945312 4.015625 37.195312 4.480469 37.398438 4.96875 C 37.597656 5.457031 37.753906 5.960938 37.855469 6.476562 C 37.957031 6.996094 38.011719 7.519531 38.011719 8.046875 Z M 38.011719 8.046875 " fill-opacity="1" fill-rule="nonzero"/><g clip-path="url(#e6c6bfdfdd)"><path fill="#012430" d="M 55.679688 53.085938 C 55.636719 53.5 55.804688 53.664062 55.957031 53.726562 C 56.367188 53.898438 56.753906 53.449219 57.527344 52.511719 C 57.589844 52.429688 57.652344 52.355469 57.714844 52.28125 C 57.796875 52.449219 57.890625 52.671875 57.964844 52.839844 C 58.285156 53.589844 58.527344 54.148438 58.945312 54.148438 C 58.980469 54.148438 59.015625 54.144531 59.054688 54.136719 C 59.472656 54.046875 59.863281 53.960938 59.738281 47.414062 C 59.667969 43.789062 59.167969 41.210938 58.507812 39.371094 C 58.421875 39.683594 58.292969 39.992188 58.113281 40.285156 L 58.070312 40.359375 C 58.582031 42.054688 58.960938 44.339844 59.023438 47.425781 C 59.09375 51.082031 58.988281 52.554688 58.886719 53.148438 C 58.792969 52.957031 58.695312 52.726562 58.621094 52.558594 C 58.300781 51.8125 58.132812 51.453125 57.804688 51.398438 C 57.78125 51.394531 57.757812 51.390625 57.734375 51.390625 C 57.609375 51.390625 57.492188 51.445312 57.40625 51.542969 C 57.285156 51.671875 57.132812 51.859375 56.972656 52.058594 C 56.832031 52.230469 56.625 52.480469 56.4375 52.691406 C 56.894531 48.039062 56.84375 44.160156 56.335938 41.433594 C 56.519531 41.261719 56.683594 41.0625 56.820312 40.835938 L 57.410156 39.859375 C 58.230469 38.507812 57.796875 36.746094 56.445312 35.929688 C 55.09375 35.109375 53.335938 35.542969 52.515625 36.894531 L 52.066406 37.632812 L 51.402344 37.144531 L 51.582031 36.84375 C 47.5625 36.507812 39.972656 36.527344 32.808594 36.585938 C 31.609375 36.59375 30.625 36.601562 29.960938 36.601562 C 29.296875 36.601562 28.3125 36.59375 27.113281 36.585938 C 19.953125 36.527344 12.363281 36.507812 8.339844 36.84375 L 8.523438 37.144531 L 7.855469 37.632812 L 7.40625 36.894531 C 6.585938 35.542969 4.828125 35.109375 3.476562 35.929688 C 2.125 36.746094 1.691406 38.507812 2.511719 39.859375 L 3.101562 40.835938 C 3.238281 41.0625 3.402344 41.261719 3.589844 41.433594 C 3.082031 44.160156 3.027344 48.039062 3.484375 52.691406 C 3.296875 52.480469 3.09375 52.230469 2.949219 52.058594 C 2.789062 51.859375 2.636719 51.671875 2.515625 51.542969 C 2.410156 51.425781 2.265625 51.371094 2.117188 51.398438 C 1.789062 51.453125 1.621094 51.8125 1.300781 52.558594 C 1.226562 52.726562 1.128906 52.957031 1.035156 53.148438 C 0.933594 52.554688 0.828125 51.082031 0.902344 47.425781 C 0.960938 44.339844 1.339844 42.054688 1.851562 40.359375 L 1.808594 40.285156 C 1.628906 39.992188 1.503906 39.683594 1.414062 39.371094 C 0.753906 41.210938 0.253906 43.789062 0.183594 47.414062 C 0.0585938 53.960938 0.453125 54.046875 0.867188 54.136719 C 1.355469 54.242188 1.609375 53.652344 1.957031 52.839844 C 2.03125 52.671875 2.125 52.449219 2.210938 52.28125 C 2.269531 52.355469 2.332031 52.429688 2.398438 52.511719 C 3.167969 53.453125 3.558594 53.894531 3.964844 53.726562 C 4.117188 53.664062 4.285156 53.5 4.242188 53.085938 C 3.726562 48.148438 3.808594 44.421875 4.230469 41.886719 C 4.640625 42.097656 5.09375 42.210938 5.550781 42.210938 C 5.597656 42.210938 5.644531 42.207031 5.691406 42.203125 C 5.765625 42.210938 5.839844 42.214844 5.914062 42.214844 C 6.109375 42.214844 6.300781 42.195312 6.496094 42.152344 L 18.785156 39.613281 C 19.027344 39.5625 19.25 39.476562 19.464844 39.371094 L 19.464844 37.269531 C 19.738281 37.269531 20.011719 37.269531 20.285156 37.269531 L 20.285156 80.421875 C 20.285156 82.867188 22.265625 84.84375 24.710938 84.84375 C 27.152344 84.84375 29.132812 82.867188 29.132812 80.421875 L 29.132812 48.128906 L 30.789062 48.128906 L 30.789062 80.421875 C 30.789062 82.867188 32.769531 84.84375 35.214844 84.84375 C 37.65625 84.84375 39.636719 82.867188 39.636719 80.421875 L 39.636719 37.269531 C 39.910156 37.269531 40.183594 37.269531 40.457031 37.269531 L 40.457031 39.371094 C 40.671875 39.476562 40.898438 39.5625 41.136719 39.613281 L 53.425781 42.152344 C 53.621094 42.195312 53.816406 42.214844 54.007812 42.214844 C 54.082031 42.214844 54.15625 42.210938 54.230469 42.203125 C 54.277344 42.207031 54.324219 42.210938 54.371094 42.210938 C 54.828125 42.210938 55.28125 42.097656 55.691406 41.886719 C 56.113281 44.421875 56.195312 48.148438 55.679688 53.085938 Z M 55.679688 53.085938 " fill-opacity="1" fill-rule="nonzero"/></g><path fill="#012430" d="M 7.328125 35.5625 C 12.554688 35.582031 26.527344 35.632812 29.960938 35.632812 C 33.394531 35.632812 47.367188 35.582031 52.59375 35.5625 C 52.984375 35.230469 53.4375 34.984375 53.933594 34.839844 C 52.703125 34.84375 49.832031 34.855469 46.457031 34.867188 L 44.238281 34.410156 C 43.980469 32.851562 43.570312 30.574219 43.042969 28.273438 C 41.777344 22.730469 40.410156 19.058594 37.796875 18.296875 C 37.507812 18.195312 37.195312 18.136719 36.871094 18.136719 L 23.050781 18.136719 C 22.726562 18.136719 22.417969 18.195312 22.128906 18.296875 C 19.511719 19.058594 18.144531 22.730469 16.878906 28.273438 C 16.351562 30.574219 15.941406 32.851562 15.683594 34.410156 L 13.464844 34.867188 C 10.09375 34.855469 7.21875 34.84375 5.988281 34.839844 C 6.484375 34.984375 6.9375 35.230469 7.328125 35.5625 Z M 40.460938 34.890625 C 40.183594 34.890625 39.910156 34.890625 39.636719 34.890625 L 39.636719 31.75 L 40.460938 31.75 Z M 19.464844 31.75 L 20.285156 31.75 L 20.285156 34.890625 C 20.015625 34.890625 19.738281 34.890625 19.464844 34.890625 Z M 19.464844 31.75 " fill-opacity="1" fill-rule="nonzero"/></svg>