<svg xmlns="http://www.w3.org/2000/svg" width="81" height="114" viewBox="0 0 60.75 85.5"><defs><clipPath id="a"><path d="M.05 35h59.653v50H.051Zm0 0"/></clipPath><clipPath id="b"><path d="M.05 35h59.653v50H.051Zm0 0"/></clipPath></defs><path fill="#012430" d="M38.012 8.047a8.1 8.1 0 0 1-.614 3.082 8 8 0 0 1-.746 1.39 7.7 7.7 0 0 1-1 1.22q-.562.562-1.218 1.003-.661.44-1.391.742a8 8 0 0 1-1.512.457 8 8 0 0 1-1.57.157q-.79.001-1.57-.157a8 8 0 0 1-1.508-.457 8.2 8.2 0 0 1-1.395-.742 8 8 0 0 1-1.218-1.004 7.7 7.7 0 0 1-1-1.218 8 8 0 0 1-.747-1.391 8.4 8.4 0 0 1-.457-1.512 8.1 8.1 0 0 1 .457-4.648q.307-.734.747-1.39a8 8 0 0 1 1-1.224 8.3 8.3 0 0 1 1.218-1q.663-.438 1.395-.742A8 8 0 0 1 28.39.156 8 8 0 0 1 29.96 0q.79-.001 1.57.156.78.153 1.512.457.731.304 1.39.742a8.3 8.3 0 0 1 1.22 1 8 8 0 0 1 1 1.223q.44.657.745 1.39a8.17 8.17 0 0 1 .613 3.078m0 0"/><g clip-path="url(#a)"><path fill="#012430" d="M55.68 53.086c-.043.414.125.578.277.64.41.172.797-.277 1.57-1.214q.094-.122.188-.23c.082.167.176.39.25.558.32.75.562 1.308.98 1.308a.6.6 0 0 0 .11-.011c.418-.09.808-.176.683-6.723-.07-3.625-.57-6.203-1.23-8.043a3.5 3.5 0 0 1-.395.914l-.043.074c.512 1.696.89 3.98.953 7.067.07 3.656-.035 5.129-.136 5.722-.094-.191-.192-.421-.266-.59-.32-.745-.488-1.105-.816-1.16a.4.4 0 0 0-.07-.007.44.44 0 0 0-.329.152 10 10 0 0 0-.433.516c-.141.171-.348.421-.535.632.457-4.652.406-8.53-.102-11.257q.278-.258.484-.598l.59-.977a2.86 2.86 0 0 0-.965-3.93 2.86 2.86 0 0 0-3.93.966l-.449.738-.664-.488.18-.301c-4.02-.336-11.61-.317-18.773-.258-1.2.008-2.184.016-2.848.016s-1.648-.008-2.848-.016c-7.16-.059-14.75-.078-18.773.258l.183.3-.668.489-.449-.738a2.86 2.86 0 0 0-3.93-.965 2.86 2.86 0 0 0-.964 3.93l.59.976q.205.34.488.598c-.508 2.726-.563 6.605-.106 11.257-.187-.21-.39-.46-.535-.632-.16-.2-.312-.387-.433-.516a.43.43 0 0 0-.399-.145c-.328.055-.496.414-.816 1.16-.074.169-.172.399-.266.59-.101-.593-.207-2.066-.133-5.722.059-3.086.438-5.371.95-7.067l-.043-.074a3.7 3.7 0 0 1-.395-.914c-.66 1.84-1.16 4.418-1.23 8.043-.125 6.547.27 6.633.683 6.723.488.105.742-.485 1.09-1.297.074-.168.168-.39.254-.559l.187.23c.77.942 1.16 1.384 1.567 1.216.152-.063.32-.227.277-.641-.515-4.938-.433-8.664-.012-11.2.41.212.864.325 1.32.325q.072-.001.141-.008.112.012.223.012.291 0 .582-.063l12.29-2.539a3 3 0 0 0 .679-.242V37.27h.82v43.152a4.42 4.42 0 0 0 4.426 4.422 4.42 4.42 0 0 0 4.422-4.422V48.129h1.656v32.293a4.42 4.42 0 0 0 4.426 4.422 4.42 4.42 0 0 0 4.422-4.422V37.27h.82v2.101c.215.106.441.191.68.242l12.289 2.54a2.7 2.7 0 0 0 .804.05q.07.007.141.008c.457 0 .91-.113 1.32-.324.422 2.535.504 6.261-.011 11.199m0 0"/></g><path fill="#012430" d="M7.328 35.563c5.227.019 19.2.07 22.633.07 3.434 0 17.406-.051 22.633-.07.39-.333.843-.579 1.34-.723l-7.477.027-2.219-.457a105 105 0 0 0-1.195-6.137c-1.266-5.543-2.633-9.214-5.246-9.976a2.8 2.8 0 0 0-.926-.16h-13.82a2.8 2.8 0 0 0-.922.16c-2.617.762-3.984 4.433-5.25 9.976-.527 2.301-.938 4.579-1.195 6.137l-2.22.457-7.476-.027c.496.144.95.39 1.34.722m33.133-.672h-.824V31.75h.824ZM19.465 31.75h.82v3.14h-.82ZM38.012 8.047a8.1 8.1 0 0 1-.614 3.082 8 8 0 0 1-.746 1.39 7.7 7.7 0 0 1-1 1.22q-.562.562-1.218 1.003-.661.44-1.391.742a8 8 0 0 1-1.512.457 8 8 0 0 1-1.57.157q-.79.001-1.57-.157a8 8 0 0 1-1.508-.457 8.2 8.2 0 0 1-1.395-.742 8 8 0 0 1-1.218-1.004 7.7 7.7 0 0 1-1-1.218 8 8 0 0 1-.747-1.391 8.4 8.4 0 0 1-.457-1.512 8.1 8.1 0 0 1 .457-4.648q.307-.734.747-1.39a8 8 0 0 1 1-1.224 8.3 8.3 0 0 1 1.218-1q.663-.438 1.395-.742A8 8 0 0 1 28.39.156 8 8 0 0 1 29.96 0q.79-.001 1.57.156.78.153 1.512.457.731.304 1.39.742a8.3 8.3 0 0 1 1.22 1 8 8 0 0 1 1 1.223q.44.657.745 1.39a8.17 8.17 0 0 1 .613 3.078m0 0"/><g clip-path="url(#b)"><path fill="#012430" d="M55.68 53.086c-.043.414.125.578.277.64.41.172.797-.277 1.57-1.214q.094-.122.188-.23c.082.167.176.39.25.558.32.75.562 1.308.98 1.308a.6.6 0 0 0 .11-.011c.418-.09.808-.176.683-6.723-.07-3.625-.57-6.203-1.23-8.043a3.5 3.5 0 0 1-.395.914l-.043.074c.512 1.696.89 3.98.953 7.067.07 3.656-.035 5.129-.136 5.722-.094-.191-.192-.421-.266-.59-.32-.745-.488-1.105-.816-1.16a.4.4 0 0 0-.07-.007.44.44 0 0 0-.329.152 10 10 0 0 0-.433.516c-.141.171-.348.421-.535.632.457-4.652.406-8.53-.102-11.257q.278-.258.484-.598l.59-.977a2.86 2.86 0 0 0-.965-3.93 2.86 2.86 0 0 0-3.93.966l-.449.738-.664-.488.18-.301c-4.02-.336-11.61-.317-18.773-.258-1.2.008-2.184.016-2.848.016s-1.648-.008-2.848-.016c-7.16-.059-14.75-.078-18.773.258l.183.3-.668.489-.449-.738a2.86 2.86 0 0 0-3.93-.965 2.86 2.86 0 0 0-.964 3.93l.59.976q.205.34.488.598c-.508 2.726-.563 6.605-.106 11.257-.187-.21-.39-.46-.535-.632-.16-.2-.312-.387-.433-.516a.43.43 0 0 0-.399-.145c-.328.055-.496.414-.816 1.16-.074.169-.172.399-.266.59-.101-.593-.207-2.066-.133-5.722.059-3.086.438-5.371.95-7.067l-.043-.074a3.7 3.7 0 0 1-.395-.914c-.66 1.84-1.16 4.418-1.23 8.043-.125 6.547.27 6.633.683 6.723.488.105.742-.485 1.09-1.297.074-.168.168-.39.254-.559l.187.23c.77.942 1.16 1.384 1.567 1.216.152-.063.32-.227.277-.641-.515-4.938-.433-8.664-.012-11.2.41.212.864.325 1.32.325q.072-.001.141-.008.112.012.223.012.291 0 .582-.063l12.29-2.539a3 3 0 0 0 .679-.242V37.27h.82v43.152a4.42 4.42 0 0 0 4.426 4.422 4.42 4.42 0 0 0 4.422-4.422V48.129h1.656v32.293a4.42 4.42 0 0 0 4.426 4.422 4.42 4.42 0 0 0 4.422-4.422V37.27h.82v2.101c.215.106.441.191.68.242l12.289 2.54a2.7 2.7 0 0 0 .804.05q.07.007.141.008c.457 0 .91-.113 1.32-.324.422 2.535.504 6.261-.011 11.199m0 0"/></g><path fill="#012430" d="M7.328 35.563c5.227.019 19.2.07 22.633.07 3.434 0 17.406-.051 22.633-.07.39-.333.843-.579 1.34-.723l-7.477.027-2.219-.457a105 105 0 0 0-1.195-6.137c-1.266-5.543-2.633-9.214-5.246-9.976a2.8 2.8 0 0 0-.926-.16h-13.82a2.8 2.8 0 0 0-.922.16c-2.617.762-3.984 4.433-5.25 9.976-.527 2.301-.938 4.579-1.195 6.137l-2.22.457-7.476-.027c.496.144.95.39 1.34.722m33.133-.672h-.824V31.75h.824ZM19.465 31.75h.82v3.14h-.82Zm0 0"/></svg>