<svg xmlns="http://www.w3.org/2000/svg" width="120" height="116" viewBox="0 0 90 87"><defs><clipPath id="a"><path d="M0 1.27h89.25v85.5H0Zm0 0"/></clipPath><clipPath id="b"><path d="M0 0h89.25v85.5H0Zm0 0"/></clipPath></defs><g clip-path="url(#a)"><path fill="#012430" fill-rule="evenodd" d="m53.316 72.3-3.77-28.277h7.017l.78-1.203a3.2 3.2 0 0 0 .524-1.402l-13.11.016v6.433h-3.26l-3.259 24.434Zm25.012 7.274-.656 4.93a2.776 2.776 0 0 1-2.762 2.422H59.836a2.773 2.773 0 0 1-2.762-2.422l-.66-4.93Zm4.461-33.441-.602 4.527H52.56l-.606-4.527Zm-.883 6.637-1.472 11.039-1.825 13.652H56.133l-1.82-13.652-1.473-11.04ZM65.082 67.93c-.59 0-1.125.242-1.512.629-.39.386-.629.925-.629 1.515v4.578c0 .59.239 1.125.63 1.512.39.39.925.629 1.511.629h4.578c.586 0 1.117-.238 1.508-.625l.008-.008a2.14 2.14 0 0 0 .629-1.508v-4.578c0-.547-.211-1.05-.555-1.433q-.034-.042-.074-.082a2.14 2.14 0 0 0-1.516-.63Zm4.578 2.11h-4.578q-.012 0-.023.01-.007.013-.008.024v4.578a.03.03 0 0 0 .008.02v.008q.006.005.023.004h4.578q.018.001.024-.004l.004-.004q.006-.006.007-.024v-4.578q.001-.01-.004-.015l-.007-.008q-.012-.012-.024-.012M59.352 57.784v.008a1.77 1.77 0 0 0 0 2.516l2.168 2.171a1.781 1.781 0 0 0 2.434.082.6.6 0 0 0 .089-.082l2.172-2.171h-.004c.352-.352.523-.809.523-1.262s-.171-.91-.52-1.258l-2.171-2.172a1.78 1.78 0 0 0-1.262-.523c-.418 0-.836.148-1.172.445q-.044.035-.09.078Zm3.43-.445-1.708 1.707 1.707 1.71 1.711-1.71Zm7.53 4.469.004.004-.004.003a1.99 1.99 0 0 0 0 2.813l2.793 2.793a1.997 1.997 0 0 0 2.82 0l2.794-2.793a1.99 1.99 0 0 0 .074-2.734.5.5 0 0 0-.074-.083l-2.793-2.792a1.99 1.99 0 0 0-1.41-.586v.004a2 2 0 0 0-1.41.582l-2.793 2.792Zm4.204-1.215-2.63 2.625 2.63 2.629 2.629-2.63Zm-4.762-16.57 1.035-7.047a1.06 1.06 0 0 1 1.043-.903H88.27a1.055 1.055 0 0 1 0 2.11H72.742l-.86 5.84Zm-27.11 1.734H6.243v-6.453h36.406v6.453Zm-32.66-8.563c.211-7.273 6.227-13.156 13.547-13.156h1.828c7.32 0 13.332 5.883 13.543 13.156ZM9.52 47.867h29.847l-2.043 15.324-2.722 20.414a2.734 2.734 0 0 1-2.723 2.387H17.012a2.74 2.74 0 0 1-2.727-2.387l-2.722-20.414Zm22.757 2.903-1.336 10.02a1.05 1.05 0 0 0 2.086.269l1.336-10.02a1.05 1.05 0 0 0-.906-1.176 1.05 1.05 0 0 0-1.18.907m-1.77 13.273-.433 3.246a1.057 1.057 0 0 0 .906 1.18 1.057 1.057 0 0 0 1.18-.91l.43-3.246a1.045 1.045 0 0 0-.906-1.176 1.045 1.045 0 0 0-1.176.906m-1.062 7.96-1.347 10.099a1.052 1.052 0 0 0 2.086.273l1.347-10.098a1.052 1.052 0 0 0-2.086-.273m-12.57-48.581-.512-3.457h-15.3a1.055 1.055 0 0 1 0-2.11h16.21c.516 0 .965.375 1.043.903l.57 3.879a16 16 0 0 0-2.011.785M37.957 74.41l-1.023 7.684H54.62l-1.023-7.684ZM35.113 1.277h18.063v5.106H35.113Zm1.965 25.95a15.6 15.6 0 0 1 3.934 9.906l.004.062h3.742v2.11h13.195V27.227Zm20.813-2.11v-.062c0-5.227-2.95-9.793-7.27-12.117V8.492H37.664v4.445c-3.691 1.989-6.383 5.618-7.086 9.891 1.527.543 2.95 1.32 4.223 2.29Zm0 0"/></g><g clip-path="url(#b)"><path fill="#012430" fill-rule="evenodd" d="m53.316 71.031-3.77-28.281h7.017l.78-1.2c.294-.448.462-.902.524-1.405l-13.11.02v6.433h-3.26L38.237 71.03Zm25.012 7.27-.656 4.933a2.77 2.77 0 0 1-2.762 2.418H59.836a2.77 2.77 0 0 1-2.762-2.418l-.66-4.933Zm4.461-33.442-.602 4.532H52.56l-.606-4.532Zm-.883 6.641-1.472 11.035-1.825 13.656H56.133l-1.82-13.656L52.84 51.5ZM65.082 66.66c-.59 0-1.125.238-1.512.63-.39.386-.629.92-.629 1.51v4.579c0 .594.239 1.129.63 1.516v-.004c.39.39.925.632 1.511.632h4.578c.586 0 1.117-.238 1.508-.625l.008-.007c.386-.391.629-.926.629-1.512V68.8c0-.547-.211-1.047-.555-1.43-.023-.027-.047-.058-.074-.082a2.13 2.13 0 0 0-1.516-.629Zm4.578 2.11h-4.578q-.012 0-.023.007-.007.012-.008.024v4.578q.001.012.008.023v.004q.006.007.023.008h4.578q.018-.001.024-.008l.004-.004q.006-.006.007-.023V68.8q.001-.006-.004-.012l-.007-.008q-.012-.011-.024-.011M59.352 56.516v.004a1.78 1.78 0 0 0 0 2.52l2.168 2.17a1.79 1.79 0 0 0 2.433.083q.048-.041.09-.082l2.172-2.172-.004-.004c.352-.347.523-.805.523-1.258 0-.457-.171-.914-.52-1.261l-2.171-2.168a1.78 1.78 0 0 0-1.262-.524c-.418 0-.836.149-1.172.446a1 1 0 0 0-.09.078Zm3.43-.45-1.708 1.711 1.707 1.711 1.711-1.71Zm7.53 4.473.004.004h-.004a1.995 1.995 0 0 0 0 2.816l2.793 2.793a1.997 1.997 0 0 0 2.82 0l2.794-2.793c.386-.39.582-.902.582-1.41 0-.472-.168-.949-.508-1.328q-.034-.041-.074-.082l-2.793-2.793a2 2 0 0 0-1.41-.582v.004c-.512 0-1.024.191-1.41.578Zm4.204-1.219-2.63 2.63 2.63 2.628 2.629-2.629Zm-4.762-16.57 1.035-7.043a1.054 1.054 0 0 1 1.043-.902H88.27a1.055 1.055 0 0 1 0 2.11H72.742l-.86 5.835Zm-27.11 1.738H6.243v-6.453h36.406v6.453Zm-32.66-8.566c.211-7.27 6.227-13.156 13.547-13.156h1.828c7.32 0 13.332 5.886 13.543 13.156ZM9.52 46.598h29.847l-2.043 15.32-2.722 20.418a2.734 2.734 0 0 1-2.723 2.383H17.012a2.74 2.74 0 0 1-2.727-2.383l-2.722-20.418Zm22.757 2.898-1.336 10.02a1.052 1.052 0 0 0 2.086.273l1.336-10.02a1.052 1.052 0 0 0-2.086-.273m-1.77 13.274-.433 3.246a1.052 1.052 0 0 0 2.086.273l.43-3.246a1.049 1.049 0 1 0-2.082-.273m-1.062 7.964-1.347 10.098a1.057 1.057 0 0 0 .906 1.18 1.05 1.05 0 0 0 1.18-.91l1.347-10.098a1.05 1.05 0 0 0-.906-1.176 1.047 1.047 0 0 0-1.18.906m-12.57-48.582-.512-3.46h-15.3a1.055 1.055 0 0 1 0-2.11h16.21c.516 0 .965.379 1.043.902l.57 3.88q-1.037.326-2.011.788m21.082 50.989-1.023 7.68H54.62l-1.023-7.68ZM35.113.004h18.063v5.105H35.113Zm1.965 25.95a15.6 15.6 0 0 1 3.934 9.91l.004.058h3.742v2.113h13.195V25.953Zm20.813-2.11v-.063c0-5.222-2.95-9.789-7.27-12.113v-4.45H37.664v4.45c-3.691 1.988-6.383 5.613-7.086 9.887a15.8 15.8 0 0 1 4.223 2.289Zm0 0"/></g></svg>