<svg xmlns="http://www.w3.org/2000/svg" width="22" height="23" viewBox="0 0 16.5 17.25"><defs><clipPath id="a"><path d="M.105 0h15.813v15.813H.105Zm0 0"/></clipPath><clipPath id="b"><path d="M.105 8H8v7.813H.105Zm0 0"/></clipPath><clipPath id="c"><path d="M.105 0h15.813v15.813H.105Zm0 0"/></clipPath><clipPath id="d"><path d="M.105 8H8v7.813H.105Zm0 0"/></clipPath></defs><path fill="#2c6e7a" d="M11.984 5.574q-.385 0-.73-.172a1.6 1.6 0 0 1-.582-.476 1.65 1.65 0 0 1-.313-.688q-.076-.375.024-.75c.07-.25.187-.468.355-.664a1.67 1.67 0 0 1 1.356-.558q.386.024.719.218.334.188.55.512.212.323.262.703.053.387-.07.75a1.7 1.7 0 0 1-.399.64 1.6 1.6 0 0 1-1.172.485m0-2.84q-.294 0-.554.141a1.16 1.16 0 0 0-.426.387 1.17 1.17 0 0 0 .23 1.566 1.19 1.19 0 0 0 1.094.219 1.184 1.184 0 0 0 .313-2.113 1.2 1.2 0 0 0-.657-.2m0 0"/><g clip-path="url(#a)"><path fill="#2c6e7a" d="M.36 15.809a.23.23 0 0 1-.169-.07.22.22 0 0 1-.066-.173l.016-2.207q0-.328.234-.562l6.113-6.113a4.5 4.5 0 0 1-.277-1.598 4.56 4.56 0 0 1 1.133-2.988 4.6 4.6 0 0 1 1.27-1.012 4.55 4.55 0 0 1 3.163-.441 4.5 4.5 0 0 1 1.496.625q.692.446 1.184 1.109.492.662.727 1.453.23.79.168 1.613a4.5 4.5 0 0 1-.403 1.57q-.34.75-.926 1.337a4.6 4.6 0 0 1-1.035.773q-.574.316-1.21.457-.641.143-1.294.098a4.5 4.5 0 0 1-1.265-.266l-1.43 1.43a.24.24 0 0 1-.172.07H6.86v.758a.24.24 0 0 1-.07.172l-.809.808a.23.23 0 0 1-.168.07h-.761v.758a.23.23 0 0 1-.07.168l-.81.813a.22.22 0 0 1-.167.066h-.762v.762a.23.23 0 0 1-.07.168l-.07.07a.78.78 0 0 1-.555.239l-2.18.043ZM10.79 1.012c-.337 0-.669.043-.993.12a4.16 4.16 0 0 0-1.754.934q-.375.34-.656.754-.283.421-.453.895c-.118.312-.192.64-.227.973q-.052.501.02 1c.046.332.132.656.257.964q.063.147-.05.258l-6.22 6.223a.3.3 0 0 0-.097.23l-.015 1.965 1.937-.039a.33.33 0 0 0 .227-.098v-.898q0-.1.07-.172a.24.24 0 0 1 .168-.066h.902l.668-.672v-.899q0-.098.07-.168a.23.23 0 0 1 .168-.07h.899l.672-.672v-.898q0-.099.07-.168a.23.23 0 0 1 .168-.07h.899l1.472-1.47q.109-.111.254-.054a4.09 4.09 0 0 0 2.36.219q.591-.118 1.124-.406.529-.288.957-.715l.168.168-.168-.168c.29-.285.528-.61.72-.965.19-.36.323-.734.406-1.133q.117-.598.058-1.203a4.073 4.073 0 0 0-.914-2.2 4.1 4.1 0 0 0-1.977-1.324 4.1 4.1 0 0 0-1.19-.175m0 0"/></g><g clip-path="url(#b)"><path fill="#2c6e7a" d="M.36 15.809c-.106 0-.176-.051-.22-.149a.22.22 0 0 1 .051-.258L7.25 8.344q.168-.165.336 0 .165.17 0 .336L.527 15.738a.22.22 0 0 1-.168.07m0 0"/></g><path fill="#2c6e7a" d="M11.984 5.574q-.385 0-.73-.172a1.6 1.6 0 0 1-.582-.476 1.65 1.65 0 0 1-.313-.688q-.076-.375.024-.75c.07-.25.187-.468.355-.664a1.67 1.67 0 0 1 1.356-.558q.386.024.719.218.334.188.55.512.212.323.262.703.053.387-.07.75a1.7 1.7 0 0 1-.399.64 1.6 1.6 0 0 1-1.172.485m0-2.84q-.294 0-.554.141a1.16 1.16 0 0 0-.426.387 1.17 1.17 0 0 0 .23 1.566 1.19 1.19 0 0 0 1.094.219 1.184 1.184 0 0 0 .313-2.113 1.2 1.2 0 0 0-.657-.2m0 0"/><g clip-path="url(#c)"><path fill="#2c6e7a" d="M.36 15.809a.23.23 0 0 1-.169-.07.22.22 0 0 1-.066-.173l.016-2.207q0-.328.234-.562l6.113-6.113a4.5 4.5 0 0 1-.277-1.598 4.56 4.56 0 0 1 1.133-2.988 4.6 4.6 0 0 1 1.27-1.012 4.55 4.55 0 0 1 3.163-.441 4.5 4.5 0 0 1 1.496.625q.692.446 1.184 1.109.492.662.727 1.453.23.79.168 1.613a4.5 4.5 0 0 1-.403 1.57q-.34.75-.926 1.337a4.6 4.6 0 0 1-1.035.773q-.574.316-1.21.457-.641.143-1.294.098a4.5 4.5 0 0 1-1.265-.266l-1.43 1.43a.24.24 0 0 1-.172.07H6.86v.758a.24.24 0 0 1-.07.172l-.809.808a.23.23 0 0 1-.168.07h-.761v.758a.23.23 0 0 1-.07.168l-.81.813a.22.22 0 0 1-.167.066h-.762v.762a.23.23 0 0 1-.07.168l-.07.07a.78.78 0 0 1-.555.239l-2.18.043ZM10.79 1.012c-.337 0-.669.043-.993.12a4.16 4.16 0 0 0-1.754.934q-.375.34-.656.754-.283.421-.453.895c-.118.312-.192.64-.227.973q-.052.501.02 1c.046.332.132.656.257.964q.063.147-.05.258l-6.22 6.223a.3.3 0 0 0-.097.23l-.015 1.965 1.937-.039a.33.33 0 0 0 .227-.098v-.898q0-.1.07-.172a.24.24 0 0 1 .168-.066h.902l.668-.672v-.899q0-.098.07-.168a.23.23 0 0 1 .168-.07h.899l.672-.672v-.898q0-.099.07-.168a.23.23 0 0 1 .168-.07h.899l1.472-1.47q.109-.111.254-.054a4.09 4.09 0 0 0 2.36.219q.591-.118 1.124-.406.529-.288.957-.715l.168.168-.168-.168c.29-.285.528-.61.72-.965.19-.36.323-.734.406-1.133q.117-.598.058-1.203a4.073 4.073 0 0 0-.914-2.2 4.1 4.1 0 0 0-1.977-1.324 4.1 4.1 0 0 0-1.19-.175m0 0"/></g><g clip-path="url(#d)"><path fill="#2c6e7a" d="M.36 15.809c-.106 0-.176-.051-.22-.149a.22.22 0 0 1 .051-.258L7.25 8.344q.168-.165.336 0 .165.17 0 .336L.527 15.738a.22.22 0 0 1-.168.07m0 0"/></g></svg>