<svg xmlns="http://www.w3.org/2000/svg" width="87" height="126" viewBox="0 0 65.25 94.5"><defs><clipPath id="a"><path d="M0 82h64.508v9.492H0Zm0 0"/></clipPath><clipPath id="b"><path d="M0 .29h64.508V10H0Zm0 0"/></clipPath><clipPath id="c"><path d="M0 84h64.508v9.344H0Zm0 0"/></clipPath><clipPath id="d"><path d="M0 2.145h64.508V12H0Zm0 0"/></clipPath></defs><g clip-path="url(#a)"><path fill="#012430" d="m.02 90.973 6.246-2.84a1.52 1.52 0 0 1 1.265 0l7.77 3.531 7.773-3.531a1.54 1.54 0 0 1 1.262 0l7.773 3.531 7.77-3.531a1.52 1.52 0 0 1 1.266 0l7.773 3.531 7.77-3.531a1.51 1.51 0 0 1 1.261 0l6.246 2.84v-8.325H.02Zm0 0"/></g><g clip-path="url(#b)"><path fill="#012430" d="M57.95 3.82a1.52 1.52 0 0 1-1.266 0L48.914.29l-7.773 3.53a1.51 1.51 0 0 1-1.262 0L32.105.29l-7.773 3.53a1.51 1.51 0 0 1-1.262 0L15.297.29l-7.77 3.53a1.51 1.51 0 0 1-1.261 0L.02.984v8.32h64.175V.985Zm0 0"/></g><path fill="#012430" d="M43.695 12.363H.32a195.6 195.6 0 0 1 2.903 30.535c.05 3.344.02 6.692-.106 10.043ZM13.902 79.594l47.57-47.574a195 195 0 0 1 2.423-19.657H48.02L2.902 57.48c-.441 7.41-1.3 14.801-2.582 22.114Zm28.375-55.227a1.537 1.537 0 0 1 2.164 0l2.91 2.914-1.167-5.855a1.529 1.529 0 0 1 2.996-.598l1.312 6.567 6.047.863a1.529 1.529 0 0 1-.215 3.043c-.07 0-.14-.008-.215-.016l-4.98-.715.121.61 1.832 1.832a1.525 1.525 0 0 1 0 2.16c-.297.3-.687.45-1.078.45-.39 0-.785-.15-1.082-.45l-8.645-8.64a1.537 1.537 0 0 1 0-2.165m-5.402 5.406 1.082-1.082a1.525 1.525 0 0 1 2.16 0 1.525 1.525 0 0 1 0 2.16l-1.082 1.083a4.59 4.59 0 0 0 0 6.48 4.56 4.56 0 0 0 3.242 1.344 4.55 4.55 0 0 0 3.243-1.344l1.082-1.078a1.525 1.525 0 0 1 2.16 0 1.525 1.525 0 0 1 0 2.16l-1.082 1.078a7.58 7.58 0 0 1-5.403 2.239 7.59 7.59 0 0 1-5.402-2.239c-2.977-2.976-2.977-7.824 0-10.8M26.613 40.035a1.53 1.53 0 0 1 1.79-.273l11.343 5.941a1.527 1.527 0 1 1-1.418 2.707l-7.012-3.672 3.672 7.012a1.523 1.523 0 0 1-.644 2.063 1.525 1.525 0 0 1-2.062-.645L26.34 41.824a1.53 1.53 0 0 1 .273-1.789m-12.68 12.766a1.524 1.524 0 0 1 1.676-.75l8.856 2.043-4.875-4.875a1.525 1.525 0 0 1 0-2.16 1.525 1.525 0 0 1 2.16 0l8.645 8.64c.48.485.585 1.227.253 1.824a1.524 1.524 0 0 1-1.68.747l-8.855-2.043 4.88 4.878a1.525 1.525 0 0 1-1.083 2.606 1.52 1.52 0 0 1-1.078-.445l-8.644-8.645a1.526 1.526 0 0 1-.254-1.82m-6.226 6.14 2.16-2.16a1.53 1.53 0 0 1 2.16 0 1.525 1.525 0 0 1 0 2.16l-2.16 2.164a1.525 1.525 0 0 0 1.078 2.606c.41 0 .793-.16 1.082-.445a4.583 4.583 0 0 1 6.48 0 4.54 4.54 0 0 1 1.345 3.238 4.54 4.54 0 0 1-1.344 3.242l-2.16 2.16c-.297.301-.688.45-1.082.45-.387 0-.782-.149-1.078-.45a1.525 1.525 0 0 1 0-2.16l2.16-2.16c.289-.29.449-.672.449-1.082 0-.406-.16-.793-.45-1.078a1.53 1.53 0 0 0-2.16 0 4.55 4.55 0 0 1-3.242 1.34 4.54 4.54 0 0 1-3.238-1.34 4.56 4.56 0 0 1-1.344-3.242c0-1.223.477-2.375 1.344-3.243M61.195 36.621 18.227 79.594h45.671a195.4 195.4 0 0 1-2.906-36.696 199 199 0 0 1 .203-6.277m0 0"/><g clip-path="url(#c)"><path fill="#012430" d="m.02 92.824 6.246-2.836a1.52 1.52 0 0 1 1.265 0l7.77 3.532 7.773-3.532c.2-.093.414-.136.633-.136.215 0 .43.043.629.136l7.773 3.532 7.77-3.532a1.52 1.52 0 0 1 1.266 0l7.773 3.532 7.77-3.532a1.51 1.51 0 0 1 1.261 0l6.246 2.836v-8.32H.02Zm0 0"/></g><g clip-path="url(#d)"><path fill="#012430" d="M57.95 5.676a1.52 1.52 0 0 1-1.266 0l-7.77-3.531-7.773 3.53a1.51 1.51 0 0 1-1.262 0l-7.774-3.53-7.773 3.53a1.51 1.51 0 0 1-1.262 0l-7.773-3.53-7.77 3.53a1.51 1.51 0 0 1-1.261 0L.02 2.836v8.325h64.175V2.836Zm0 0"/></g><path fill="#012430" d="M43.695 14.215H.32A195.6 195.6 0 0 1 3.223 44.75c.05 3.344.02 6.695-.106 10.047ZM13.902 81.445l47.57-47.57a195 195 0 0 1 2.423-19.66H48.02L2.902 59.335c-.441 7.407-1.3 14.802-2.582 22.11Zm28.375-55.222a1.53 1.53 0 0 1 2.164 0l2.91 2.914-1.167-5.856a1.524 1.524 0 0 1 1.199-1.797 1.526 1.526 0 0 1 1.797 1.196l1.312 6.566 6.047.867c.836.117 1.418.89 1.297 1.727a1.53 1.53 0 0 1-1.727 1.297l-4.98-.711.121.605 1.832 1.836a1.525 1.525 0 0 1-1.078 2.606c-.39 0-.785-.149-1.082-.446l-8.645-8.644a1.53 1.53 0 0 1 0-2.16m-5.402 5.402 1.082-1.082a1.53 1.53 0 0 1 2.16 0 1.525 1.525 0 0 1 0 2.16l-1.082 1.082a4.595 4.595 0 0 0 0 6.485 4.55 4.55 0 0 0 3.242 1.34 4.55 4.55 0 0 0 3.243-1.34l1.082-1.083a1.525 1.525 0 0 1 2.16 0 1.525 1.525 0 0 1 0 2.16L47.68 42.43a7.6 7.6 0 0 1-5.403 2.238 7.6 7.6 0 0 1-5.402-2.238c-2.977-2.98-2.977-7.828 0-10.805M26.613 41.891a1.52 1.52 0 0 1 1.79-.274l11.343 5.942a1.53 1.53 0 0 1 .645 2.062 1.53 1.53 0 0 1-2.063.645l-7.012-3.676 3.672 7.015a1.523 1.523 0 0 1-1.351 2.235 1.53 1.53 0 0 1-1.356-.817L26.34 43.68c-.309-.594-.2-1.32.273-1.79m-12.68 12.761a1.53 1.53 0 0 1 1.676-.746l8.856 2.043-4.875-4.875a1.525 1.525 0 0 1 0-2.16 1.525 1.525 0 0 1 2.16 0l8.645 8.64c.48.485.585 1.227.253 1.821a1.53 1.53 0 0 1-1.68.75l-8.855-2.043 4.88 4.875a1.525 1.525 0 0 1 0 2.16c-.302.301-.688.45-1.083.45-.39 0-.781-.149-1.078-.45l-8.644-8.644a1.526 1.526 0 0 1-.254-1.82m-6.226 6.145 2.16-2.16a1.525 1.525 0 0 1 2.16 0 1.525 1.525 0 0 1 0 2.16l-2.16 2.16a1.525 1.525 0 0 0 0 2.16 1.519 1.519 0 0 0 2.16 0 4.59 4.59 0 0 1 6.48 0 4.56 4.56 0 0 1 1.345 3.242 4.56 4.56 0 0 1-1.344 3.243l-2.16 2.16a1.526 1.526 0 1 1-2.16-2.16l2.16-2.16c.289-.29.449-.672.449-1.083s-.16-.793-.45-1.082a1.53 1.53 0 0 0-2.16 0 4.55 4.55 0 0 1-3.242 1.344 4.54 4.54 0 0 1-3.238-1.344 4.54 4.54 0 0 1-1.344-3.242c0-1.222.477-2.37 1.344-3.238M61.195 38.477 18.227 81.445h45.671a195.4 195.4 0 0 1-2.906-36.695q.052-3.134.203-6.273m0 0"/></svg>