<svg xmlns="http://www.w3.org/2000/svg" width="95" height="95" viewBox="0 0 71.25 71.25"><defs><clipPath id="a"><path d="M43 43h26.766v26.766H43Zm0 0"/></clipPath><clipPath id="b"><path d="M43 43h26.766v26.766H43Zm0 0"/></clipPath></defs><path fill="#012430" d="m13.262 4.55-9.004 9-1.102-1.1a3.19 3.19 0 0 1-.687-3.477q.24-.588.687-1.04L7.648 3.45q.45-.45 1.036-.691.585-.244 1.218-.242c.426 0 .832.078 1.223.242q.585.24 1.031.691ZM20.297 29.59l9-9L49.27 40.559l-9 9.004ZM26.238 4.54 4.254 26.522q-.012-.002-.024-.015L.855 23.133A2.78 2.78 0 0 1 0 21.066q0-1.22.871-2.078L18.703 1.152a2.9 2.9 0 0 1 .95-.636Q20.186.29 20.77.289a2.9 2.9 0 0 1 2.07.848l3.387 3.386ZM66.414 62.215l-4.484 4.492a3.2 3.2 0 0 1-2.258.926 3.177 3.177 0 0 1-2.258-.926l-1.102-1.102 9-9 1.102 1.102q.45.445.691 1.031c.165.39.243.801.243 1.223s-.078.828-.243 1.219q-.24.584-.69 1.035m0 0"/><g clip-path="url(#a)"><path fill="#012430" d="M68.71 51.16 50.88 68.996a2.9 2.9 0 0 1-.957.637q-.54.227-1.125.226-.586.001-1.125-.226-.542-.222-.953-.637l-3.364-3.363a.3.3 0 0 1-.03-.035l21.987-21.989 3.399 3.399q.415.415.637.953.222.54.222 1.125a2.9 2.9 0 0 1-.222 1.121q-.222.544-.637.953m0 0"/></g><path fill="#012430" d="M37.875 9.957 9.672 38.16a2.84 2.84 0 0 1-2.07.88h-.04a2.74 2.74 0 0 1-2.042-.849l-3.372-3.363a2.81 2.81 0 0 1-.851-2.086 2.86 2.86 0 0 1 .867-2.086L30.367 2.45q.416-.41.953-.633.54-.227 1.125-.226c.39 0 .762.074 1.125.226q.54.224.95.633l3.37 3.371a2.9 2.9 0 0 1 .63 3.192c-.153.36-.368.672-.645.945M68.266 37.41a2.83 2.83 0 0 1-.864 2.07L39.195 67.684a2.9 2.9 0 0 1-2.11.879q-1.2 0-2.05-.848l-3.375-3.387a2.74 2.74 0 0 1-.848-2.078 2.83 2.83 0 0 1 .875-2.074l28.204-28.203a2.9 2.9 0 0 1 .949-.637c.355-.148.73-.227 1.117-.227.39 0 .762.07 1.121.22q.539.22.953.628l3.383 3.387a2.76 2.76 0 0 1 .852 2.066M13.262 4.55l-9.004 9-1.102-1.1a3.19 3.19 0 0 1-.687-3.477q.24-.588.687-1.04L7.648 3.45q.45-.45 1.036-.691.585-.244 1.218-.242c.426 0 .832.078 1.223.242q.585.24 1.031.691ZM20.297 29.59l9-9L49.27 40.559l-9 9.004ZM26.238 4.54 4.254 26.522q-.012-.002-.024-.015L.855 23.133A2.78 2.78 0 0 1 0 21.066q0-1.22.871-2.078L18.703 1.152a2.9 2.9 0 0 1 .95-.636Q20.186.29 20.77.289a2.9 2.9 0 0 1 2.07.848l3.387 3.386ZM66.414 62.215l-4.484 4.492a3.2 3.2 0 0 1-2.258.926 3.177 3.177 0 0 1-2.258-.926l-1.102-1.102 9-9 1.102 1.102q.45.445.691 1.031c.165.39.243.801.243 1.223s-.078.828-.243 1.219q-.24.584-.69 1.035m0 0"/><g clip-path="url(#b)"><path fill="#012430" d="M68.71 51.16 50.88 68.996a2.9 2.9 0 0 1-.957.637q-.54.227-1.125.226-.586.001-1.125-.226-.542-.222-.953-.637l-3.364-3.363a.3.3 0 0 1-.03-.035l21.987-21.989 3.399 3.399q.415.415.637.953.222.54.222 1.125a2.9 2.9 0 0 1-.222 1.121q-.222.544-.637.953m0 0"/></g><path fill="#012430" d="M37.875 9.957 9.672 38.16a2.84 2.84 0 0 1-2.07.88h-.04a2.74 2.74 0 0 1-2.042-.849l-3.372-3.363a2.81 2.81 0 0 1-.851-2.086 2.86 2.86 0 0 1 .867-2.086L30.367 2.45q.416-.41.953-.633.54-.227 1.125-.226c.39 0 .762.074 1.125.226q.54.224.95.633l3.37 3.371a2.9 2.9 0 0 1 .63 3.192c-.153.36-.368.672-.645.945M68.266 37.41a2.83 2.83 0 0 1-.864 2.07L39.195 67.684a2.9 2.9 0 0 1-2.11.879q-1.2 0-2.05-.848l-3.375-3.387a2.74 2.74 0 0 1-.848-2.078 2.83 2.83 0 0 1 .875-2.074l28.204-28.203a2.9 2.9 0 0 1 .949-.637c.355-.148.73-.227 1.117-.227.39 0 .762.07 1.121.22q.539.22.953.628l3.383 3.387a2.76 2.76 0 0 1 .852 2.066m0 0"/></svg>