<svg xmlns="http://www.w3.org/2000/svg" xmlns:xlink="http://www.w3.org/1999/xlink" width="115" zoomAndPan="magnify" viewBox="0 0 86.25 86.249996" height="115" preserveAspectRatio="xMidYMid meet" version="1.0"><defs><clipPath id="83c16e91de"><path d="M 0 0 L 85.507812 0 L 85.507812 85.507812 L 0 85.507812 Z M 0 0 " clip-rule="nonzero"/></clipPath></defs><g clip-path="url(#83c16e91de)"><path fill="#012430" d="M 5.554688 7.867188 L 5.554688 1.574219 C 5.554688 0.707031 6.257812 0 7.121094 0 L 49.8125 0 C 50.675781 0 51.378906 0.707031 51.378906 1.574219 L 51.378906 7.867188 C 51.378906 8.734375 50.675781 9.441406 49.8125 9.441406 L 7.121094 9.441406 C 6.257812 9.441406 5.554688 8.734375 5.554688 7.867188 Z M 13 15.375 L 43.933594 15.375 C 44.246094 15.375 44.554688 15.382812 44.863281 15.402344 L 44.863281 12.289062 L 12.070312 12.289062 L 12.070312 15.402344 C 12.375 15.382812 12.6875 15.375 13 15.375 Z M 48.019531 38.5 L 56.933594 38.5 L 56.933594 31.230469 C 56.933594 24.816406 52.265625 19.472656 46.144531 18.417969 C 46.085938 18.410156 46.027344 18.402344 45.96875 18.386719 C 45.304688 18.28125 44.625 18.226562 43.933594 18.226562 L 13 18.226562 C 12.308594 18.226562 11.628906 18.28125 10.96875 18.386719 C 10.910156 18.402344 10.851562 18.410156 10.789062 18.417969 C 10.789062 18.417969 10.785156 18.417969 10.785156 18.417969 C 4.667969 19.472656 0 24.816406 0 31.230469 L 0 38.5 L 8.917969 38.5 L 8.917969 32.566406 C 8.917969 31.777344 9.558594 31.140625 10.34375 31.140625 L 46.59375 31.140625 C 47.378906 31.140625 48.019531 31.777344 48.019531 32.566406 Z M 8.917969 41.351562 L 0 41.351562 L 0 62.351562 L 8.917969 62.351562 Z M 45.164062 69.710938 L 11.769531 69.710938 L 11.769531 33.992188 L 45.164062 33.992188 Z M 41.707031 59.195312 C 41.707031 56.996094 40.652344 54.847656 38.734375 53.152344 C 37.023438 51.636719 34.875 50.734375 32.988281 50.734375 C 30.835938 50.734375 28.28125 51.140625 26.292969 51.929688 C 26.148438 50.359375 25.691406 48.667969 24.921875 46.820312 C 25.9375 46.527344 26.871094 46.109375 27.71875 45.566406 L 27.871094 45.636719 C 28.554688 45.964844 29.328125 46.003906 30.046875 45.75 C 30.769531 45.492188 31.34375 44.972656 31.667969 44.285156 C 32.46875 42.597656 31.394531 39.261719 29.941406 37.519531 C 28.582031 35.890625 27.234375 35.957031 26.554688 36.140625 L 21.027344 37.621094 C 20.988281 37.632812 20.949219 37.644531 20.910156 37.660156 C 18.550781 38.511719 17.226562 40.199219 17.082031 42.539062 L 15.621094 52.875 C 14.875 55.769531 15.167969 58.492188 16.511719 61.175781 C 16.785156 63.25 17.855469 64.207031 18.726562 64.644531 C 20.015625 65.296875 21.71875 65.21875 23.449219 64.460938 C 25.699219 66.65625 30.140625 67.652344 32.988281 67.652344 C 37.019531 67.652344 41.707031 63.960938 41.707031 59.195312 Z M 32.988281 53.585938 C 29.816406 53.585938 26.671875 54.570312 25.835938 55.453125 C 25.789062 55.503906 25.738281 55.550781 25.683594 55.59375 C 25.660156 55.617188 25.636719 55.644531 25.613281 55.671875 C 25.164062 56.148438 24.898438 56.617188 24.605469 57.460938 C 24.402344 58.050781 23.847656 58.421875 23.257812 58.421875 C 23.105469 58.421875 22.945312 58.398438 22.792969 58.34375 C 22.046875 58.085938 21.652344 57.273438 21.910156 56.53125 C 22.210938 55.664062 22.601562 54.738281 23.449219 53.8125 L 23.449219 53.808594 C 23.664062 51.78125 23.058594 49.359375 21.609375 46.417969 C 21.40625 46.007812 21.414062 45.523438 21.632812 45.117188 C 21.847656 44.710938 22.246094 44.4375 22.703125 44.378906 C 24.285156 44.167969 25.597656 43.652344 26.710938 42.796875 C 27.132812 42.472656 27.699219 42.410156 28.179688 42.636719 L 29.085938 43.058594 C 29.171875 42.640625 28.917969 41.234375 28.199219 40 C 27.75 39.222656 27.367188 38.957031 27.25 38.90625 L 21.824219 40.363281 C 20.558594 40.832031 19.988281 41.554688 19.925781 42.753906 C 19.925781 42.796875 19.921875 42.839844 19.914062 42.878906 L 18.4375 53.355469 C 18.425781 53.410156 18.417969 53.464844 18.402344 53.519531 C 17.789062 55.847656 18.03125 57.9375 19.164062 60.097656 C 19.253906 60.265625 19.304688 60.445312 19.320312 60.632812 C 19.394531 61.410156 19.625 61.90625 20.015625 62.101562 C 20.664062 62.429688 21.894531 62.167969 23.085938 61.445312 C 23.308594 61.308594 23.566406 61.238281 23.824219 61.238281 C 23.941406 61.238281 24.058594 61.253906 24.171875 61.28125 C 24.542969 61.375 24.859375 61.613281 25.054688 61.945312 C 25.914062 63.414062 29.769531 64.800781 32.988281 64.800781 C 35.628906 64.800781 38.855469 62.214844 38.855469 59.195312 C 38.855469 56.097656 35.304688 53.585938 32.988281 53.585938 Z M 56.933594 54.125 L 56.933594 41.351562 L 48.019531 41.351562 L 48.019531 56.066406 C 49.617188 54.578125 51.757812 53.667969 54.101562 53.667969 C 55.089844 53.667969 56.042969 53.828125 56.933594 54.125 Z M 45.164062 72.566406 L 10.34375 72.566406 C 9.558594 72.566406 8.917969 71.925781 8.917969 71.140625 L 8.917969 65.207031 L 0 65.207031 L 0 75.183594 C 0 80.855469 4.617188 85.472656 10.289062 85.472656 L 46.640625 85.472656 C 46.941406 85.472656 47.234375 85.457031 47.527344 85.433594 C 46.0625 83.839844 45.164062 81.714844 45.164062 79.386719 Z M 79.382812 72.359375 L 72.417969 72.359375 L 72.417969 84.535156 L 79.382812 84.535156 C 82.738281 84.535156 85.472656 81.800781 85.472656 78.441406 C 85.472656 75.089844 82.742188 72.359375 79.382812 72.359375 Z M 62.601562 72.359375 L 69.566406 72.359375 L 69.566406 84.535156 L 62.601562 84.535156 C 61.601562 84.535156 60.652344 84.289062 59.816406 83.855469 C 59.8125 83.855469 59.808594 83.855469 59.808594 83.851562 C 59.742188 83.820312 59.679688 83.785156 59.617188 83.746094 C 59.609375 83.746094 59.601562 83.742188 59.59375 83.738281 C 57.753906 82.6875 56.511719 80.707031 56.511719 78.445312 C 56.511719 75.089844 59.246094 72.359375 62.601562 72.359375 Z M 61.84375 79.886719 C 61.566406 79.734375 61.328125 79.503906 61.171875 79.226562 C 61.035156 78.984375 60.964844 78.722656 60.964844 78.441406 C 60.964844 77.65625 60.328125 77.015625 59.539062 77.015625 C 58.75 77.015625 58.113281 77.65625 58.113281 78.441406 C 58.113281 79.207031 58.3125 79.964844 58.695312 80.640625 C 59.117188 81.378906 59.734375 81.984375 60.476562 82.390625 C 60.695312 82.507812 60.929688 82.566406 61.160156 82.566406 C 61.664062 82.566406 62.152344 82.292969 62.414062 81.820312 C 62.789062 81.128906 62.53125 80.261719 61.84375 79.886719 Z M 53.660156 78.441406 C 53.660156 76.125 54.546875 74.007812 56 72.417969 L 48.019531 72.417969 L 48.019531 79.386719 C 48.019531 81.742188 49.363281 83.789062 51.328125 84.800781 C 51.332031 84.800781 51.335938 84.804688 51.339844 84.808594 C 51.398438 84.835938 51.460938 84.867188 51.519531 84.894531 C 52.304688 85.265625 53.179688 85.472656 54.101562 85.472656 C 54.933594 85.472656 55.75 85.300781 56.503906 84.976562 C 54.753906 83.34375 53.660156 81.019531 53.660156 78.441406 Z M 48.019531 62.605469 C 48.019531 59.246094 50.75 56.519531 54.101562 56.519531 C 55.339844 56.519531 56.488281 56.886719 57.449219 57.519531 C 57.453125 57.523438 57.457031 57.527344 57.460938 57.527344 C 57.515625 57.566406 57.570312 57.601562 57.625 57.640625 C 57.628906 57.644531 57.632812 57.648438 57.636719 57.648438 C 59.183594 58.757812 60.191406 60.5625 60.191406 62.605469 L 60.191406 69.566406 L 48.019531 69.566406 Z M 50.71875 62.488281 C 50.929688 62.59375 51.15625 62.648438 51.375 62.648438 C 51.890625 62.648438 52.386719 62.367188 52.644531 61.878906 C 52.933594 61.316406 53.492188 60.972656 54.101562 60.972656 C 54.890625 60.972656 55.53125 60.332031 55.53125 59.542969 C 55.53125 58.757812 54.890625 58.117188 54.101562 58.117188 C 52.425781 58.117188 50.894531 59.054688 50.113281 60.5625 C 49.75 61.261719 50.019531 62.125 50.71875 62.488281 Z M 63.042969 69.507812 L 75.21875 69.507812 L 75.21875 64.027344 L 63.042969 64.027344 Z M 69.128906 48.128906 C 72.488281 48.128906 75.21875 50.859375 75.21875 54.214844 L 75.21875 61.179688 L 63.042969 61.179688 L 63.042969 54.214844 C 63.042969 50.859375 65.773438 48.128906 69.128906 48.128906 Z M 69.128906 49.722656 C 67.449219 49.722656 65.921875 50.664062 65.140625 52.179688 C 64.78125 52.878906 65.054688 53.738281 65.757812 54.097656 C 65.964844 54.207031 66.1875 54.257812 66.40625 54.257812 C 66.925781 54.257812 67.425781 53.976562 67.675781 53.484375 C 67.964844 52.925781 68.519531 52.578125 69.128906 52.578125 C 69.917969 52.578125 70.554688 51.9375 70.554688 51.152344 C 70.554688 50.363281 69.917969 49.722656 69.128906 49.722656 Z M 69.128906 49.722656 " fill-opacity="1" fill-rule="nonzero"/><path fill="#012430" d="M 5.554688 7.867188 L 5.554688 1.574219 C 5.554688 0.707031 6.257812 0 7.121094 0 L 49.8125 0 C 50.675781 0 51.378906 0.707031 51.378906 1.574219 L 51.378906 7.867188 C 51.378906 8.734375 50.675781 9.441406 49.8125 9.441406 L 7.121094 9.441406 C 6.257812 9.441406 5.554688 8.734375 5.554688 7.867188 Z M 13 15.375 L 43.933594 15.375 C 44.246094 15.375 44.554688 15.382812 44.863281 15.402344 L 44.863281 12.289062 L 12.070312 12.289062 L 12.070312 15.402344 C 12.375 15.382812 12.6875 15.375 13 15.375 Z M 48.019531 38.5 L 56.933594 38.5 L 56.933594 31.230469 C 56.933594 24.816406 52.265625 19.472656 46.144531 18.417969 C 46.085938 18.410156 46.027344 18.402344 45.96875 18.386719 C 45.304688 18.28125 44.625 18.226562 43.933594 18.226562 L 13 18.226562 C 12.308594 18.226562 11.628906 18.28125 10.96875 18.386719 C 10.910156 18.402344 10.851562 18.410156 10.789062 18.417969 C 10.789062 18.417969 10.785156 18.417969 10.785156 18.417969 C 4.667969 19.472656 0 24.816406 0 31.230469 L 0 38.5 L 8.917969 38.5 L 8.917969 32.566406 C 8.917969 31.777344 9.558594 31.140625 10.34375 31.140625 L 46.59375 31.140625 C 47.378906 31.140625 48.019531 31.777344 48.019531 32.566406 Z M 8.917969 41.351562 L 0 41.351562 L 0 62.351562 L 8.917969 62.351562 Z M 45.164062 69.710938 L 11.769531 69.710938 L 11.769531 33.992188 L 45.164062 33.992188 Z M 41.707031 59.195312 C 41.707031 56.996094 40.652344 54.847656 38.734375 53.152344 C 37.023438 51.636719 34.875 50.734375 32.988281 50.734375 C 30.835938 50.734375 28.28125 51.140625 26.292969 51.929688 C 26.148438 50.359375 25.691406 48.667969 24.921875 46.820312 C 25.9375 46.527344 26.871094 46.109375 27.71875 45.566406 L 27.871094 45.636719 C 28.554688 45.964844 29.328125 46.003906 30.046875 45.75 C 30.769531 45.492188 31.34375 44.972656 31.667969 44.285156 C 32.46875 42.597656 31.394531 39.261719 29.941406 37.519531 C 28.582031 35.890625 27.234375 35.957031 26.554688 36.140625 L 21.027344 37.621094 C 20.988281 37.632812 20.949219 37.644531 20.910156 37.660156 C 18.550781 38.511719 17.226562 40.199219 17.082031 42.539062 L 15.621094 52.875 C 14.875 55.769531 15.167969 58.492188 16.511719 61.175781 C 16.785156 63.25 17.855469 64.207031 18.726562 64.644531 C 20.015625 65.296875 21.71875 65.21875 23.449219 64.460938 C 25.699219 66.65625 30.140625 67.652344 32.988281 67.652344 C 37.019531 67.652344 41.707031 63.960938 41.707031 59.195312 Z M 32.988281 53.585938 C 29.816406 53.585938 26.671875 54.570312 25.835938 55.453125 C 25.789062 55.503906 25.738281 55.550781 25.683594 55.59375 C 25.660156 55.617188 25.636719 55.644531 25.613281 55.671875 C 25.164062 56.148438 24.898438 56.617188 24.605469 57.460938 C 24.402344 58.050781 23.847656 58.421875 23.257812 58.421875 C 23.105469 58.421875 22.945312 58.398438 22.792969 58.34375 C 22.046875 58.085938 21.652344 57.273438 21.910156 56.53125 C 22.210938 55.664062 22.601562 54.738281 23.449219 53.8125 L 23.449219 53.808594 C 23.664062 51.78125 23.058594 49.359375 21.609375 46.417969 C 21.40625 46.007812 21.414062 45.523438 21.632812 45.117188 C 21.847656 44.710938 22.246094 44.4375 22.703125 44.378906 C 24.285156 44.167969 25.597656 43.652344 26.710938 42.796875 C 27.132812 42.472656 27.699219 42.410156 28.179688 42.636719 L 29.085938 43.058594 C 29.171875 42.640625 28.917969 41.234375 28.199219 40 C 27.75 39.222656 27.367188 38.957031 27.25 38.90625 L 21.824219 40.363281 C 20.558594 40.832031 19.988281 41.554688 19.925781 42.753906 C 19.925781 42.796875 19.921875 42.839844 19.914062 42.878906 L 18.4375 53.355469 C 18.425781 53.410156 18.417969 53.464844 18.402344 53.519531 C 17.789062 55.847656 18.03125 57.9375 19.164062 60.097656 C 19.253906 60.265625 19.304688 60.445312 19.320312 60.632812 C 19.394531 61.410156 19.625 61.90625 20.015625 62.101562 C 20.664062 62.429688 21.894531 62.167969 23.085938 61.445312 C 23.308594 61.308594 23.566406 61.238281 23.824219 61.238281 C 23.941406 61.238281 24.058594 61.253906 24.171875 61.28125 C 24.542969 61.375 24.859375 61.613281 25.054688 61.945312 C 25.914062 63.414062 29.769531 64.800781 32.988281 64.800781 C 35.628906 64.800781 38.855469 62.214844 38.855469 59.195312 C 38.855469 56.097656 35.304688 53.585938 32.988281 53.585938 Z M 56.933594 54.125 L 56.933594 41.351562 L 48.019531 41.351562 L 48.019531 56.066406 C 49.617188 54.578125 51.757812 53.667969 54.101562 53.667969 C 55.089844 53.667969 56.042969 53.828125 56.933594 54.125 Z M 45.164062 72.566406 L 10.34375 72.566406 C 9.558594 72.566406 8.917969 71.925781 8.917969 71.140625 L 8.917969 65.207031 L 0 65.207031 L 0 75.183594 C 0 80.855469 4.617188 85.472656 10.289062 85.472656 L 46.640625 85.472656 C 46.941406 85.472656 47.234375 85.457031 47.527344 85.433594 C 46.0625 83.839844 45.164062 81.714844 45.164062 79.386719 Z M 79.382812 72.359375 L 72.417969 72.359375 L 72.417969 84.535156 L 79.382812 84.535156 C 82.738281 84.535156 85.472656 81.800781 85.472656 78.441406 C 85.472656 75.089844 82.742188 72.359375 79.382812 72.359375 Z M 62.601562 72.359375 L 69.566406 72.359375 L 69.566406 84.535156 L 62.601562 84.535156 C 61.601562 84.535156 60.652344 84.289062 59.816406 83.855469 C 59.8125 83.855469 59.808594 83.855469 59.808594 83.851562 C 59.742188 83.820312 59.679688 83.785156 59.617188 83.746094 C 59.609375 83.746094 59.601562 83.742188 59.59375 83.738281 C 57.753906 82.6875 56.511719 80.707031 56.511719 78.445312 C 56.511719 75.089844 59.246094 72.359375 62.601562 72.359375 Z M 61.84375 79.886719 C 61.566406 79.734375 61.328125 79.503906 61.171875 79.226562 C 61.035156 78.984375 60.964844 78.722656 60.964844 78.441406 C 60.964844 77.65625 60.328125 77.015625 59.539062 77.015625 C 58.75 77.015625 58.113281 77.65625 58.113281 78.441406 C 58.113281 79.207031 58.3125 79.964844 58.695312 80.640625 C 59.117188 81.378906 59.734375 81.984375 60.476562 82.390625 C 60.695312 82.507812 60.929688 82.566406 61.160156 82.566406 C 61.664062 82.566406 62.152344 82.292969 62.414062 81.820312 C 62.789062 81.128906 62.53125 80.261719 61.84375 79.886719 Z M 53.660156 78.441406 C 53.660156 76.125 54.546875 74.007812 56 72.417969 L 48.019531 72.417969 L 48.019531 79.386719 C 48.019531 81.742188 49.363281 83.789062 51.328125 84.800781 C 51.332031 84.800781 51.335938 84.804688 51.339844 84.808594 C 51.398438 84.835938 51.460938 84.867188 51.519531 84.894531 C 52.304688 85.265625 53.179688 85.472656 54.101562 85.472656 C 54.933594 85.472656 55.75 85.300781 56.503906 84.976562 C 54.753906 83.34375 53.660156 81.019531 53.660156 78.441406 Z M 48.019531 62.605469 C 48.019531 59.246094 50.75 56.519531 54.101562 56.519531 C 55.339844 56.519531 56.488281 56.886719 57.449219 57.519531 C 57.453125 57.523438 57.457031 57.527344 57.460938 57.527344 C 57.515625 57.566406 57.570312 57.601562 57.625 57.640625 C 57.628906 57.644531 57.632812 57.648438 57.636719 57.648438 C 59.183594 58.757812 60.191406 60.5625 60.191406 62.605469 L 60.191406 69.566406 L 48.019531 69.566406 Z M 50.71875 62.488281 C 50.929688 62.59375 51.15625 62.648438 51.375 62.648438 C 51.890625 62.648438 52.386719 62.367188 52.644531 61.878906 C 52.933594 61.316406 53.492188 60.972656 54.101562 60.972656 C 54.890625 60.972656 55.53125 60.332031 55.53125 59.542969 C 55.53125 58.757812 54.890625 58.117188 54.101562 58.117188 C 52.425781 58.117188 50.894531 59.054688 50.113281 60.5625 C 49.75 61.261719 50.019531 62.125 50.71875 62.488281 Z M 63.042969 69.507812 L 75.21875 69.507812 L 75.21875 64.027344 L 63.042969 64.027344 Z M 69.128906 48.128906 C 72.488281 48.128906 75.21875 50.859375 75.21875 54.214844 L 75.21875 61.179688 L 63.042969 61.179688 L 63.042969 54.214844 C 63.042969 50.859375 65.773438 48.128906 69.128906 48.128906 Z M 69.128906 49.722656 C 67.449219 49.722656 65.921875 50.664062 65.140625 52.179688 C 64.78125 52.878906 65.054688 53.738281 65.757812 54.097656 C 65.964844 54.207031 66.1875 54.257812 66.40625 54.257812 C 66.925781 54.257812 67.425781 53.976562 67.675781 53.484375 C 67.964844 52.925781 68.519531 52.578125 69.128906 52.578125 C 69.917969 52.578125 70.554688 51.9375 70.554688 51.152344 C 70.554688 50.363281 69.917969 49.722656 69.128906 49.722656 Z M 69.128906 49.722656 " fill-opacity="1" fill-rule="nonzero"/></g></svg>