<svg xmlns="http://www.w3.org/2000/svg" width="115" height="115" viewBox="0 0 86.25 86.25"><defs><clipPath id="a"><path d="M0 0h85.508v85.508H0Zm0 0"/></clipPath></defs><g fill="#012430" clip-path="url(#a)"><path d="M5.555 7.867V1.574C5.555.707 6.258 0 7.12 0h42.692c.863 0 1.566.707 1.566 1.574v6.293c0 .867-.703 1.574-1.566 1.574H7.12a1.573 1.573 0 0 1-1.566-1.574M13 15.375h30.934q.466 0 .93.027V12.29H12.07v3.113q.459-.028.93-.027M48.02 38.5h8.914v-7.27c0-6.414-4.668-11.757-10.79-12.812q-.088-.01-.175-.031a13 13 0 0 0-2.035-.16H13c-.691 0-1.371.054-2.031.16a1.3 1.3 0 0 1-.18.031h-.004C4.668 19.473 0 24.816 0 31.23v7.27h8.918v-5.934c0-.789.64-1.425 1.426-1.425h36.25c.785 0 1.426.636 1.426 1.425ZM8.918 41.352H0v21h8.918ZM45.164 69.71H11.77V33.992h33.394Zm-3.457-10.516c0-2.199-1.055-4.347-2.973-6.043-1.71-1.515-3.859-2.418-5.746-2.418-2.152 0-4.707.407-6.695 1.196-.145-1.57-.602-3.262-1.371-5.11q1.524-.439 2.797-1.254l.152.07a2.82 2.82 0 0 0 2.176.114 2.83 2.83 0 0 0 1.621-1.465c.8-1.687-.273-5.023-1.727-6.765-1.359-1.63-2.707-1.563-3.386-1.38l-5.528 1.481q-.058.017-.117.04c-2.36.85-3.683 2.538-3.828 4.878l-1.46 10.336c-.747 2.895-.454 5.617.89 8.3.273 2.075 1.343 3.032 2.215 3.47 1.289.652 2.992.574 4.722-.184 2.25 2.195 6.692 3.191 9.54 3.191 4.03 0 8.718-3.691 8.718-8.457m-8.719-5.61c-3.172 0-6.316.985-7.152 1.868a1.3 1.3 0 0 1-.152.14q-.036.037-.07.079c-.45.476-.716.945-1.009 1.789a1.43 1.43 0 0 1-1.812.883 1.424 1.424 0 0 1-.883-1.813c.3-.867.692-1.793 1.54-2.718v-.004c.214-2.028-.391-4.45-1.84-7.391a1.42 1.42 0 0 1 .023-1.3 1.41 1.41 0 0 1 1.07-.74c1.582-.21 2.895-.726 4.008-1.581a1.42 1.42 0 0 1 1.469-.16l.906.422c.086-.418-.168-1.825-.887-3.059-.449-.777-.832-1.043-.949-1.094l-5.426 1.457c-1.265.469-1.836 1.192-1.898 2.39a.7.7 0 0 1-.012.126l-1.477 10.476c-.011.055-.019.11-.035.165-.613 2.328-.37 4.417.762 6.578q.133.252.156.535c.075.777.305 1.273.696 1.469.648.328 1.879.066 3.07-.657a1.42 1.42 0 0 1 1.086-.164c.371.094.687.332.883.664.86 1.47 4.715 2.856 7.933 2.856 2.64 0 5.867-2.586 5.867-5.606 0-3.097-3.55-5.61-5.867-5.61m23.946.54V41.352H48.02v14.714a8.944 8.944 0 0 1 8.914-1.941m-11.77 18.441h-34.82c-.785 0-1.426-.64-1.426-1.425v-5.934H0v9.977c0 5.671 4.617 10.289 10.29 10.289h36.35c.301 0 .594-.016.887-.04a8.91 8.91 0 0 1-2.363-6.046Zm34.219-.207h-6.965v12.176h6.965c3.355 0 6.09-2.734 6.09-6.094 0-3.351-2.73-6.082-6.09-6.082m-16.781 0h6.964v12.176h-6.964c-1 0-1.95-.246-2.786-.68q-.006 0-.007-.003a2 2 0 0 1-.192-.106.1.1 0 0 1-.023-.008 6.1 6.1 0 0 1-3.082-5.293c0-3.355 2.734-6.086 6.09-6.086m-.758 7.528a1.73 1.73 0 0 1-.672-.66 1.6 1.6 0 0 1-.207-.786 1.426 1.426 0 0 0-2.852 0c0 .766.2 1.524.582 2.2a4.6 4.6 0 0 0 1.782 1.75c.218.117.453.175.683.175.504 0 .992-.273 1.254-.746a1.43 1.43 0 0 0-.57-1.933M53.66 78.44c0-2.316.887-4.433 2.34-6.023h-7.98v6.969a6.09 6.09 0 0 0 3.32 5.422l.18.086c.785.37 1.66.578 2.582.578a6.1 6.1 0 0 0 2.402-.496 8.91 8.91 0 0 1-2.844-6.536m-5.64-15.836a6.09 6.09 0 0 1 9.43-5.085q.005.006.01.007c.056.04.11.075.165.114q.006.006.012.007a6.09 6.09 0 0 1 2.554 4.957v6.961H48.02Zm2.699-.117c.21.106.437.16.656.16.516 0 1.012-.28 1.27-.77.289-.562.847-.905 1.457-.905.789 0 1.43-.641 1.43-1.43a1.43 1.43 0 0 0-1.43-1.426 4.49 4.49 0 0 0-3.989 2.446c-.363.699-.093 1.562.606 1.925m12.324 7.02h12.176v-5.48H63.043Zm6.086-21.38c3.36 0 6.09 2.731 6.09 6.087v6.965H63.043v-6.965a6.093 6.093 0 0 1 6.086-6.086m0 1.595c-1.68 0-3.207.941-3.988 2.457-.36.699-.086 1.558.617 1.918a1.419 1.419 0 0 0 1.918-.613 1.64 1.64 0 0 1 1.453-.907 1.427 1.427 0 0 0 0-2.855m0 0"/><path d="M5.555 7.867V1.574C5.555.707 6.258 0 7.12 0h42.692c.863 0 1.566.707 1.566 1.574v6.293c0 .867-.703 1.574-1.566 1.574H7.12a1.573 1.573 0 0 1-1.566-1.574M13 15.375h30.934q.466 0 .93.027V12.29H12.07v3.113q.459-.028.93-.027M48.02 38.5h8.914v-7.27c0-6.414-4.668-11.757-10.79-12.812q-.088-.01-.175-.031a13 13 0 0 0-2.035-.16H13c-.691 0-1.371.054-2.031.16a1.3 1.3 0 0 1-.18.031h-.004C4.668 19.473 0 24.816 0 31.23v7.27h8.918v-5.934c0-.789.64-1.425 1.426-1.425h36.25c.785 0 1.426.636 1.426 1.425ZM8.918 41.352H0v21h8.918ZM45.164 69.71H11.77V33.992h33.394Zm-3.457-10.516c0-2.199-1.055-4.347-2.973-6.043-1.71-1.515-3.859-2.418-5.746-2.418-2.152 0-4.707.407-6.695 1.196-.145-1.57-.602-3.262-1.371-5.11q1.524-.439 2.797-1.254l.152.07a2.82 2.82 0 0 0 2.176.114 2.83 2.83 0 0 0 1.621-1.465c.8-1.687-.273-5.023-1.727-6.765-1.359-1.63-2.707-1.563-3.386-1.38l-5.528 1.481q-.058.017-.117.04c-2.36.85-3.683 2.538-3.828 4.878l-1.46 10.336c-.747 2.895-.454 5.617.89 8.3.273 2.075 1.343 3.032 2.215 3.47 1.289.652 2.992.574 4.722-.184 2.25 2.195 6.692 3.191 9.54 3.191 4.03 0 8.718-3.691 8.718-8.457m-8.719-5.61c-3.172 0-6.316.985-7.152 1.868a1.3 1.3 0 0 1-.152.14q-.036.037-.07.079c-.45.476-.716.945-1.009 1.789a1.43 1.43 0 0 1-1.812.883 1.424 1.424 0 0 1-.883-1.813c.3-.867.692-1.793 1.54-2.718v-.004c.214-2.028-.391-4.45-1.84-7.391a1.42 1.42 0 0 1 .023-1.3 1.41 1.41 0 0 1 1.07-.74c1.582-.21 2.895-.726 4.008-1.581a1.42 1.42 0 0 1 1.469-.16l.906.422c.086-.418-.168-1.825-.887-3.059-.449-.777-.832-1.043-.949-1.094l-5.426 1.457c-1.265.469-1.836 1.192-1.898 2.39a.7.7 0 0 1-.012.126l-1.477 10.476c-.011.055-.019.11-.035.165-.613 2.328-.37 4.417.762 6.578q.133.252.156.535c.075.777.305 1.273.696 1.469.648.328 1.879.066 3.07-.657a1.42 1.42 0 0 1 1.086-.164c.371.094.687.332.883.664.86 1.47 4.715 2.856 7.933 2.856 2.64 0 5.867-2.586 5.867-5.606 0-3.097-3.55-5.61-5.867-5.61m23.946.54V41.352H48.02v14.714a8.944 8.944 0 0 1 8.914-1.941m-11.77 18.441h-34.82c-.785 0-1.426-.64-1.426-1.425v-5.934H0v9.977c0 5.671 4.617 10.289 10.29 10.289h36.35c.301 0 .594-.016.887-.04a8.91 8.91 0 0 1-2.363-6.046Zm34.219-.207h-6.965v12.176h6.965c3.355 0 6.09-2.734 6.09-6.094 0-3.351-2.73-6.082-6.09-6.082m-16.781 0h6.964v12.176h-6.964c-1 0-1.95-.246-2.786-.68q-.006 0-.007-.003a2 2 0 0 1-.192-.106.1.1 0 0 1-.023-.008 6.1 6.1 0 0 1-3.082-5.293c0-3.355 2.734-6.086 6.09-6.086m-.758 7.528a1.73 1.73 0 0 1-.672-.66 1.6 1.6 0 0 1-.207-.786 1.426 1.426 0 0 0-2.852 0c0 .766.2 1.524.582 2.2a4.6 4.6 0 0 0 1.782 1.75c.218.117.453.175.683.175.504 0 .992-.273 1.254-.746a1.43 1.43 0 0 0-.57-1.933M53.66 78.44c0-2.316.887-4.433 2.34-6.023h-7.98v6.969a6.09 6.09 0 0 0 3.32 5.422l.18.086c.785.37 1.66.578 2.582.578a6.1 6.1 0 0 0 2.402-.496 8.91 8.91 0 0 1-2.844-6.536m-5.64-15.836a6.09 6.09 0 0 1 9.43-5.085q.005.006.01.007c.056.04.11.075.165.114q.006.006.012.007a6.09 6.09 0 0 1 2.554 4.957v6.961H48.02Zm2.699-.117c.21.106.437.16.656.16.516 0 1.012-.28 1.27-.77.289-.562.847-.905 1.457-.905.789 0 1.43-.641 1.43-1.43a1.43 1.43 0 0 0-1.43-1.426 4.49 4.49 0 0 0-3.989 2.446c-.363.699-.093 1.562.606 1.925m12.324 7.02h12.176v-5.48H63.043Zm6.086-21.38c3.36 0 6.09 2.731 6.09 6.087v6.965H63.043v-6.965a6.093 6.093 0 0 1 6.086-6.086m0 1.595c-1.68 0-3.207.941-3.988 2.457-.36.699-.086 1.558.617 1.918a1.419 1.419 0 0 0 1.918-.613 1.64 1.64 0 0 1 1.453-.907 1.427 1.427 0 0 0 0-2.855m0 0"/></g></svg>