<svg xmlns="http://www.w3.org/2000/svg" width="93" height="109" viewBox="0 0 69.75 81.75"><defs><clipPath id="a"><path d="M0 .02h69.5v80.71H0Zm0 0"/></clipPath></defs><g fill="#d5ba2b" clip-path="url(#a)"><path d="M27.324 12.043 37 23.605v7.176a19.5 19.5 0 0 0-6.973-1.289c-.332 0-.66.133-.898.371a1.27 1.27 0 0 0-.371.899c.02 5.172 1.996 9.98 5.562 13.543 3.563 3.562 8.375 5.535 13.543 5.554h.008c5.172-.02 9.98-1.992 13.543-5.554 3.57-3.57 5.543-8.383 5.559-13.543 0-.336-.133-.66-.371-.899a1.26 1.26 0 0 0-.895-.37h-.004c-2.433.003-4.789.448-6.973 1.288v-7.176l9.676-11.562a1 1 0 0 0 .125-.18c.555-.96.703-2.082.414-3.156a4.15 4.15 0 0 0-1.941-2.523 4.2 4.2 0 0 0-4.45.187c-.566.395-.929.871-1.25 1.297-.117.152-.226.297-.335.43l-6.774 7.886c-.804.93-1.832 1.407-3.062 1.407h-6.535c-1.23 0-2.258-.477-3.059-1.41l-6.773-7.883c-.11-.133-.22-.282-.336-.434-.32-.422-.684-.902-1.258-1.3a4.165 4.165 0 0 0-5.977 5.5q.059.095.13.179m8.781 30.473c-2.785-2.786-4.453-6.453-4.765-10.442 3.984.313 7.652 1.977 10.445 4.766 2.781 2.781 4.445 6.45 4.762 10.437-3.988-.316-7.656-1.98-10.442-4.761m11.762-.828a18.9 18.9 0 0 0-4.293-6.641q-.105-.105-.21-.203c.402-3.18 1.976-6.219 4.503-8.707 2.524 2.484 4.102 5.527 4.504 8.707q-.105.099-.21.203a18.8 18.8 0 0 0-4.294 6.64m16.52-9.614c-.309 3.985-1.977 7.653-4.762 10.442-2.785 2.78-6.453 4.445-10.441 4.761.316-3.988 1.98-7.656 4.761-10.441 2.79-2.785 6.457-4.453 10.442-4.762M29.997 8.375a1.64 1.64 0 0 1 1.737.066c.239.168.442.438.68.75.133.18.27.36.434.551l6.773 7.887c1.281 1.496 3.004 2.289 4.977 2.289h6.535c1.976 0 3.699-.793 4.98-2.29l6.774-7.886c.16-.191.3-.37.433-.55.239-.313.442-.583.676-.743a1.62 1.62 0 0 1 1.746-.074c.38.219.649.57.762.992.105.387.062.793-.117 1.149l-9.895 11.82a1.25 1.25 0 0 0-.293.809v8.828c-.547.308-1.078.648-1.594 1.011-.816-3.558-2.863-6.875-5.91-9.523a1.265 1.265 0 0 0-1.66 0c-3.047 2.648-5.09 5.969-5.906 9.523-.52-.363-1.05-.703-1.598-1.011v-8.828c0-.297-.105-.586-.297-.813l-9.89-11.812a1.636 1.636 0 0 1 .652-2.145m38.44 43.895a5.38 5.38 0 0 0-7.277-2.149L50.191 56.09q-.018-.047-.043-.094a5.33 5.33 0 0 0-3.125-2.656L35.68 49.684l-2.758-.887c-4.113-1.324-8.125-.95-11.918 1.113L11.09 55.31 10.047 53.5a2.34 2.34 0 0 0-3.187-.855l-5.325 3.07a2.34 2.34 0 0 0-.855 3.191l11.976 20.79c.309.538.813.921 1.418 1.085a2.31 2.31 0 0 0 1.77-.23l5.32-3.063a2.34 2.34 0 0 0 .863-3.191l-.992-1.719.426-.23c2.2-1.196 4.523-1.414 6.914-.645l5.156 1.66q1.799.576 3.555.578c1.832 0 3.621-.472 5.352-1.414l23.847-12.98a5.34 5.34 0 0 0 2.582-3.195 5.35 5.35 0 0 0-.43-4.082M14.75 78.262 2.969 57.809l4.984-2.875 10.227 17.75q-.001.007.004.007l.011.02 1.543 2.68Zm51.688-22.625a2.8 2.8 0 0 1-1.36 1.687l-23.851 12.98c-2.204 1.2-4.532 1.419-6.922.653l-5.157-1.66c-3.074-.992-6.066-.711-8.898.832l-.477.258L12.352 57.5l9.859-5.367c3.16-1.723 6.504-2.035 9.93-.93l2.761.887c3.782 1.219 7.563 2.433 11.344 3.656.719.23 1.3.73 1.649 1.406.148.293.246.602.289.918q.004.023.007.051a2.8 2.8 0 0 1-.117 1.195 2.84 2.84 0 0 1-3.566 1.829l-6-1.934-5.973-1.922a1.26 1.26 0 0 0-1.59.816 1.26 1.26 0 0 0 .817 1.59q2.983.96 5.972 1.926 2.994.968 6 1.934a5.37 5.37 0 0 0 6.746-3.461c.149-.469.235-.946.254-1.422l11.625-6.328a2.85 2.85 0 0 1 3.852 1.133c.363.664.445 1.43.227 2.16m-18.57-39.442c4.456 0 8.085-3.629 8.085-8.086 0-4.46-3.629-8.09-8.086-8.09-4.46 0-8.086 3.63-8.086 8.09 0 4.457 3.625 8.086 8.086 8.086m0-13.648c3.062 0 5.554 2.496 5.554 5.562a5.56 5.56 0 0 1-5.555 5.555A5.56 5.56 0 0 1 42.31 8.11a5.566 5.566 0 0 1 5.558-5.562m0 0"/><path d="M27.324 12.043 37 23.605v7.176a19.5 19.5 0 0 0-6.973-1.289c-.332 0-.66.133-.898.371a1.27 1.27 0 0 0-.371.899c.02 5.172 1.996 9.98 5.562 13.543 3.563 3.562 8.375 5.535 13.543 5.554h.008c5.172-.02 9.98-1.992 13.543-5.554 3.57-3.57 5.543-8.383 5.559-13.543 0-.336-.133-.66-.371-.899a1.26 1.26 0 0 0-.895-.37h-.004c-2.433.003-4.789.448-6.973 1.288v-7.176l9.676-11.562a1 1 0 0 0 .125-.18c.555-.96.703-2.082.414-3.156a4.15 4.15 0 0 0-1.941-2.523 4.2 4.2 0 0 0-4.45.187c-.566.395-.929.871-1.25 1.297-.117.152-.226.297-.335.43l-6.774 7.886c-.804.93-1.832 1.407-3.062 1.407h-6.535c-1.23 0-2.258-.477-3.059-1.41l-6.773-7.883c-.11-.133-.22-.282-.336-.434-.32-.422-.684-.902-1.258-1.3a4.165 4.165 0 0 0-5.977 5.5q.059.095.13.179m8.781 30.473c-2.785-2.786-4.453-6.453-4.765-10.442 3.984.313 7.652 1.977 10.445 4.766 2.781 2.781 4.445 6.45 4.762 10.437-3.988-.316-7.656-1.98-10.442-4.761m11.762-.828a18.9 18.9 0 0 0-4.293-6.641q-.105-.105-.21-.203c.402-3.18 1.976-6.219 4.503-8.707 2.524 2.484 4.102 5.527 4.504 8.707q-.105.099-.21.203a18.8 18.8 0 0 0-4.294 6.64m16.52-9.614c-.309 3.985-1.977 7.653-4.762 10.442-2.785 2.78-6.453 4.445-10.441 4.761.316-3.988 1.98-7.656 4.761-10.441 2.79-2.785 6.457-4.453 10.442-4.762M29.997 8.375a1.64 1.64 0 0 1 1.737.066c.239.168.442.438.68.75.133.18.27.36.434.551l6.773 7.887c1.281 1.496 3.004 2.289 4.977 2.289h6.535c1.976 0 3.699-.793 4.98-2.29l6.774-7.886c.16-.191.3-.37.433-.55.239-.313.442-.583.676-.743a1.62 1.62 0 0 1 1.746-.074c.38.219.649.57.762.992.105.387.062.793-.117 1.149l-9.895 11.82a1.25 1.25 0 0 0-.293.809v8.828c-.547.308-1.078.648-1.594 1.011-.816-3.558-2.863-6.875-5.91-9.523a1.265 1.265 0 0 0-1.66 0c-3.047 2.648-5.09 5.969-5.906 9.523-.52-.363-1.05-.703-1.598-1.011v-8.828c0-.297-.105-.586-.297-.813l-9.89-11.812a1.636 1.636 0 0 1 .652-2.145m38.44 43.895a5.38 5.38 0 0 0-7.277-2.149L50.191 56.09q-.018-.047-.043-.094a5.33 5.33 0 0 0-3.125-2.656L35.68 49.684l-2.758-.887c-4.113-1.324-8.125-.95-11.918 1.113L11.09 55.31 10.047 53.5a2.34 2.34 0 0 0-3.187-.855l-5.325 3.07a2.34 2.34 0 0 0-.855 3.191l11.976 20.79c.309.538.813.921 1.418 1.085a2.31 2.31 0 0 0 1.77-.23l5.32-3.063a2.34 2.34 0 0 0 .863-3.191l-.992-1.719.426-.23c2.2-1.196 4.523-1.414 6.914-.645l5.156 1.66q1.799.576 3.555.578c1.832 0 3.621-.472 5.352-1.414l23.847-12.98a5.34 5.34 0 0 0 2.582-3.195 5.35 5.35 0 0 0-.43-4.082M14.75 78.262 2.969 57.809l4.984-2.875 10.227 17.75q-.001.007.004.007l.011.02 1.543 2.68Zm51.688-22.625a2.8 2.8 0 0 1-1.36 1.687l-23.851 12.98c-2.204 1.2-4.532 1.419-6.922.653l-5.157-1.66c-3.074-.992-6.066-.711-8.898.832l-.477.258L12.352 57.5l9.859-5.367c3.16-1.723 6.504-2.035 9.93-.93l2.761.887c3.782 1.219 7.563 2.433 11.344 3.656.719.23 1.3.73 1.649 1.406.148.293.246.602.289.918q.004.023.007.051a2.8 2.8 0 0 1-.117 1.195 2.84 2.84 0 0 1-3.566 1.829l-6-1.934-5.973-1.922a1.26 1.26 0 0 0-1.59.816 1.26 1.26 0 0 0 .817 1.59q2.983.96 5.972 1.926 2.994.968 6 1.934a5.37 5.37 0 0 0 6.746-3.461c.149-.469.235-.946.254-1.422l11.625-6.328a2.85 2.85 0 0 1 3.852 1.133c.363.664.445 1.43.227 2.16m-18.57-39.442c4.456 0 8.085-3.629 8.085-8.086 0-4.46-3.629-8.09-8.086-8.09-4.46 0-8.086 3.63-8.086 8.09 0 4.457 3.625 8.086 8.086 8.086m0-13.648c3.062 0 5.554 2.496 5.554 5.562a5.56 5.56 0 0 1-5.555 5.555A5.56 5.56 0 0 1 42.31 8.11a5.566 5.566 0 0 1 5.558-5.562m0 0"/></g></svg>